<?xml version="1.0" standalone="no"?>
<!DOCTYPE svg PUBLIC "-//W3C//DTD SVG 1.1//EN" "http://www.w3.org/Graphics/SVG/1.1/DTD/svg11.dtd" >
<svg xmlns="http://www.w3.org/2000/svg">
<metadata></metadata>
<defs>
<font id="dream_orphansbold_italic" horiz-adv-x="954" >
<font-face units-per-em="2048" ascent="1675" descent="-373" />
<missing-glyph horiz-adv-x="579" />
<glyph horiz-adv-x="0" />
<glyph unicode="&#xd;" horiz-adv-x="1095" />
<glyph unicode=" "  horiz-adv-x="579" />
<glyph unicode="&#x09;" horiz-adv-x="579" />
<glyph unicode="&#xa0;" horiz-adv-x="579" />
<glyph unicode="!" horiz-adv-x="438" d="M80 119q0 41 15.5 77.5t40 64.5t57 44.5t67.5 16.5q53 0 88 -40t35 -100q0 -41 -14.5 -77.5t-39 -64.5t-56 -44t-66.5 -16q-57 0 -92 39.5t-35 99.5zM225 518q4 45 11.5 121t15.5 168t16 191.5t14.5 193.5t11.5 174t7 131q0 43 -5 87t-5 73q0 74 64.5 123t158.5 49 q66 0 111 -35t45 -88q0 -25 -9.5 -50.5t-22.5 -55t-25.5 -60.5t-18.5 -63q-10 -41 -29.5 -116t-42 -165t-48 -190.5t-48.5 -192.5t-41 -170t-29 -125h-131z" />
<glyph unicode="&#x22;" horiz-adv-x="567" d="M295 1722q0 59 36 96t91 37q84 0 84 -73q0 -27 -8.5 -49.5t-24.5 -51.5q-49 -92 -65.5 -170.5t-34.5 -156.5h-66q4 47 7 92t3 92q0 45 -11 93t-11 91zM604 1724q0 57 37 94t90 37q82 0 82 -73q0 -45 -31 -101q-51 -92 -66.5 -170.5t-31.5 -156.5h-70q4 45 7.5 89t3.5 91 t-10.5 95t-10.5 95z" />
<glyph unicode="#" horiz-adv-x="735" d="M92 449l47 210h125l105 441h-133l47 207h118l127 489h138l-119 -489h76l118 489h138l-121 -489h139l-47 -207h-133l-103 -441h140l-47 -210h-136l-106 -449h-135l108 449h-82l-102 -449h-137l108 449h-133zM401 659h78l103 441h-78z" />
<glyph unicode="$" horiz-adv-x="802" d="M100 381l99 63q31 -145 143 -180l92 586q-61 41 -104 77t-68.5 70.5t-37 72.5t-11.5 83q0 170 86 273.5t246 140.5l24 159h45l-22 -151q23 2 58.5 3t58.5 1l22 147h45l-22 -155q59 -14 105 -57.5t81 -110.5l-84 -70q-43 111 -119 137l-84 -548q111 -78 157 -151t46 -173 q0 -174 -78 -280.5t-243 -147.5l-25 -170h-45l22 162q-20 -4 -40.5 -6t-38.5 -2h-37l-23 -154h-45l23 162q-160 33 -226 219zM387 258h10q61 0 109 21l72 444q-39 53 -105 98zM438 1210q0 -66 33 -125l53 347q-35 -31 -60.5 -89.5t-25.5 -132.5zM508 1036q16 -23 43 -44 t59 -44l84 529h-12q-55 0 -109 -21zM557 311q35 37 56.5 98.5t21.5 141.5q0 68 -23 115z" />
<glyph unicode="%" horiz-adv-x="1437" d="M199 1169q0 119 33.5 222.5t95 180.5t144.5 120t181 43q113 -2 172.5 -85t59.5 -225q0 -127 -39 -229t-102.5 -174t-144.5 -111t-167 -39q-117 0 -175 79t-58 218zM317 0l869 1731h162l-875 -1731h-156zM365 1186q0 -186 137 -187q37 0 74.5 31t67.5 83t49.5 121 t19.5 144q0 100 -36 164t-99 64q-43 0 -81 -39t-68 -100.5t-47 -136.5t-17 -144zM762 266q0 29 2 59.5t8 63.5q14 94 54 175t99.5 140.5t134.5 92t159 32.5q113 0 172 -85t59 -226q0 -123 -38 -224t-101.5 -174t-144.5 -113t-167 -40q-117 0 -177 80t-60 219zM932 283 q0 -188 135 -189q37 0 75 32t67.5 85t49 122.5t19.5 145.5q0 98 -37 160.5t-98 62.5q-43 0 -81 -39.5t-66.5 -101t-46 -135.5t-17.5 -143z" />
<glyph unicode="&#x26;" horiz-adv-x="1193" d="M111 373q0 74 19.5 153.5t54 153.5t84.5 133t110 92q-41 37 -61.5 104.5t-20.5 147.5q0 121 42 231.5t114.5 194.5t168 133t201.5 49q160 0 269 -127l-101 -100q-86 63 -147 64q-63 0 -117.5 -40t-94.5 -102.5t-62.5 -140.5t-22.5 -152q0 -92 35.5 -158.5t105.5 -80.5 q233 6 311 289l80 -7l-45 -282h150l-21 -137h-149l-78 -490q-2 -12 -3 -24.5t-1 -26.5q0 -27 4 -52.5t15.5 -45t28.5 -31.5t44 -12q16 0 49 10t84 33l27 -132q-86 -29 -143.5 -43t-86.5 -14q-74 0 -135 24.5t-88 82.5q-156 -106 -301 -107q-74 0 -133 34t-101 90t-63.5 131 t-21.5 155zM401 354q0 -94 37 -157.5t107 -63.5q61 0 133 41q-6 18 -8 37.5t-2 42.5q0 20 2 42.5t6 51.5l69 443h-61q-57 0 -108.5 -39t-90.5 -101.5t-61.5 -140.5t-22.5 -156z" />
<glyph unicode="'" horiz-adv-x="292" d="M205 1360q84 111 119.5 175t35.5 89q0 59 -114 59q115 195 207 195q55 0 85.5 -40t30.5 -99q0 -49 -20.5 -99.5t-67.5 -101.5l2 2q-35 -41 -106.5 -86t-171.5 -94z" />
<glyph unicode="(" horiz-adv-x="538" d="M39 20v32t4 32l195 1259q16 102 65 191.5t123 156t166 107.5t194 51l2 -24q-72 -10 -138 -54.5t-121.5 -108t-93.5 -139t-50 -149.5l-197 -1259q-6 -35 -8 -68t-2 -61q0 -168 78 -249t227 -81l-6 -14q-27 -4 -51.5 -8.5t-44.5 -4.5q-72 0 -134.5 32t-108.5 85t-72.5 125 t-26.5 149z" />
<glyph unicode=")" horiz-adv-x="538" d="M-23 -344q176 0 287 111.5t148 347.5l196 1259q2 16 3 31.5t1 32.5q0 68 -19.5 133t-54 118.5t-83.5 89.5t-109 46l12 24q88 -8 161 -41.5t124 -89t79 -128t28 -158.5q0 -43 -7 -89l-194 -1259q-14 -88 -60.5 -170t-113 -145.5t-145 -101.5t-156.5 -38q-20 0 -44 4.5 t-46 8.5z" />
<glyph unicode="*" horiz-adv-x="667" d="M215 1325l25 227l231 -63l-88 227l229 49l11 -243l186 151l117 -200l-226 -82l203 -131l-155 -173l-150 187l-63 -232l-211 95l133 202z" />
<glyph unicode="+" horiz-adv-x="638" d="M115 807v133h260v266h143v-266h266v-133h-266v-283h-143v283h-260z" />
<glyph unicode="," horiz-adv-x="372" d="M0 -195q78 102 118 169t40 92q0 61 -117 61q111 195 207 195q55 0 87 -38t32 -98q0 -100 -91 -202l3 2q-35 -41 -106 -86t-173 -95z" />
<glyph unicode="-" horiz-adv-x="696" d="M164 659l33 205h567l-33 -205h-567z" />
<glyph unicode="." horiz-adv-x="389" d="M63 119q0 41 15.5 77.5t40 64.5t56.5 44.5t67 16.5q53 0 89 -40t36 -100q0 -43 -15.5 -79.5t-40 -64.5t-56.5 -43t-67 -15q-55 0 -90 39.5t-35 99.5z" />
<glyph unicode="/" horiz-adv-x="788" d="M-25 -190l912 1925h164l-920 -1925h-156z" />
<glyph unicode="0" horiz-adv-x="1245" d="M131 475q0 168 47 338t144.5 305t243.5 220t343 85q111 0 190 -37.5t129 -105.5t72.5 -162t22.5 -207q0 -57 -5 -116.5t-15 -124.5q-23 -150 -95.5 -279t-175 -224t-228.5 -149.5t-255 -54.5q-203 0 -310.5 136.5t-107.5 375.5zM403 494q0 -166 61.5 -270.5t188.5 -104.5 q98 0 173 74.5t127.5 185t79 235.5t26.5 226q0 84 -14.5 159.5t-47 133t-86 91t-129.5 33.5q-74 0 -131 -50t-99 -128t-70.5 -171t-46 -178t-25 -149.5t-7.5 -86.5z" />
<glyph unicode="1" horiz-adv-x="442" d="M106 0l181 1169q0 6 1 11.5t1 11.5q0 66 -76 65v82l389 131l-227 -1470h-269z" />
<glyph unicode="2" horiz-adv-x="968" d="M31 0q209 193 330.5 307.5t162.5 157.5q84 92 138.5 171t85 150.5t43 136t12.5 130.5q0 109 -39 151.5t-96 42.5q-94 0 -224 -123l-75 70q92 127 198.5 178t216.5 51q88 0 145.5 -26.5t91.5 -70.5t47 -100.5t13 -115.5q0 -111 -32.5 -210t-109.5 -205.5t-205 -229.5 t-318 -283h561l-27 -182h-919z" />
<glyph unicode="3" horiz-adv-x="806" d="M29 -244q133 45 237.5 111.5t176 146.5t108.5 166t37 170q0 49 -12.5 92t-34 75t-51 51.5t-66.5 19.5q-12 0 -35.5 -6.5t-64.5 -22.5l20 148q162 47 238.5 133t76.5 209q0 82 -42 138t-111 56q-92 0 -232 -117l-75 68q94 127 199.5 178t215.5 51q68 0 123.5 -20.5t95 -59 t62.5 -92t23 -118.5q0 -127 -66 -240t-166 -184q74 -47 109.5 -115t35.5 -154q0 -76 -32.5 -159.5t-89 -166.5t-131 -160t-159.5 -140.5t-175 -107.5t-176 -60z" />
<glyph unicode="4" horiz-adv-x="1009" d="M2 0l1092 1513l-215 -1380h110l-20 -133h-109l-57 -354h-268l57 354h-590zM313 133h297l88 567z" />
<glyph unicode="5" horiz-adv-x="790" d="M80 -354l29 180q98 39 172.5 106.5t125 152.5t77 182.5t26.5 197.5q0 180 -79 340t-238 266l202 326h600l-28 -183h-459q270 -360 270 -669q0 -147 -49 -282.5t-139 -251t-219 -209t-291 -156.5z" />
<glyph unicode="6" horiz-adv-x="899" d="M111 406q0 188 46 385.5t143 373.5t245.5 315.5t355.5 211.5l2 -146q-184 -70 -307 -227.5t-170 -403.5q96 82 227 82q76 0 132.5 -29.5t93 -81.5t55 -122t18.5 -150q0 -117 -34.5 -233.5t-99 -209.5t-157 -150.5t-206.5 -57.5q-344 0 -344 443zM348 406q0 -135 37 -216 t113 -81q63 0 104 48t65.5 113.5t34 136t9.5 113.5q0 49 -8.5 94t-29 81t-53 57.5t-83.5 21.5q-72 0 -110 -37t-55.5 -92t-20.5 -119.5t-3 -119.5z" />
<glyph unicode="7" horiz-adv-x="911" d="M102 -354l699 1484h-602l41 269h874l-835 -1753h-177z" />
<glyph unicode="8" horiz-adv-x="995" d="M104 332q0 193 89 339.5t251 248.5q-170 141 -170 337q0 94 38 180.5t102.5 151t149.5 103.5t181 39q78 0 145.5 -21.5t117 -60.5t78 -94.5t28.5 -124.5q0 -123 -72.5 -234t-207.5 -197q86 -80 139 -197.5t53 -252.5q0 -133 -43 -240.5t-116.5 -184.5t-170 -119 t-202.5 -42q-104 0 -178 26.5t-121.5 76t-69 117t-21.5 149.5zM322 358q0 -113 49 -179t141 -66q61 0 116.5 32.5t97.5 86t65.5 119t23.5 132.5q0 117 -68.5 206.5t-181.5 148.5q-57 -35 -102 -88.5t-77 -117t-48 -134t-16 -140.5zM496 1405q0 -45 17 -91t46 -89t69 -81 t87 -67q86 59 143 145.5t57 190.5q0 86 -49 142.5t-133 56.5q-57 0 -101 -16.5t-75 -45t-46 -66.5t-15 -79z" />
<glyph unicode="9" horiz-adv-x="903" d="M119 -354l2 151q96 29 184 95.5t161 154.5t126 186.5t80 190.5q-41 -35 -91.5 -50.5t-103.5 -15.5q-80 0 -140.5 31t-101 85t-61 129t-20.5 161q0 147 39.5 269t108.5 208t160 134t193 48q344 0 344 -436q0 -121 -23.5 -252t-70.5 -264t-118.5 -259t-170 -235.5 t-222.5 -195.5t-275 -135zM399 868q0 -53 9.5 -104t32 -92t59.5 -66.5t94 -25.5q92 0 128 98t36 289q0 141 -38 225t-112 84q-66 0 -105.5 -50t-63 -118t-32 -136.5t-8.5 -103.5z" />
<glyph unicode=":" horiz-adv-x="401" d="M68 121q0 41 15 76.5t41 63.5t57.5 44.5t66.5 16.5q55 0 89 -39t34 -99q0 -43 -14.5 -79.5t-39 -64.5t-56.5 -44t-64 -16q-57 0 -93 39.5t-36 101.5zM172 786q0 41 14.5 77t39 63.5t57 44t69.5 16.5q53 0 88 -40t35 -99q0 -41 -14.5 -79t-39 -65.5t-56 -44t-66.5 -16.5 q-57 0 -92 41t-35 102z" />
<glyph unicode=";" horiz-adv-x="380" d="M2 -195q80 106 118 171t38 92q0 59 -115 59q111 195 207 195q55 0 87 -38t32 -98q0 -100 -90 -202l2 2q-35 -41 -106 -86t-173 -95zM170 786q0 39 15.5 76t40 64.5t56 44t66.5 16.5q55 0 90 -41t35 -100q0 -41 -15.5 -78t-40 -64.5t-56 -44t-66.5 -16.5q-57 0 -91 41 t-34 102z" />
<glyph unicode="&#x3c;" horiz-adv-x="622" d="M137 834l332 325l305 86l-391 -379l223 -307l-225 -63z" />
<glyph unicode="=" horiz-adv-x="608" d="M168 684l25 156h528l-25 -156h-528zM203 895l22 156h529l-25 -156h-526z" />
<glyph unicode="&#x3e;" horiz-adv-x="622" d="M113 463l387 371l-221 307l223 65l241 -340l-331 -323z" />
<glyph unicode="?" horiz-adv-x="813" d="M256 119q0 37 12.5 70.5t34 60t49 44t58.5 23.5h49q45 -8 71.5 -44.5t26.5 -90.5q0 -41 -14.5 -77.5t-38 -64.5t-55 -44t-66.5 -16q-59 0 -93 38.5t-34 100.5zM256 1550q86 121 191.5 168t257.5 47q74 0 132 -22.5t97 -62.5t59.5 -94t20.5 -118q0 -35 -9.5 -83t-30 -102 t-53 -113.5t-81.5 -114.5q-53 -61 -115.5 -127t-117 -127.5t-90.5 -114.5t-36 -88q0 -14 8.5 -47t18.5 -57l-139 -58l-66 203q-10 29 -10 70t28.5 92t75.5 110.5t107.5 126t126.5 138.5q37 39 59.5 79.5t36.5 75.5t19.5 63.5t5.5 47.5q0 45 -15.5 75.5t-39 50t-52.5 28 t-55 8.5q-113 0 -256 -174z" />
<glyph unicode="@" horiz-adv-x="1421" d="M152 616q0 154 34.5 298.5t94 272.5t142.5 234.5t177 182t198.5 118.5t209.5 43q102 0 198.5 -29.5t172 -97t120.5 -177t45 -267.5q0 -78 -13 -166t-40 -173t-66 -163t-91 -138t-116.5 -95t-140.5 -35q-59 0 -96 32.5t-55 106.5q-25 -59 -75 -99t-122 -40q-78 0 -117 88 t-39 229q0 100 18.5 201.5t54.5 183.5t89 133.5t121 51.5t119 -35t65 -107l37 111l76 -12l-94 -615q-4 -12 -4 -23.5v-21.5q0 -66 49 -65q29 0 73 26.5t86 92t71.5 179t29.5 287.5q0 143 -36 242.5t-95 162t-135 90.5t-156 28q-115 0 -216 -80t-177 -214t-121 -310.5 t-45 -366.5q0 -137 27.5 -252t79 -196.5t124 -127t162.5 -45.5q41 0 78 7.5t78 19.5l-10 -70q-53 -29 -111.5 -40t-122.5 -11q-119 0 -218 46t-170 132t-109.5 206t-38.5 267zM743 817q0 -51 5.5 -96t16.5 -79t28.5 -54.5t40.5 -20.5q14 0 32.5 16.5t35 40t28.5 49t14 46.5 l47 301q0 4 1 10t1 14q0 25 -6 51.5t-17.5 49t-28.5 38t-40 15.5q-72 0 -115 -100.5t-43 -280.5z" />
<glyph unicode="A" horiz-adv-x="894" d="M29 0l557 1733h278v-1733h-274v377h-283l-125 -377h-153zM356 512h238v797z" />
<glyph unicode="B" horiz-adv-x="937" d="M63 0l269 1733h440q123 0 193.5 -92.5t70.5 -251.5q0 -150 -53 -277t-141 -199q31 -20 56.5 -57t41.5 -83t25.5 -99t9.5 -105q0 -135 -46 -240.5t-127 -179t-190.5 -111.5t-238.5 -38h-310zM352 133h47q68 0 123.5 38t95 101.5t62 147.5t22.5 178q0 201 -151 201h-96z M475 932h117q37 0 70.5 36t59.5 96t42 137t16 159q0 106 -37.5 170.5t-111.5 64.5h-53z" />
<glyph unicode="C" horiz-adv-x="1052" d="M145 461q0 90 10.5 194.5t28.5 229.5q31 207 88.5 370.5t144.5 277.5t206.5 173t277.5 59q121 0 203 -94t129 -252l-160 -45q-10 47 -32.5 91t-53.5 78t-66.5 54.5t-72.5 20.5q-78 0 -154 -88t-135 -236.5t-96 -345t-37 -411.5q0 -92 10 -170t31.5 -134.5t54.5 -88 t76 -31.5q33 0 70 10t75.5 35.5t77.5 68.5t76 107h160q-61 -102 -124 -173t-130.5 -115t-140 -63.5t-152.5 -19.5q-184 0 -274.5 116t-90.5 382z" />
<glyph unicode="D" horiz-adv-x="1083" d="M63 0l269 1733h497q104 0 174 -51.5t112 -134.5t59.5 -189.5t17.5 -216.5q0 -68 -5 -134.5t-16 -127.5q-39 -252 -101 -421t-157.5 -270.5t-225.5 -144.5t-304 -43h-320zM350 133h142q72 0 135 50t115.5 145.5t93.5 234.5t67 316q18 123 19 231q0 109 -19.5 199 t-56.5 153.5t-91.5 98t-123.5 34.5h-53z" />
<glyph unicode="E" horiz-adv-x="866" d="M63 0l269 1733h803l-21 -138h-536l-103 -659h309l-22 -135h-307l-103 -668h535l-21 -133h-803z" />
<glyph unicode="F" horiz-adv-x="894" d="M63 0l269 1733h803l-23 -138h-534l-107 -682h377l-23 -137h-376l-119 -776h-267z" />
<glyph unicode="G" horiz-adv-x="1062" d="M143 430q0 180 43 455q31 207 88.5 369.5t144.5 276.5t205.5 174t276.5 60q141 0 218 -91t95 -255l-159 -45q-6 57 -25.5 102.5t-47.5 77t-62.5 48t-69.5 16.5q-82 0 -159 -95.5t-137 -254t-96 -364.5t-36 -427q0 -172 36 -267t107 -95q39 0 84 29.5t84 84t64.5 130 t25.5 167.5q0 59 -27.5 79t-80.5 24l24 86h336l-57 -373q-8 -47 -8 -102q0 -88 26 -168l-139 -78q-14 33 -22.5 64.5t-10.5 60.5q-72 -63 -172 -109.5t-211 -46.5q-86 0 -149.5 25.5t-105.5 81t-62.5 144.5t-20.5 216z" />
<glyph unicode="H" horiz-adv-x="1024" d="M63 0l269 1733h268l-121 -777h359l120 777h267l-269 -1733h-266l127 821h-358l-127 -821h-269z" />
<glyph unicode="I" horiz-adv-x="395" d="M61 0l269 1733h268l-268 -1733h-269z" />
<glyph unicode="J" horiz-adv-x="878" d="M47 256q0 33 6 70l27 163h141l-26 -174q-2 -10 -2 -30q0 -41 16 -73t43 -55.5t62.5 -35.5t72.5 -12q88 0 143.5 58t71.5 159l217 1407h271l-205 -1311q-16 -106 -64.5 -191.5t-119 -144.5t-159.5 -91t-190 -32q-135 0 -220 79t-85 214z" />
<glyph unicode="K" horiz-adv-x="1028" d="M61 0l269 1733h268l-100 -648l592 648h180l-598 -631l305 -1102h-277l-231 895l-139 -895h-269z" />
<glyph unicode="L" horiz-adv-x="722" d="M61 0l269 1733h266l-248 -1600h391l-20 -133h-658z" />
<glyph unicode="M" horiz-adv-x="1187" d="M61 0l269 1733h219l156 -1127l499 1127h191l-269 -1733h-264l172 1118l-475 -1075l-168 1094l-174 -1137h-156z" />
<glyph unicode="N" horiz-adv-x="940" d="M61 0l269 1733h229l281 -961l149 961h158l-277 -1770h-67l-389 1294l-195 -1257h-158z" />
<glyph unicode="O" horiz-adv-x="1187" d="M147 459q0 121 12.5 264t45.5 288.5t88 282t143 240.5t210 167.5t286 63.5q190 0 282.5 -137t92.5 -401q0 -260 -50.5 -490.5t-149.5 -402.5t-248.5 -271.5t-348.5 -99.5q-182 0 -272.5 116t-90.5 380zM430 526q0 -92 10.5 -168.5t31 -131t52 -85t72.5 -30.5 q78 0 153.5 87t135 235.5t96.5 346t37 418.5q0 190 -44 302t-130 112q-74 0 -147.5 -85t-133 -232.5t-96.5 -345t-37 -423.5z" />
<glyph unicode="P" horiz-adv-x="890" d="M61 0l269 1733h506q55 0 102 -27t81 -72t53.5 -102t19.5 -119q0 -14 -1 -27.5t-4 -27.5l-36 -242q-14 -88 -61.5 -162.5t-121 -129t-167 -85t-199.5 -30.5h-64l-110 -709h-267zM459 846h92q31 0 67.5 24.5t70.5 61.5t57.5 79t29.5 76l39 242q2 10 2 18.5v18.5 q0 43 -13 84t-37 73.5t-56.5 52t-71.5 19.5h-64z" />
<glyph unicode="Q" horiz-adv-x="1177" d="M139 459q0 121 12.5 264t45 288.5t88 282t143.5 240.5t210 167.5t286 63.5q188 0 280 -137t92 -399q0 -102 -12 -221t-36.5 -240t-60.5 -234.5t-82 -205.5t-101.5 -154.5t-118.5 -79.5q51 -55 102 -99t113 -54l-4 -86q-41 -16 -79 -23.5t-77 -7.5q-82 0 -137 45t-101 141 q-43 -29 -101 -38t-99 -9q-182 0 -272.5 116t-90.5 380zM420 530q0 -92 10 -169.5t31.5 -133t53.5 -86t75 -30.5q76 0 150.5 87t134 235.5t96.5 347t37 419.5q0 190 -43 301t-129 111q-72 0 -147 -85t-134 -231.5t-97 -343t-38 -422.5z" />
<glyph unicode="R" horiz-adv-x="985" d="M61 0l269 1733h510q66 0 111.5 -30t75.5 -80t43 -114.5t13 -134.5q0 -76 -15 -149.5t-47 -139t-80 -119t-112 -83.5q68 -23 103 -92.5t35 -165.5q0 -23 -2 -46.5t-7 -48.5l-49 -311q-2 -12 -3 -23.5t-1 -21.5q0 -84 56 -104l-13 -86q-29 -6 -67 -7q-109 0 -175.5 46.5 t-66.5 148.5q0 10 1 22.5t3 24.5l62 393q2 10 2 31q0 59 -29 107.5t-68 48.5h-157l-123 -799h-269zM473 932h180q37 0 68 43t52.5 104.5t32.5 129t11 116.5q0 123 -46 196.5t-132 73.5h-61z" />
<glyph unicode="S" horiz-adv-x="864" d="M74 262l155 100q6 -45 16.5 -88t29 -75.5t47 -52t75.5 -19.5q43 0 82 18.5t70 55.5t48 90t17 123q0 84 -23.5 154.5t-58 136t-75.5 131t-76 138.5t-58.5 158t-23.5 191q0 82 34 162t95 142.5t149.5 100t198.5 37.5q117 0 184.5 -57t92.5 -186l-142 -113 q-20 100 -61 146.5t-82 46.5q-49 0 -91 -17.5t-74 -49.5t-49 -75t-17 -94q0 -82 25.5 -148.5t64.5 -127t85 -121t85 -132t64.5 -158.5t25.5 -200q0 -139 -41 -236.5t-111.5 -160t-164 -91t-197.5 -28.5q-141 0 -209 76t-90 223z" />
<glyph unicode="T" horiz-adv-x="819" d="M238 1454l43 279h792l-43 -281h-20q-16 143 -88 143h-127l-246 -1595h-270l245 1595h-143q-70 0 -123 -141h-20z" />
<glyph unicode="U" horiz-adv-x="935" d="M102 231q0 47 9 95l217 1407h268l-213 -1379q-2 -10 -3 -18t-1 -19q0 -86 56.5 -143t139.5 -57q66 0 122.5 57t72.5 152l217 1407h158l-209 -1346q-23 -143 -78 -227t-128 -128t-157 -56.5t-163 -12.5q-307 0 -308 268z" />
<glyph unicode="V" horiz-adv-x="839" d="M272 -2v1735h254v-1409l428 1409h154l-559 -1735h-277z" />
<glyph unicode="W" horiz-adv-x="1177" d="M266 -2v1735h252l-39 -1409l211 606l-28 803h194v-402l127 402h113l-207 -588l24 -821l408 1409h129l-512 -1735h-203l-18 709l-232 -709h-219z" />
<glyph unicode="X" horiz-adv-x="960" d="M31 -2l471 858l-160 877h285l94 -646l311 646h160l-422 -818l164 -915h-285l-98 707l-348 -709h-172z" />
<glyph unicode="Y" horiz-adv-x="880" d="M279 1733h282l82 -633l326 633h174l-426 -740l-154 -993h-266l131 858z" />
<glyph unicode="Z" horiz-adv-x="923" d="M33 0l801 1595h-555l20 138h866l-800 -1600h565l-21 -133h-876z" />
<glyph unicode="[" horiz-adv-x="503" d="M20 -371l345 2220h340l-9 -59h-225l-328 -2099h226l-9 -62h-340z" />
<glyph unicode="\" horiz-adv-x="645" d="M279 1733h186l137 -1919h-180z" />
<glyph unicode="]" horiz-adv-x="503" d="M20 -371l9 62h225l326 2099h-226l11 59h340l-345 -2220h-340z" />
<glyph unicode="^" horiz-adv-x="894" d="M188 1284l435 420h178l303 -420h-330l-166 221l-231 -221h-189z" />
<glyph unicode="_" horiz-adv-x="1138" d="M-63 -256l20 121h1184l-21 -121h-1183z" />
<glyph unicode="`" horiz-adv-x="407" d="M227 1669q0 39 24.5 59.5t65.5 20.5q18 -2 40 -8t46 -23l205 -141l-47 -64l-272 91q-29 10 -45.5 25.5t-16.5 39.5z" />
<glyph unicode="a" d="M106 403q0 205 43.5 389.5t120 324.5t184 223t236.5 83q74 0 125 -48t84 -115l98 163l105 -90l-209 -1333h-188l-21 135q-41 -72 -116.5 -120t-180.5 -48q-141 0 -211 111.5t-70 324.5zM371 399q0 -139 32.5 -195.5t90.5 -56.5q33 0 64.5 29t59 73t48 98t28.5 106l92 591 q2 8 2 16.5v18.5q0 33 -7 68t-22.5 64.5t-38 49t-52.5 19.5q-41 0 -80 -40t-72 -107.5t-59.5 -157.5t-46 -187.5t-29.5 -198t-10 -190.5z" />
<glyph unicode="b" d="M59 0l260 1675l283 94l-70 -456q47 49 108.5 79.5t135.5 30.5q141 0 215 -115.5t74 -334.5q0 -82 -10.5 -188.5t-35 -218t-65.5 -220t-104.5 -193.5t-149.5 -137.5t-200 -52.5q-160 0 -197 158l-45 -121h-199zM379 319q0 -37 10 -74.5t29.5 -68.5t45 -51.5t56.5 -20.5 q35 0 70 42t65.5 113t57 162t46 189.5t31 196.5t11.5 182q0 115 -29 179.5t-96 64.5q-37 0 -70 -24.5t-59.5 -65.5t-46 -92.5t-27.5 -104.5l-92 -598q-2 -10 -2 -29z" />
<glyph unicode="c" horiz-adv-x="905" d="M121 475q0 233 51 410.5t138 297.5t201 180t239 60q123 0 186 -66.5t80 -193.5l-139 -55q-16 74 -48 120t-86 46q-61 0 -122.5 -51.5t-111.5 -151.5t-82 -249.5t-32 -344.5q0 -160 46 -256t145 -96q59 0 109 51t106 146l104 -64q-90 -147 -192.5 -221t-235.5 -74 q-86 0 -152.5 37t-111.5 103.5t-68.5 160.5t-23.5 211z" />
<glyph unicode="d" horiz-adv-x="935" d="M115 475q0 63 8 157.5t29.5 200t56.5 211t89 189.5t129 137t173 53q51 0 84 -7t56.5 -19.5t39 -30.5t31.5 -41l53 350l285 94l-275 -1769h-198l-8 117q-49 -72 -118 -113t-181 -41q-123 0 -188.5 138.5t-65.5 373.5zM391 526q0 -78 6 -149.5t20.5 -126.5t38 -88t58.5 -33 q20 0 45 26.5t46.5 64.5t37.5 80t21 73l90 583q2 10 2 20.5v20.5q0 39 -7.5 84t-22.5 85t-38.5 67t-54.5 27q-53 0 -97 -53.5t-77 -149.5t-50.5 -231.5t-17.5 -299.5z" />
<glyph unicode="e" horiz-adv-x="976" d="M129 469q0 178 52 349t140.5 306.5t205 217t247.5 81.5q158 0 228.5 -86t70.5 -241q0 -80 -37 -146.5t-114.5 -115t-198.5 -74t-287 -25.5q-14 -88 -20 -147.5t-6 -116.5q0 -61 8 -123.5t28.5 -112t55.5 -80t90 -30.5t106.5 49t104.5 148l106 -64q-86 -141 -186 -218 t-242 -77q-84 0 -149.5 37t-110.5 104.5t-68.5 160.5t-23.5 204zM479 905q186 10 289.5 62.5t103.5 146.5q0 27 -5 53.5t-18 48t-37 36t-60 14.5q-53 0 -96.5 -30t-78 -80t-59.5 -115.5t-39 -135.5z" />
<glyph unicode="f" horiz-adv-x="665" d="M61 -371l252 1631h-90l23 135h90q16 92 56 161.5t95.5 116.5t119 71.5t128.5 24.5q63 0 117.5 -14t93.5 -47l-72 -131q-25 20 -54 32.5t-64 12.5q-27 0 -51.5 -21.5t-44 -55.5t-34 -73.5t-20.5 -76.5h150l-23 -135h-149l-252 -1631h-271z" />
<glyph unicode="g" horiz-adv-x="1079" d="M-12 -133q0 61 25.5 112.5t70.5 91.5t106.5 68.5t135.5 44.5q-74 20 -106 57.5t-32 65.5q0 35 37 69t97 56q-66 59 -93.5 146.5t-27.5 181.5q0 125 44 243.5t121.5 212t187.5 150.5t239 57q90 0 155.5 -38.5t112.5 -110.5q18 -8 43 -8q57 0 115 75l65 -30 q-29 -104 -65.5 -155.5t-96.5 -63.5q4 -25 6 -49.5t2 -49.5q0 -174 -44 -299t-120.5 -205.5t-182 -119.5t-226.5 -39q-29 0 -77 12t-77 25q-6 -8 -8 -18.5t-2 -16.5q0 -29 19.5 -55.5t52.5 -48t71.5 -35t79.5 -13.5l-4 -49q-164 -33 -262 -76t-98 -118q0 -63 53 -105.5 t133 -42.5q47 0 112.5 9t131.5 23.5t122 32t85 35.5l31 -120q-160 -78 -308.5 -109t-281.5 -31q-154 0 -248 61.5t-94 176.5zM461 811q0 -59 9 -116.5t30.5 -104.5t59.5 -76t93 -29q45 0 85 22.5t68 73t44 130.5t16 194q0 63 -9 127t-29.5 114t-56.5 80.5t-87 30.5 q-45 0 -86 -29.5t-71.5 -87t-48 -140t-17.5 -189.5z" />
<glyph unicode="h" horiz-adv-x="909" d="M59 0l260 1675l283 94l-72 -458q25 37 58 58.5t66.5 33.5t66.5 16t57 4q70 0 120 -22.5t83 -61.5t48 -92t15 -112q0 -43 -6 -82l-161 -1053h-269l158 1020q2 10 2 18.5v16.5q0 35 -10 66.5t-26.5 56t-40 39t-50.5 14.5q-37 0 -63.5 -23.5t-47 -60.5t-33 -80t-18.5 -82 l-151 -985h-269z" />
<glyph unicode="i" horiz-adv-x="391" d="M63 0l203 1317l283 94l-217 -1411h-269zM295 1591q0 41 15.5 78t40 64.5t57 43t67.5 15.5q53 0 88 -40t35 -99q0 -41 -14.5 -78t-39 -64.5t-56 -43t-64.5 -15.5q-59 0 -94 40t-35 99z" />
<glyph unicode="j" horiz-adv-x="415" d="M-289 -231h72q123 0 201.5 61t99.5 184l203 1303l280 94l-198 -1280q-16 -109 -51 -187.5t-105 -137t-181.5 -100.5t-283.5 -77zM319 1591q0 41 15.5 78t40 64.5t56.5 43t67 15.5q55 0 90 -40t35 -101q0 -41 -15.5 -77t-40 -63.5t-56.5 -43t-67 -15.5q-57 0 -91 39 t-34 100z" />
<glyph unicode="k" d="M59 0l260 1675l281 94l-143 -929l518 557h178l-469 -508l258 -889h-291l-192 651l-39 -43l-94 -608h-267z" />
<glyph unicode="l" horiz-adv-x="391" d="M59 0l260 1675l283 94l-274 -1769h-269z" />
<glyph unicode="m" horiz-adv-x="1325" d="M59 0l203 1317l262 94l-14 -90q51 57 114.5 79.5t110.5 22.5q127 0 180 -110q119 117 273 117q121 0 183.5 -81t62.5 -210q0 -41 -7 -84l-161 -1055h-267l156 1022q4 23 6 44t2 40q0 76 -15 118t-44 42q-37 0 -62.5 -20.5t-42 -52.5t-25.5 -69t-13 -69l-162 -1055h-267 l156 1022q4 20 6 45t2 51q0 47 -13 85t-54 38q-51 0 -89 -64.5t-55 -162.5l-157 -1014h-269z" />
<glyph unicode="n" horiz-adv-x="933" d="M59 0l203 1317l260 94l-14 -98q53 63 118.5 86.5t129.5 23.5q131 0 209.5 -79.5t78.5 -215.5v-33.5t-4 -35.5l-163 -1059h-269l158 1026q4 16 4 31.5v29.5q0 76 -28.5 122t-82.5 46q-27 0 -54 -17t-52 -46t-42 -70t-24 -86l-161 -1036h-267z" />
<glyph unicode="o" horiz-adv-x="1013" d="M131 406q0 203 35 388t112.5 324t202.5 222t305 83q158 0 236 -113.5t78 -330.5q0 -98 -12.5 -211t-41 -226.5t-77.5 -218t-121 -184.5t-171 -128t-228 -48q-164 0 -241 109.5t-77 333.5zM401 434q0 -154 38 -234.5t116 -80.5q63 0 114.5 72.5t86.5 186.5t54 250t19 263 q0 76 -10 143.5t-29.5 118.5t-50 80t-73.5 29q-39 0 -74 -41t-64.5 -107.5t-52 -154t-39 -179.5t-26 -182t-9.5 -164z" />
<glyph unicode="p" horiz-adv-x="935" d="M2 -371l260 1688l240 94l4 -117q47 59 121.5 94t146.5 35q63 0 111.5 -35.5t81 -101t49 -159t16.5 -205.5q0 -109 -15.5 -222.5t-45 -220t-73.5 -200t-100.5 -164t-126 -111.5t-149.5 -41q-61 0 -108 31t-72 104l-72 -469h-268zM391 375q0 -41 7.5 -84t23.5 -80t43 -60.5 t67 -23.5q43 0 84 57.5t73 163t51.5 253t19.5 327.5q0 63 -6 122.5t-20.5 105.5t-39 73.5t-61.5 27.5q-25 0 -50.5 -26.5t-45 -65.5t-34 -80t-18.5 -67l-90 -582q-4 -14 -4 -29.5v-31.5z" />
<glyph unicode="q" d="M106 403q0 205 43.5 389.5t120 324.5t184 223t236.5 83q74 0 125 -48t84 -115l98 163l105 -90l-264 -1704h-271l72 463q-45 -70 -111.5 -97.5t-140.5 -27.5q-141 0 -211 111.5t-70 324.5zM371 399q0 -139 32.5 -195.5t90.5 -56.5q33 0 64.5 29t59 73t48 98t28.5 106 l92 591q2 8 2 16.5v18.5q0 33 -7 68t-22.5 64.5t-38 49t-52.5 19.5q-41 0 -80 -40t-72 -107.5t-59.5 -157.5t-46 -187.5t-29.5 -198t-10 -190.5z" />
<glyph unicode="r" horiz-adv-x="702" d="M59 0l203 1317l283 94l-27 -172q29 59 57.5 95t58.5 56.5t57.5 26.5t51.5 6q78 0 140 -86l-156 -190q-16 10 -33.5 16t-48.5 6q-25 0 -52.5 -20.5t-53 -59t-47 -94t-31.5 -123.5l-135 -872h-267z" />
<glyph unicode="s" horiz-adv-x="854" d="M80 262l149 100q10 -43 26.5 -84.5t38 -73.5t48.5 -52.5t55 -20.5q33 0 70 19.5t66.5 52.5t49 73.5t19.5 81.5q0 51 -29.5 99.5t-72.5 77.5q-53 33 -104.5 76.5t-91.5 99t-63.5 123t-23.5 145.5q0 125 40 210t104.5 137t148.5 74.5t174 22.5q104 0 174 -51t105 -166 l-134 -110q-33 72 -68.5 115.5t-80.5 43.5q-39 0 -75 -8t-63.5 -29.5t-44 -59.5t-16.5 -95q0 -61 30 -109.5t75 -90.5t97 -83t97 -92t75 -116.5t30 -155.5q0 -127 -38 -214t-104.5 -140.5t-157.5 -76t-198 -22.5q-115 0 -196.5 70.5t-110.5 228.5z" />
<glyph unicode="t" horiz-adv-x="647" d="M160 258q0 41 6 84l141 918h-90l23 135q242 0 323 288l76 -8l-43 -278h152l-21 -137h-152l-147 -951q-2 -10 -3 -20t-1 -21q0 -55 24.5 -101t77.5 -46q31 0 59.5 15.5t63.5 58.5l27 -134q-127 -96 -232 -96q-141 0 -212.5 79t-71.5 214z" />
<glyph unicode="u" horiz-adv-x="933" d="M102 274q0 29 7 64l153 987l279 94l-164 -1054q-6 -37 -6 -70q0 -76 30.5 -121t85.5 -45q33 0 62 19.5t50.5 50t35.5 67.5t20 72l154 987l281 94l-220 -1419h-217l-10 98q-53 -74 -119.5 -104.5t-138.5 -30.5q-133 0 -208 84t-75 227z" />
<glyph unicode="v" horiz-adv-x="839" d="M201 1397h286l66 -889l367 889h143l-606 -1434h-80z" />
<glyph unicode="w" horiz-adv-x="1288" d="M221 1397h252l78 -893l178 414l-51 479h242l84 -893l348 893h143l-586 -1434h-80l-61 756l-309 -756h-80z" />
<glyph unicode="x" horiz-adv-x="976" d="M45 -2l422 670l-193 729h289l125 -506l316 506h145l-416 -666l205 -731h-291l-133 504l-301 -506h-168z" />
<glyph unicode="y" horiz-adv-x="882" d="M-8 -371l24 162q92 0 170 43t113 119l90 201l-160 1243h285l66 -869l366 869h141l-624 -1452q-63 -147 -189.5 -231.5t-281.5 -84.5z" />
<glyph unicode="z" horiz-adv-x="903" d="M16 0l742 1247h-496l23 150h817l-744 -1247h506l-22 -150h-826z" />
<glyph unicode="{" horiz-adv-x="729" d="M193 715l8 49q92 16 161.5 93t92.5 212q6 37 10 84t9 94t9 91t9 77q14 100 45.5 174t82 126t122 85t167.5 49l-8 -43q-121 -35 -174 -101.5t-71.5 -153.5t-20.5 -190.5t-19 -209.5q-47 -287 -340 -410q217 -109 218 -331q0 -39 -7 -82q-6 -37 -21 -93.5t-31.5 -117 t-29 -117.5t-12.5 -100q0 -170 176 -230l-6 -43q-152 27 -221.5 102.5t-69.5 217.5q0 55 13.5 133t30 156.5t29.5 148.5t13 107q0 195 -165 223z" />
<glyph unicode="|" horiz-adv-x="268" d="M41 -231l324 2080h94l-322 -2080h-96z" />
<glyph unicode="}" horiz-adv-x="729" d="M23 -373l8 43q82 25 132 68t78.5 96t40 115.5t15.5 127t6 129t12 122.5q47 289 340 413q-219 104 -219 332q0 41 15.5 107.5t35 140.5t35 144.5t15.5 117.5q0 166 -175 223l7 43q152 -29 221 -101.5t69 -213.5q0 -37 -13 -106.5t-30.5 -150.5t-31 -160t-13.5 -132 q0 -193 168 -221l-8 -49q-117 -16 -175 -93t-79 -212q-6 -33 -10 -76t-8 -89t-8.5 -92.5t-10.5 -84.5q-33 -203 -130 -305.5t-287 -135.5z" />
<glyph unicode="~" horiz-adv-x="1155" d="M207 838q35 162 128 251t224 89q74 0 126 -41t92 -90.5t75 -90.5t76 -41q25 0 52.5 9.5t54 34t50 66.5t39.5 110h103q-12 -80 -47 -143.5t-83 -107.5t-106.5 -67.5t-122.5 -23.5q-49 0 -88 19t-70.5 49t-58 65t-51.5 64.5t-50.5 49t-53.5 19.5q-47 0 -92.5 -46 t-90.5 -175h-106z" />
<glyph unicode="&#xa1;" horiz-adv-x="438" d="M-4 -246q0 23 9 49.5t21.5 55t24.5 60.5t21 63q10 41 28.5 115.5t41 164.5t48 190.5t48 192.5t41 170t28.5 125h131q-4 -47 -11 -127t-15.5 -176t-16.5 -200.5t-15 -200t-11 -174t-4 -123.5q0 -41 4 -78t4 -64q0 -37 -17.5 -67.5t-47 -53t-69.5 -35t-85 -12.5 q-68 0 -113 35t-45 90zM283 1276q0 43 14 80t38.5 64.5t56.5 43t67 15.5q57 0 90 -39t33 -99q0 -41 -14.5 -78.5t-39 -65.5t-56.5 -44t-66 -16q-57 0 -90 40t-33 99z" />
<glyph unicode="&#xa3;" horiz-adv-x="1069" d="M68 20q31 66 67.5 126.5t69.5 124t58.5 136t35.5 164.5h-119l21 136h100q-2 47 -9 87t-15.5 78.5t-14.5 79.5t-6 95q0 166 49 299t135 226t204 143t253 50q119 0 218 -87t134 -255l-159 -49q-12 49 -32 93t-48.5 78t-64.5 53.5t-81 19.5q-59 0 -124.5 -36t-120 -105.5 t-90 -169t-35.5 -226.5q0 -90 15 -184t19 -190h383l-18 -136h-371q-12 -84 -27.5 -145t-38 -110.5t-56 -88.5t-85.5 -75q33 14 80 18t80 4q37 0 65.5 -7t57.5 -16.5t61.5 -16.5t75.5 -7q61 0 130 17.5t147 68.5l-23 -141q-92 -49 -160.5 -66.5t-128.5 -17.5q-43 0 -81.5 6 t-78.5 14t-82 14.5t-89 6.5q-55 0 -119 -11.5t-141 -40.5z" />
<glyph unicode="&#xa5;" horiz-adv-x="905" d="M117 233l24 158h230l26 166h-231l24 158h232l8 57l-137 961h282l70 -719l338 719h174l-440 -828l-29 -190h244l-25 -158h-243l-25 -166h242l-23 -158h-244l-36 -233h-267l37 233h-231z" />
<glyph unicode="&#xa8;" horiz-adv-x="606" d="M291 1616q0 27 11 51.5t28.5 43t39 28.5t44.5 10q39 0 62.5 -26.5t23.5 -67.5q0 -27 -10.5 -51.5t-28 -43t-39 -29.5t-43.5 -11q-41 0 -64.5 27.5t-23.5 68.5zM602 1614q0 53 38 94t87 41q35 0 59.5 -26.5t24.5 -67.5q0 -55 -38 -95t-83 -40q-39 0 -63.5 26.5t-24.5 67.5 z" />
<glyph unicode="&#xa9;" horiz-adv-x="1615" d="M119 856q0 178 67.5 335t184 273.5t273.5 184t335 67.5t333.5 -67.5t272.5 -184t184.5 -273.5t67.5 -335t-67.5 -333.5t-184.5 -272.5t-272.5 -184.5t-333.5 -67.5t-335 67.5t-273.5 184.5t-184 272.5t-67.5 333.5zM219 852q0 -158 59.5 -296t163 -240.5t242.5 -162 t297 -59.5q156 0 295 59.5t242.5 162t164 240.5t60.5 296t-60.5 298t-164 244.5t-242.5 165t-295 60.5q-158 0 -297 -60.5t-242.5 -165t-163 -244.5t-59.5 -298zM588 870q27 406 440 406q92 0 150.5 -25.5t87.5 -89.5l-56 -14q-47 84 -172 92q-147 -10 -206.5 -105.5 t-59.5 -277.5q0 -172 74 -271.5t215 -99.5q92 0 184 99l43 -17q-119 -127 -307 -127q-193 0 -291 116t-102 314z" />
<glyph unicode="&#xaa;" horiz-adv-x="667" d="M207 1030q0 121 70.5 216t226.5 126q41 8 66.5 27.5t41.5 60.5l11 64q2 10 2 17v15q0 47 -26 75t-69 28q-31 0 -64.5 -27.5t-68.5 -72.5l-75 45q59 88 129.5 124.5t148.5 36.5q94 0 146.5 -54t52.5 -132v-18.5t-2 -18.5l-84 -547q-2 -10 -2 -28q0 -49 26 -105h-127 q-14 16 -20 41t-6 51v23q-31 -59 -77 -99t-118 -40q-98 0 -140 53t-42 139zM371 1020q0 -47 17.5 -67.5t57.5 -20.5q29 0 56.5 31.5t46.5 78.5l39 256q-59 -33 -100.5 -54t-67 -48t-37.5 -66.5t-12 -109.5z" />
<glyph unicode="&#xab;" horiz-adv-x="739" d="M188 668l19 131l334 180l-23 -139l-215 -105l184 -106l-22 -133zM477 668l21 131l333 180l-22 -139l-215 -105l182 -106l-20 -133z" />
<glyph unicode="&#xad;" horiz-adv-x="696" d="M164 659l33 205h567l-33 -205h-567z" />
<glyph unicode="&#xae;" horiz-adv-x="1112" d="M233 1257q0 100 39 190.5t109 158t166 107.5t211 40q117 0 214 -38t167.5 -105.5t110.5 -157.5t40 -195q0 -98 -41 -187t-112.5 -156.5t-169 -108.5t-209.5 -41q-115 0 -211 41t-166 108.5t-109 156.5t-39 187zM332 1257q0 -74 29.5 -146.5t84 -129.5t133 -92t177.5 -35 q92 0 174 30.5t143.5 85t97 128t35.5 159.5q0 74 -33.5 146t-93 128t-142.5 91t-181 35t-177 -35t-133.5 -91t-84 -128t-29.5 -146zM578 997v531h231q63 0 104 -41t41 -98q0 -47 -24.5 -81t-79.5 -46q106 -8 106 -109v-102q0 -18 18.5 -26.5t35.5 -12.5v-23q-6 -2 -26.5 -2 h-27.5q-61 0 -91.5 17.5t-30.5 46.5v131q0 49 -82 49h-76v-234h-98zM676 1294h74q82 0 81 80q0 61 -33.5 89t-78.5 28h-43v-197z" />
<glyph unicode="&#xb0;" horiz-adv-x="628" d="M223 1444q0 68 26.5 125t69.5 99t100.5 65.5t119.5 23.5q59 0 116.5 -23.5t101.5 -65.5t70.5 -99.5t26.5 -124.5q0 -66 -26.5 -124t-70.5 -101t-101.5 -69t-116.5 -26t-116.5 23.5t-102 66.5t-71 101.5t-26.5 128.5zM336 1444q0 -45 17.5 -82t45 -63.5t64.5 -41t76 -14.5 t73.5 14.5t62 41t44 63.5t16.5 82t-16.5 82t-44 63.5t-62 39.5t-73.5 13t-76 -13t-64.5 -39.5t-45 -63.5t-17.5 -82z" />
<glyph unicode="&#xb4;" horiz-adv-x="407" d="M291 1577l250 141q29 16 52 23.5t44 7.5q70 0 70 -53q0 -66 -84 -92l-299 -91z" />
<glyph unicode="&#xb7;" horiz-adv-x="389" d="M172 817q0 41 14.5 78t39 64.5t57 44t67.5 16.5q55 0 90 -40t35 -101q0 -41 -15.5 -77t-40 -63.5t-56 -44t-66.5 -16.5q-55 0 -90 40t-35 99z" />
<glyph unicode="&#xb8;" horiz-adv-x="339" d="M39 -356l10 59q43 0 77 4t58.5 16.5t36.5 36t12 62.5q0 41 -24.5 51t-58.5 10l57 152l104 12l-51 -106q53 -6 85 -30t32 -77q0 -98 -77 -144t-261 -46z" />
<glyph unicode="&#xba;" horiz-adv-x="706" d="M217 1116q0 131 22.5 249t72.5 207t130 141t193 52q102 0 152.5 -72.5t50.5 -213.5q0 -176 -34 -300t-92.5 -202t-134 -113t-157.5 -35q-203 0 -203 287zM391 1133q0 -98 24.5 -150.5t73.5 -52.5q74 0 104.5 86t59.5 268q4 35 8.5 71t4.5 70q0 98 -26 167t-79 69 q-27 0 -48 -16.5t-39.5 -54.5t-35 -102.5t-30.5 -160.5q-10 -55 -13.5 -104t-3.5 -90z" />
<glyph unicode="&#xbb;" horiz-adv-x="763" d="M182 496l21 139l217 104l-184 107l22 133l281 -172l-21 -131zM473 496l23 139l215 104l-183 107l21 133l278 -172l-20 -131z" />
<glyph unicode="&#xbf;" horiz-adv-x="813" d="M4 -68q0 33 9.5 80t29.5 101.5t53 113t80 113.5q53 61 113.5 125.5t114 124t90 112t43.5 89.5q0 10 -9.5 45.5t-19.5 64.5l141 60l64 -205q4 -16 8 -32.5t4 -35.5q0 -41 -29.5 -93t-78 -112.5t-110 -127t-124.5 -136.5q-37 -41 -59.5 -82t-36 -76.5t-18.5 -63.5t-5 -42 q0 -47 15.5 -79t40 -50.5t53 -26.5t55.5 -8q106 0 256 174l74 -119q-86 -121 -190.5 -169t-256.5 -48t-229.5 86t-77.5 217zM457 1212q0 41 14 78t39 64.5t57.5 44t67.5 16.5q55 0 90 -40t35 -99q0 -76 -46 -131t-106 -68h-51q-47 10 -73.5 46t-26.5 89z" />
<glyph unicode="&#xc0;" horiz-adv-x="911" d="M29 0l557 1733h278v-1733h-274v377h-283l-125 -377h-153zM29 0zM356 512h238v797zM524 2003q0 39 24.5 59.5t65.5 20.5q18 -2 40 -8t46 -23l205 -141l-47 -64l-272 91q-29 10 -45.5 25.5t-16.5 39.5z" />
<glyph unicode="&#xc1;" horiz-adv-x="911" d="M29 0l557 1733h278v-1733h-274v377h-283l-125 -377h-153zM29 0zM356 512h238v797zM592 1911l250 141q29 16 52 23.5t44 7.5q70 0 70 -53q0 -66 -84 -92l-299 -91z" />
<glyph unicode="&#xc2;" horiz-adv-x="911" d="M29 0l557 1733h278v-1733h-274v377h-283l-125 -377h-153zM29 0zM356 512h238v797zM514 1888q0 14 16.5 49t69.5 62l174 86l152 -86q25 -16 40 -43t15 -45q0 -29 -18.5 -44t-40.5 -15q-33 0 -77 36.5t-85 83.5q-61 -47 -114.5 -83.5t-86.5 -36.5q-45 0 -45 36z" />
<glyph unicode="&#xc3;" horiz-adv-x="911" d="M29 0l557 1733h278v-1733h-274v377h-283l-125 -377h-153zM29 0zM356 512h238v797zM469 1874q20 98 74.5 153.5t130.5 55.5q43 0 72.5 -22.5t52.5 -49t40 -49t38 -22.5q23 0 50.5 23.5t45.5 94.5h76q-16 -98 -75.5 -152t-133.5 -54q-43 0 -72.5 22.5t-51 48t-41 48 t-40.5 22.5q-23 0 -43 -23.5t-47 -95.5h-76z" />
<glyph unicode="&#xc4;" horiz-adv-x="911" d="M29 0l557 1733h278v-1733h-274v377h-283l-125 -377h-153zM29 0zM356 512h238v797zM498 1950q0 27 11 51.5t28.5 43t39 28.5t44.5 10q39 0 62.5 -26.5t23.5 -67.5q0 -27 -10.5 -51.5t-28 -43t-39 -29.5t-43.5 -11q-41 0 -64.5 27.5t-23.5 68.5zM809 1948q0 53 38 94t87 41 q35 0 59.5 -26.5t24.5 -67.5q0 -55 -38 -95t-83 -40q-39 0 -63.5 26.5t-24.5 67.5z" />
<glyph unicode="&#xc5;" horiz-adv-x="894" d="M29 0l557 1733h63q-45 23 -74.5 67t-29.5 103q0 39 15 72.5t40 58t57.5 38t69.5 13.5t69.5 -13.5t59.5 -38t42 -58t15 -72.5q0 -57 -30.5 -102.5t-77.5 -67.5h59v-1733h-274v377h-283l-125 -377h-153zM356 512h238v797zM629 1903q0 -45 30.5 -72t67.5 -27t66.5 27 t29.5 72q0 43 -29.5 68.5t-66.5 25.5t-67.5 -25.5t-30.5 -68.5z" />
<glyph unicode="&#xc6;" horiz-adv-x="940" d="M12 0l547 1733h617l-23 -138h-340l-168 -1083h193l-21 -135h-194l-37 -244h340l-19 -133h-573l57 377h-158l-112 -377h-109zM283 512h131l139 911z" />
<glyph unicode="&#xc7;" horiz-adv-x="1069" d="M162 465q0 88 10 192.5t29 227.5q31 207 88 370.5t144 277.5t207 173t278 59q121 0 202.5 -94t128.5 -252l-159 -45q-10 47 -32 91t-52.5 78t-66.5 54.5t-75 20.5q-78 0 -153.5 -88t-135 -236.5t-96.5 -345t-37 -411.5q0 -92 11.5 -170t33 -134.5t54 -88t75.5 -31.5 q61 0 142.5 47t154.5 174h160q-106 -176 -218 -261t-243 -104l-14 -28q53 -6 86 -30t33 -77q0 -98 -77 -144t-261 -46l8 59q45 0 80 4t58.5 16.5t35.5 36t12 62.5q0 41 -24.5 51t-61.5 10l33 80q-180 2 -269 119t-89 383z" />
<glyph unicode="&#xc8;" horiz-adv-x="897" d="M63 0l269 1733h803l-21 -138h-536l-103 -659h309l-22 -135h-307l-103 -668h535l-21 -133h-803zM63 0zM518 2003q0 39 24.5 59.5t65.5 20.5q18 -2 40 -8t46 -23l205 -141l-47 -64l-272 91q-29 10 -45.5 25.5t-16.5 39.5z" />
<glyph unicode="&#xc9;" horiz-adv-x="897" d="M63 0l269 1733h803l-21 -138h-536l-103 -659h309l-22 -135h-307l-103 -668h535l-21 -133h-803zM63 0zM584 1911l250 141q29 16 52 23.5t44 7.5q70 0 70 -53q0 -66 -84 -92l-299 -91z" />
<glyph unicode="&#xca;" horiz-adv-x="897" d="M63 0l269 1733h803l-21 -138h-536l-103 -659h309l-22 -135h-307l-103 -668h535l-21 -133h-803zM63 0zM508 1888q0 14 16.5 49t69.5 62l174 86l152 -86q25 -16 40 -43t15 -45q0 -29 -18.5 -44t-40.5 -15q-33 0 -77 36.5t-85 83.5q-61 -47 -114.5 -83.5t-86.5 -36.5 q-45 0 -45 36z" />
<glyph unicode="&#xcb;" horiz-adv-x="897" d="M63 0l269 1733h803l-21 -138h-536l-103 -659h309l-22 -135h-307l-103 -668h535l-21 -133h-803zM63 0zM492 1950q0 27 11 51.5t28.5 43t39 28.5t44.5 10q39 0 62.5 -26.5t23.5 -67.5q0 -27 -10.5 -51.5t-28 -43t-39 -29.5t-43.5 -11q-41 0 -64.5 27.5t-23.5 68.5z M803 1948q0 53 38 94t87 41q35 0 59.5 -26.5t24.5 -67.5q0 -55 -38 -95t-83 -40q-39 0 -63.5 26.5t-24.5 67.5z" />
<glyph unicode="&#xcc;" horiz-adv-x="428" d="M61 0l269 1733h268l-268 -1733h-269zM61 0zM280 2003q0 39 24.5 59.5t65.5 20.5q18 -2 40 -8t46 -23l205 -141l-47 -64l-272 91q-29 10 -45.5 25.5t-16.5 39.5z" />
<glyph unicode="&#xcd;" horiz-adv-x="428" d="M61 0l269 1733h268l-268 -1733h-269zM61 0zM350 1911l250 141q29 16 52 23.5t44 7.5q70 0 70 -53q0 -66 -84 -92l-299 -91z" />
<glyph unicode="&#xce;" horiz-adv-x="428" d="M61 0l269 1733h268l-268 -1733h-269zM61 0zM274 1888q0 14 16.5 49t69.5 62l174 86l152 -86q25 -16 40 -43t15 -45q0 -29 -18.5 -44t-40.5 -15q-33 0 -77 36.5t-85 83.5q-61 -47 -114.5 -83.5t-86.5 -36.5q-45 0 -45 36z" />
<glyph unicode="&#xcf;" horiz-adv-x="428" d="M61 0l269 1733h268l-268 -1733h-269zM61 0zM260 1950q0 27 11 51.5t28.5 43t39 28.5t44.5 10q39 0 62.5 -26.5t23.5 -67.5q0 -27 -10.5 -51.5t-28 -43t-39 -29.5t-43.5 -11q-41 0 -64.5 27.5t-23.5 68.5zM571 1948q0 53 38 94t87 41q35 0 59.5 -26.5t24.5 -67.5 q0 -55 -38 -95t-83 -40q-39 0 -63.5 26.5t-24.5 67.5z" />
<glyph unicode="&#xd0;" horiz-adv-x="1116" d="M82 0l113 737h-82l30 203h82l125 793h496q104 0 174 -51.5t112 -134.5t59 -189.5t17 -216.5q0 -68 -5 -134.5t-15 -127.5q-39 -252 -101.5 -421t-157.5 -270.5t-225.5 -144.5t-304.5 -43h-317zM367 133h141q72 0 135.5 50t115.5 145.5t93 234.5t68 316q18 123 18 229 q0 111 -19.5 200t-56.5 153.5t-91 99t-124 34.5h-53l-105 -655h222l-31 -203h-221z" />
<glyph unicode="&#xd1;" horiz-adv-x="974" d="M61 0l269 1733h229l281 -961l149 961h158l-277 -1770h-67l-389 1294l-195 -1257h-158zM61 0zM501 1874q20 98 74.5 153.5t130.5 55.5q43 0 72.5 -22.5t52.5 -49t40 -49t38 -22.5q23 0 50.5 23.5t45.5 94.5h76q-16 -98 -75.5 -152t-133.5 -54q-43 0 -72.5 22.5t-51 48 t-41 48t-40.5 22.5q-23 0 -43 -23.5t-47 -95.5h-76z" />
<glyph unicode="&#xd2;" horiz-adv-x="1224" d="M147 0zM147 459q0 121 12.5 264t45.5 288.5t88 282t143 240.5t210 167.5t286 63.5q190 0 282.5 -137t92.5 -401q0 -260 -50.5 -490.5t-149.5 -402.5t-248.5 -271.5t-348.5 -99.5q-182 0 -272.5 116t-90.5 380zM430 526q0 -92 10.5 -168.5t31 -131t52 -85t72.5 -30.5 q78 0 153.5 87t135 235.5t96.5 346t37 418.5q0 190 -44 302t-130 112q-74 0 -147.5 -85t-133 -232.5t-96.5 -345t-37 -423.5zM680 2003q0 39 24.5 59.5t65.5 20.5q18 -2 40 -8t46 -23l205 -141l-47 -64l-272 91q-29 10 -45.5 25.5t-16.5 39.5z" />
<glyph unicode="&#xd3;" horiz-adv-x="1224" d="M147 0zM147 459q0 121 12.5 264t45.5 288.5t88 282t143 240.5t210 167.5t286 63.5q190 0 282.5 -137t92.5 -401q0 -260 -50.5 -490.5t-149.5 -402.5t-248.5 -271.5t-348.5 -99.5q-182 0 -272.5 116t-90.5 380zM430 526q0 -92 10.5 -168.5t31 -131t52 -85t72.5 -30.5 q78 0 153.5 87t135 235.5t96.5 346t37 418.5q0 190 -44 302t-130 112q-74 0 -147.5 -85t-133 -232.5t-96.5 -345t-37 -423.5zM748 1911l250 141q29 16 52 23.5t44 7.5q70 0 70 -53q0 -66 -84 -92l-299 -91z" />
<glyph unicode="&#xd4;" horiz-adv-x="1224" d="M147 0zM147 459q0 121 12.5 264t45.5 288.5t88 282t143 240.5t210 167.5t286 63.5q190 0 282.5 -137t92.5 -401q0 -260 -50.5 -490.5t-149.5 -402.5t-248.5 -271.5t-348.5 -99.5q-182 0 -272.5 116t-90.5 380zM430 526q0 -92 10.5 -168.5t31 -131t52 -85t72.5 -30.5 q78 0 153.5 87t135 235.5t96.5 346t37 418.5q0 190 -44 302t-130 112q-74 0 -147.5 -85t-133 -232.5t-96.5 -345t-37 -423.5zM672 1888q0 14 16.5 49t69.5 62l174 86l152 -86q25 -16 40 -43t15 -45q0 -29 -18.5 -44t-40.5 -15q-33 0 -77 36.5t-85 83.5q-61 -47 -114.5 -83.5 t-86.5 -36.5q-45 0 -45 36z" />
<glyph unicode="&#xd5;" horiz-adv-x="1224" d="M147 0zM147 459q0 121 12.5 264t45.5 288.5t88 282t143 240.5t210 167.5t286 63.5q190 0 282.5 -137t92.5 -401q0 -260 -50.5 -490.5t-149.5 -402.5t-248.5 -271.5t-348.5 -99.5q-182 0 -272.5 116t-90.5 380zM430 526q0 -92 10.5 -168.5t31 -131t52 -85t72.5 -30.5 q78 0 153.5 87t135 235.5t96.5 346t37 418.5q0 190 -44 302t-130 112q-74 0 -147.5 -85t-133 -232.5t-96.5 -345t-37 -423.5zM622 1874q20 98 74.5 153.5t130.5 55.5q43 0 72.5 -22.5t52.5 -49t40 -49t38 -22.5q23 0 50.5 23.5t45.5 94.5h76q-16 -98 -75.5 -152t-133.5 -54 q-43 0 -72.5 22.5t-51 48t-41 48t-40.5 22.5q-23 0 -43 -23.5t-47 -95.5h-76z" />
<glyph unicode="&#xd6;" horiz-adv-x="1224" d="M147 0zM147 459q0 121 12.5 264t45.5 288.5t88 282t143 240.5t210 167.5t286 63.5q190 0 282.5 -137t92.5 -401q0 -260 -50.5 -490.5t-149.5 -402.5t-248.5 -271.5t-348.5 -99.5q-182 0 -272.5 116t-90.5 380zM430 526q0 -92 10.5 -168.5t31 -131t52 -85t72.5 -30.5 q78 0 153.5 87t135 235.5t96.5 346t37 418.5q0 190 -44 302t-130 112q-74 0 -147.5 -85t-133 -232.5t-96.5 -345t-37 -423.5zM656 1950q0 27 11 51.5t28.5 43t39 28.5t44.5 10q39 0 62.5 -26.5t23.5 -67.5q0 -27 -10.5 -51.5t-28 -43t-39 -29.5t-43.5 -11q-41 0 -64.5 27.5 t-23.5 68.5zM967 1948q0 53 38 94t87 41q35 0 59.5 -26.5t24.5 -67.5q0 -55 -38 -95t-83 -40q-39 0 -63.5 26.5t-24.5 67.5z" />
<glyph unicode="&#xd7;" horiz-adv-x="645" d="M188 676l201 203l-184 182l94 92l184 -182l189 188l100 -104l-184 -187l184 -186l-94 -94l-186 186l-199 -201z" />
<glyph unicode="&#xd8;" horiz-adv-x="1187" d="M145 459q0 90 10.5 195.5t30.5 230.5q33 211 90.5 374.5t147.5 276.5t215 171t293 58q88 0 155 -30l60 118l129 -63l-74 -148q104 -135 105 -413q0 -72 -6.5 -152t-20.5 -170q-39 -246 -101.5 -425t-155.5 -293.5t-220 -170t-293 -55.5q-88 0 -156 25l-61 -121l-121 63 l70 142q-96 121 -97 387zM428 502q0 -14 1 -27.5t1 -28.5l539 1061q-45 104 -125 105q-76 0 -149.5 -88t-133 -238.5t-96.5 -352.5t-37 -431zM473 219q41 -109 123 -108q88 0 164 95t133 257t90 374t33 443z" />
<glyph unicode="&#xd9;" horiz-adv-x="968" d="M102 0zM102 231q0 47 9 95l217 1407h268l-213 -1379q-2 -10 -3 -18t-1 -19q0 -86 56.5 -143t139.5 -57q66 0 122.5 57t72.5 152l217 1407h158l-209 -1346q-23 -143 -78 -227t-128 -128t-157 -56.5t-163 -12.5q-307 0 -308 268zM551 2003q0 39 24.5 59.5t65.5 20.5 q18 -2 40 -8t46 -23l205 -141l-47 -64l-272 91q-29 10 -45.5 25.5t-16.5 39.5z" />
<glyph unicode="&#xda;" horiz-adv-x="968" d="M102 0zM102 231q0 47 9 95l217 1407h268l-213 -1379q-2 -10 -3 -18t-1 -19q0 -86 56.5 -143t139.5 -57q66 0 122.5 57t72.5 152l217 1407h158l-209 -1346q-23 -143 -78 -227t-128 -128t-157 -56.5t-163 -12.5q-307 0 -308 268zM619 1911l250 141q29 16 52 23.5t44 7.5 q70 0 70 -53q0 -66 -84 -92l-299 -91z" />
<glyph unicode="&#xdb;" horiz-adv-x="968" d="M102 0zM102 231q0 47 9 95l217 1407h268l-213 -1379q-2 -10 -3 -18t-1 -19q0 -86 56.5 -143t139.5 -57q66 0 122.5 57t72.5 152l217 1407h158l-209 -1346q-23 -143 -78 -227t-128 -128t-157 -56.5t-163 -12.5q-307 0 -308 268zM543 1888q0 14 16.5 49t69.5 62l174 86 l152 -86q25 -16 40 -43t15 -45q0 -29 -18.5 -44t-40.5 -15q-33 0 -77 36.5t-85 83.5q-61 -47 -114.5 -83.5t-86.5 -36.5q-45 0 -45 36z" />
<glyph unicode="&#xdc;" horiz-adv-x="968" d="M102 0zM102 231q0 47 9 95l217 1407h268l-213 -1379q-2 -10 -3 -18t-1 -19q0 -86 56.5 -143t139.5 -57q66 0 122.5 57t72.5 152l217 1407h158l-209 -1346q-23 -143 -78 -227t-128 -128t-157 -56.5t-163 -12.5q-307 0 -308 268zM527 1950q0 27 11 51.5t28.5 43t39 28.5 t44.5 10q39 0 62.5 -26.5t23.5 -67.5q0 -27 -10.5 -51.5t-28 -43t-39 -29.5t-43.5 -11q-41 0 -64.5 27.5t-23.5 68.5zM838 1948q0 53 38 94t87 41q35 0 59.5 -26.5t24.5 -67.5q0 -55 -38 -95t-83 -40q-39 0 -63.5 26.5t-24.5 67.5z" />
<glyph unicode="&#xdd;" horiz-adv-x="905" d="M279 0zM279 1733h282l82 -633l326 633h174l-426 -740l-154 -993h-266l131 858zM588 1911l250 141q29 16 52 23.5t44 7.5q70 0 70 -53q0 -66 -84 -92l-299 -91z" />
<glyph unicode="&#xde;" horiz-adv-x="923" d="M78 0l268 1733h266l-49 -308h242q55 0 101 -26.5t81 -71.5t54.5 -102.5t19.5 -118.5q0 -14 -1 -27.5t-3 -27.5l-39 -242q-14 -88 -64.5 -163t-124 -128t-167 -84t-193.5 -31h-63l-62 -403h-266zM428 539h92q31 0 68 24.5t70.5 61.5t57 80t29.5 77l37 240q2 10 2 20.5 v20.5q0 43 -13 84t-36.5 72.5t-55.5 51t-71 19.5h-63z" />
<glyph unicode="&#xdf;" horiz-adv-x="925" d="M57 0l213 1376q31 199 157 296t321 97q147 0 220.5 -92t73.5 -252q0 -41 -7 -110.5t-28.5 -146t-61.5 -148.5t-103 -115q25 -16 48 -48t41.5 -72t30 -86t11.5 -93q0 -12 -1 -23.5t-3 -23.5q-23 -131 -64 -237.5t-106.5 -181t-159.5 -114.5t-223 -40l20 127q63 0 110.5 43 t79 112.5t48 159.5t16.5 184q0 86 -40 137.5t-132 51.5l6 84q76 23 131.5 69.5t92 113.5t54 147.5t17.5 170.5q0 111 -34.5 172.5t-100.5 61.5q-45 0 -86 -60.5t-55 -154.5l-217 -1405h-269z" />
<glyph unicode="&#xe0;" d="M106 0zM106 403q0 205 43.5 389.5t120 324.5t184 223t236.5 83q74 0 125 -48t84 -115l98 163l105 -90l-209 -1333h-188l-21 135q-41 -72 -116.5 -120t-180.5 -48q-141 0 -211 111.5t-70 324.5zM371 399q0 -139 32.5 -195.5t90.5 -56.5q33 0 64.5 29t59 73t48 98t28.5 106 l92 591q2 8 2 16.5v18.5q0 33 -7 68t-22.5 64.5t-38 49t-52.5 19.5q-41 0 -80 -40t-72 -107.5t-59.5 -157.5t-46 -187.5t-29.5 -198t-10 -190.5zM489 1669q0 39 24.5 59.5t65.5 20.5q18 -2 40 -8t46 -23l205 -141l-47 -64l-272 91q-29 10 -45.5 25.5t-16.5 39.5z" />
<glyph unicode="&#xe1;" d="M106 0zM106 403q0 205 43.5 389.5t120 324.5t184 223t236.5 83q74 0 125 -48t84 -115l98 163l105 -90l-209 -1333h-188l-21 135q-41 -72 -116.5 -120t-180.5 -48q-141 0 -211 111.5t-70 324.5zM371 399q0 -139 32.5 -195.5t90.5 -56.5q33 0 64.5 29t59 73t48 98t28.5 106 l92 591q2 8 2 16.5v18.5q0 33 -7 68t-22.5 64.5t-38 49t-52.5 19.5q-41 0 -80 -40t-72 -107.5t-59.5 -157.5t-46 -187.5t-29.5 -198t-10 -190.5zM555 1577l250 141q29 16 52 23.5t44 7.5q70 0 70 -53q0 -66 -84 -92l-299 -91z" />
<glyph unicode="&#xe2;" d="M106 0zM106 403q0 205 43.5 389.5t120 324.5t184 223t236.5 83q74 0 125 -48t84 -115l98 163l105 -90l-209 -1333h-188l-21 135q-41 -72 -116.5 -120t-180.5 -48q-141 0 -211 111.5t-70 324.5zM371 399q0 -139 32.5 -195.5t90.5 -56.5q33 0 64.5 29t59 73t48 98t28.5 106 l92 591q2 8 2 16.5v18.5q0 33 -7 68t-22.5 64.5t-38 49t-52.5 19.5q-41 0 -80 -40t-72 -107.5t-59.5 -157.5t-46 -187.5t-29.5 -198t-10 -190.5zM479 1554q0 14 16.5 49t69.5 62l174 86l152 -86q25 -16 40 -43t15 -45q0 -29 -18.5 -44t-40.5 -15q-33 0 -77 36.5t-85 83.5 q-61 -47 -114.5 -83.5t-86.5 -36.5q-45 0 -45 36z" />
<glyph unicode="&#xe3;" d="M106 0zM106 403q0 205 43.5 389.5t120 324.5t184 223t236.5 83q74 0 125 -48t84 -115l98 163l105 -90l-209 -1333h-188l-21 135q-41 -72 -116.5 -120t-180.5 -48q-141 0 -211 111.5t-70 324.5zM371 399q0 -139 32.5 -195.5t90.5 -56.5q33 0 64.5 29t59 73t48 98t28.5 106 l92 591q2 8 2 16.5v18.5q0 33 -7 68t-22.5 64.5t-38 49t-52.5 19.5q-41 0 -80 -40t-72 -107.5t-59.5 -157.5t-46 -187.5t-29.5 -198t-10 -190.5zM432 1540q20 98 74.5 153.5t130.5 55.5q43 0 72.5 -22.5t52.5 -49t40 -49t38 -22.5q23 0 50.5 23.5t45.5 94.5h76 q-16 -98 -75.5 -152t-133.5 -54q-43 0 -72.5 22.5t-51 48t-41 48t-40.5 22.5q-23 0 -43 -23.5t-47 -95.5h-76z" />
<glyph unicode="&#xe4;" d="M106 0zM106 403q0 205 43.5 389.5t120 324.5t184 223t236.5 83q74 0 125 -48t84 -115l98 163l105 -90l-209 -1333h-188l-21 135q-41 -72 -116.5 -120t-180.5 -48q-141 0 -211 111.5t-70 324.5zM371 399q0 -139 32.5 -195.5t90.5 -56.5q33 0 64.5 29t59 73t48 98t28.5 106 l92 591q2 8 2 16.5v18.5q0 33 -7 68t-22.5 64.5t-38 49t-52.5 19.5q-41 0 -80 -40t-72 -107.5t-59.5 -157.5t-46 -187.5t-29.5 -198t-10 -190.5zM463 1616q0 27 11 51.5t28.5 43t39 28.5t44.5 10q39 0 62.5 -26.5t23.5 -67.5q0 -27 -10.5 -51.5t-28 -43t-39 -29.5t-43.5 -11 q-41 0 -64.5 27.5t-23.5 68.5zM774 1614q0 53 38 94t87 41q35 0 59.5 -26.5t24.5 -67.5q0 -55 -38 -95t-83 -40q-39 0 -63.5 26.5t-24.5 67.5z" />
<glyph unicode="&#xe5;" d="M106 0zM106 403q0 205 43.5 389.5t120 324.5t184 223t236.5 83q74 0 125 -48t84 -115l98 163l105 -90l-209 -1333h-188l-21 135q-41 -72 -116.5 -120t-180.5 -48q-141 0 -211 111.5t-70 324.5zM371 399q0 -139 32.5 -195.5t90.5 -56.5q33 0 64.5 29t59 73t48 98t28.5 106 l92 591q2 8 2 16.5v18.5q0 33 -7 68t-22.5 64.5t-38 49t-52.5 19.5q-41 0 -80 -40t-72 -107.5t-59.5 -157.5t-46 -187.5t-29.5 -198t-10 -190.5zM662 1682q0 39 15.5 72.5t40 58t57 38t69.5 13.5t69.5 -13.5t59.5 -38t42 -58t15 -72.5t-15 -74t-42 -60.5t-59.5 -40 t-69.5 -14.5q-35 0 -67.5 14.5t-58 39t-41 59.5t-15.5 76zM746 1682q0 -45 30.5 -72t67.5 -27t66.5 27t29.5 72q0 43 -29.5 68.5t-66.5 25.5t-67.5 -25.5t-30.5 -68.5z" />
<glyph unicode="&#xe6;" horiz-adv-x="1538" d="M96 279q0 135 38 221t100.5 140t146.5 85t176 55q129 33 172 99q6 45 10 71.5t6.5 42t2.5 22.5v13q0 37 -9.5 78t-26 74.5t-43 55t-59.5 21.5q-47 0 -101 -52t-112 -122l-123 66q98 147 210 210.5t237 63.5q100 0 165.5 -52t102.5 -122q27 45 66 78t82 54.5t88 31.5 t86 10q147 0 230 -71.5t83 -196.5q0 -109 -42 -183.5t-123 -123.5t-199.5 -76t-272.5 -37q-10 -47 -16 -116.5t-6 -145.5q0 -66 7 -130t27.5 -115.5t54 -82t87.5 -30.5q20 0 49 13t58.5 40t58 65.5t49.5 90.5l100 -66q-41 -70 -87 -125t-93 -93t-93 -57.5t-85 -19.5 q-86 0 -144.5 23.5t-98.5 66.5t-61.5 101.5t-33.5 130.5q-61 -145 -153.5 -233.5t-229.5 -88.5q-74 0 -127 25.5t-87 68.5t-50.5 100.5t-16.5 121.5zM365 270q0 -72 22.5 -106.5t75.5 -34.5q35 0 68.5 37t61.5 95t49.5 131t33.5 147l22 137q-20 -31 -38.5 -33t-43.5 -10 q-66 -23 -112.5 -53.5t-77.5 -73.5t-46 -101.5t-15 -134.5zM1014 872q98 12 174 40t127 63t77.5 73.5t26.5 75.5q0 82 -23.5 112t-99.5 30q-47 0 -92 -35t-84 -91.5t-67.5 -127t-38.5 -140.5z" />
<glyph unicode="&#xe7;" horiz-adv-x="921" d="M139 479q0 231 51.5 407.5t138.5 296.5t200.5 180t238.5 60q123 0 186.5 -66.5t79.5 -193.5l-141 -55q-14 74 -46 120t-85 46q-61 0 -122.5 -51.5t-112 -152.5t-81 -250.5t-30.5 -344.5q0 -160 46 -255t144 -95q59 0 108.5 51t104.5 146l105 -64q-78 -129 -165 -199.5 t-194 -89.5l-14 -28q53 -6 86 -30t33 -77q0 -98 -78 -144t-260 -46l8 59q45 0 80 4t58.5 16.5t35.5 36t12 62.5q0 41 -24.5 51t-59.5 10l31 80q-164 10 -249 149.5t-85 366.5z" />
<glyph unicode="&#xe8;" horiz-adv-x="1013" d="M129 0zM129 469q0 178 52 349t140.5 306.5t205 217t247.5 81.5q158 0 228.5 -86t70.5 -241q0 -80 -37 -146.5t-114.5 -115t-198.5 -74t-287 -25.5q-14 -88 -20 -147.5t-6 -116.5q0 -61 8 -123.5t28.5 -112t55.5 -80t90 -30.5t106.5 49t104.5 148l106 -64 q-86 -141 -186 -218t-242 -77q-84 0 -149.5 37t-110.5 104.5t-68.5 160.5t-23.5 204zM479 905q186 10 289.5 62.5t103.5 146.5q0 27 -5 53.5t-18 48t-37 36t-60 14.5q-53 0 -96.5 -30t-78 -80t-59.5 -115.5t-39 -135.5zM524 1669q0 39 24.5 59.5t65.5 20.5q18 -2 40 -8 t46 -23l205 -141l-47 -64l-272 91q-29 10 -45.5 25.5t-16.5 39.5z" />
<glyph unicode="&#xe9;" horiz-adv-x="1013" d="M129 0zM129 469q0 178 52 349t140.5 306.5t205 217t247.5 81.5q158 0 228.5 -86t70.5 -241q0 -80 -37 -146.5t-114.5 -115t-198.5 -74t-287 -25.5q-14 -88 -20 -147.5t-6 -116.5q0 -61 8 -123.5t28.5 -112t55.5 -80t90 -30.5t106.5 49t104.5 148l106 -64 q-86 -141 -186 -218t-242 -77q-84 0 -149.5 37t-110.5 104.5t-68.5 160.5t-23.5 204zM479 905q186 10 289.5 62.5t103.5 146.5q0 27 -5 53.5t-18 48t-37 36t-60 14.5q-53 0 -96.5 -30t-78 -80t-59.5 -115.5t-39 -135.5zM592 1577l250 141q29 16 52 23.5t44 7.5q70 0 70 -53 q0 -66 -84 -92l-299 -91z" />
<glyph unicode="&#xea;" horiz-adv-x="1013" d="M129 0zM129 469q0 178 52 349t140.5 306.5t205 217t247.5 81.5q158 0 228.5 -86t70.5 -241q0 -80 -37 -146.5t-114.5 -115t-198.5 -74t-287 -25.5q-14 -88 -20 -147.5t-6 -116.5q0 -61 8 -123.5t28.5 -112t55.5 -80t90 -30.5t106.5 49t104.5 148l106 -64 q-86 -141 -186 -218t-242 -77q-84 0 -149.5 37t-110.5 104.5t-68.5 160.5t-23.5 204zM479 905q186 10 289.5 62.5t103.5 146.5q0 27 -5 53.5t-18 48t-37 36t-60 14.5q-53 0 -96.5 -30t-78 -80t-59.5 -115.5t-39 -135.5zM516 1554q0 14 16.5 49t69.5 62l174 86l152 -86 q25 -16 40 -43t15 -45q0 -29 -18.5 -44t-40.5 -15q-33 0 -77 36.5t-85 83.5q-61 -47 -114.5 -83.5t-86.5 -36.5q-45 0 -45 36z" />
<glyph unicode="&#xeb;" horiz-adv-x="1013" d="M129 0zM129 469q0 178 52 349t140.5 306.5t205 217t247.5 81.5q158 0 228.5 -86t70.5 -241q0 -80 -37 -146.5t-114.5 -115t-198.5 -74t-287 -25.5q-14 -88 -20 -147.5t-6 -116.5q0 -61 8 -123.5t28.5 -112t55.5 -80t90 -30.5t106.5 49t104.5 148l106 -64 q-86 -141 -186 -218t-242 -77q-84 0 -149.5 37t-110.5 104.5t-68.5 160.5t-23.5 204zM479 905q186 10 289.5 62.5t103.5 146.5q0 27 -5 53.5t-18 48t-37 36t-60 14.5q-53 0 -96.5 -30t-78 -80t-59.5 -115.5t-39 -135.5zM498 1616q0 27 11 51.5t28.5 43t39 28.5t44.5 10 q39 0 62.5 -26.5t23.5 -67.5q0 -27 -10.5 -51.5t-28 -43t-39 -29.5t-43.5 -11q-41 0 -64.5 27.5t-23.5 68.5zM809 1614q0 53 38 94t87 41q35 0 59.5 -26.5t24.5 -67.5q0 -55 -38 -95t-83 -40q-39 0 -63.5 26.5t-24.5 67.5z" />
<glyph unicode="&#xec;" horiz-adv-x="423" d="M59 0l203 1317l285 94l-219 -1411h-269zM59 0zM229 1669q0 39 24.5 59.5t65.5 20.5q18 -2 40 -8t46 -23l205 -141l-47 -64l-272 91q-29 10 -45.5 25.5t-16.5 39.5z" />
<glyph unicode="&#xed;" horiz-adv-x="423" d="M59 0l203 1317l285 94l-219 -1411h-269zM59 0zM291 1577l250 141q29 16 52 23.5t44 7.5q70 0 70 -53q0 -66 -84 -92l-299 -91z" />
<glyph unicode="&#xee;" horiz-adv-x="423" d="M59 0l203 1317l285 94l-219 -1411h-269zM59 0zM223 1554q0 14 16.5 49t69.5 62l174 86l152 -86q25 -16 40 -43t15 -45q0 -29 -18.5 -44t-40.5 -15q-33 0 -77 36.5t-85 83.5q-61 -47 -114.5 -83.5t-86.5 -36.5q-45 0 -45 36z" />
<glyph unicode="&#xef;" horiz-adv-x="423" d="M59 0l203 1317l285 94l-219 -1411h-269zM59 0zM207 1616q0 27 11 51.5t28.5 43t39 28.5t44.5 10q39 0 62.5 -26.5t23.5 -67.5q0 -27 -10.5 -51.5t-28 -43t-39 -29.5t-43.5 -11q-41 0 -64.5 27.5t-23.5 68.5zM518 1614q0 53 38 94t87 41q35 0 59.5 -26.5t24.5 -67.5 q0 -55 -38 -95t-83 -40q-39 0 -63.5 26.5t-24.5 67.5z" />
<glyph unicode="&#xf0;" horiz-adv-x="937" d="M115 362q0 127 34.5 247t99 213t155 149.5t200.5 56.5q106 0 172 -65q0 49 -2 92t-8 82t-19.5 77.5t-33.5 81.5l-217 -159l-47 96l210 158q-49 72 -109.5 124t-131.5 74l47 150q109 -41 191.5 -102.5t146.5 -141.5l215 162l49 -96l-205 -154q70 -123 102.5 -266.5 t32.5 -290.5q0 -221 -44 -388t-118.5 -277.5t-174 -166t-209.5 -55.5q-166 0 -251 106.5t-85 292.5zM330 305q0 -37 5 -72.5t19.5 -62.5t37 -43t57.5 -16q49 0 95 38.5t84 108.5t67.5 167t47.5 212q6 37 7 65q0 59 -26 81t-75 22q-92 0 -153.5 -59.5t-98.5 -140.5t-52 -166 t-15 -134z" />
<glyph unicode="&#xf1;" horiz-adv-x="966" d="M59 0l203 1317l260 94l-14 -98q53 63 118.5 86.5t129.5 23.5q131 0 209.5 -79.5t78.5 -215.5v-33.5t-4 -35.5l-163 -1059h-269l158 1026q4 16 4 31.5v29.5q0 76 -28.5 122t-82.5 46q-27 0 -54 -17t-52 -46t-42 -70t-24 -86l-161 -1036h-267zM59 0zM444 1540 q20 98 74.5 153.5t130.5 55.5q43 0 72.5 -22.5t52.5 -49t40 -49t38 -22.5q23 0 50.5 23.5t45.5 94.5h76q-16 -98 -75.5 -152t-133.5 -54q-43 0 -72.5 22.5t-51 48t-41 48t-40.5 22.5q-23 0 -43 -23.5t-47 -95.5h-76z" />
<glyph unicode="&#xf2;" horiz-adv-x="1048" d="M131 0zM131 406q0 203 35 388t112.5 324t202.5 222t305 83q158 0 236 -113.5t78 -330.5q0 -98 -12.5 -211t-41 -226.5t-77.5 -218t-121 -184.5t-171 -128t-228 -48q-164 0 -241 109.5t-77 333.5zM401 434q0 -154 38 -234.5t116 -80.5q63 0 114.5 72.5t86.5 186.5t54 250 t19 263q0 76 -10 143.5t-29.5 118.5t-50 80t-73.5 29q-39 0 -74 -41t-64.5 -107.5t-52 -154t-39 -179.5t-26 -182t-9.5 -164zM542 1669q0 39 24.5 59.5t65.5 20.5q18 -2 40 -8t46 -23l205 -141l-47 -64l-272 91q-29 10 -45.5 25.5t-16.5 39.5z" />
<glyph unicode="&#xf3;" horiz-adv-x="1048" d="M131 0zM131 406q0 203 35 388t112.5 324t202.5 222t305 83q158 0 236 -113.5t78 -330.5q0 -98 -12.5 -211t-41 -226.5t-77.5 -218t-121 -184.5t-171 -128t-228 -48q-164 0 -241 109.5t-77 333.5zM401 434q0 -154 38 -234.5t116 -80.5q63 0 114.5 72.5t86.5 186.5t54 250 t19 263q0 76 -10 143.5t-29.5 118.5t-50 80t-73.5 29q-39 0 -74 -41t-64.5 -107.5t-52 -154t-39 -179.5t-26 -182t-9.5 -164zM610 1577l250 141q29 16 52 23.5t44 7.5q70 0 70 -53q0 -66 -84 -92l-299 -91z" />
<glyph unicode="&#xf4;" horiz-adv-x="1048" d="M131 0zM131 406q0 203 35 388t112.5 324t202.5 222t305 83q158 0 236 -113.5t78 -330.5q0 -98 -12.5 -211t-41 -226.5t-77.5 -218t-121 -184.5t-171 -128t-228 -48q-164 0 -241 109.5t-77 333.5zM401 434q0 -154 38 -234.5t116 -80.5q63 0 114.5 72.5t86.5 186.5t54 250 t19 263q0 76 -10 143.5t-29.5 118.5t-50 80t-73.5 29q-39 0 -74 -41t-64.5 -107.5t-52 -154t-39 -179.5t-26 -182t-9.5 -164zM532 1554q0 14 16.5 49t69.5 62l174 86l152 -86q25 -16 40 -43t15 -45q0 -29 -18.5 -44t-40.5 -15q-33 0 -77 36.5t-85 83.5q-61 -47 -114.5 -83.5 t-86.5 -36.5q-45 0 -45 36z" />
<glyph unicode="&#xf5;" horiz-adv-x="1048" d="M131 0zM131 406q0 203 35 388t112.5 324t202.5 222t305 83q158 0 236 -113.5t78 -330.5q0 -98 -12.5 -211t-41 -226.5t-77.5 -218t-121 -184.5t-171 -128t-228 -48q-164 0 -241 109.5t-77 333.5zM401 434q0 -154 38 -234.5t116 -80.5q63 0 114.5 72.5t86.5 186.5t54 250 t19 263q0 76 -10 143.5t-29.5 118.5t-50 80t-73.5 29q-39 0 -74 -41t-64.5 -107.5t-52 -154t-39 -179.5t-26 -182t-9.5 -164zM485 1540q20 98 74.5 153.5t130.5 55.5q43 0 72.5 -22.5t52.5 -49t40 -49t38 -22.5q23 0 50.5 23.5t45.5 94.5h76q-16 -98 -75.5 -152t-133.5 -54 q-43 0 -72.5 22.5t-51 48t-41 48t-40.5 22.5q-23 0 -43 -23.5t-47 -95.5h-76z" />
<glyph unicode="&#xf6;" horiz-adv-x="1048" d="M131 0zM131 406q0 203 35 388t112.5 324t202.5 222t305 83q158 0 236 -113.5t78 -330.5q0 -98 -12.5 -211t-41 -226.5t-77.5 -218t-121 -184.5t-171 -128t-228 -48q-164 0 -241 109.5t-77 333.5zM401 434q0 -154 38 -234.5t116 -80.5q63 0 114.5 72.5t86.5 186.5t54 250 t19 263q0 76 -10 143.5t-29.5 118.5t-50 80t-73.5 29q-39 0 -74 -41t-64.5 -107.5t-52 -154t-39 -179.5t-26 -182t-9.5 -164zM516 1616q0 27 11 51.5t28.5 43t39 28.5t44.5 10q39 0 62.5 -26.5t23.5 -67.5q0 -27 -10.5 -51.5t-28 -43t-39 -29.5t-43.5 -11q-41 0 -64.5 27.5 t-23.5 68.5zM827 1614q0 53 38 94t87 41q35 0 59.5 -26.5t24.5 -67.5q0 -55 -38 -95t-83 -40q-39 0 -63.5 26.5t-24.5 67.5z" />
<glyph unicode="&#xf7;" horiz-adv-x="638" d="M123 807v133h670v-133h-670zM291 543q0 37 13 67.5t35.5 54t54.5 37t67 13.5t65.5 -13.5t54 -37t37 -54t13.5 -67.5q0 -72 -49.5 -121t-120.5 -49q-72 0 -121 49t-49 121zM291 1210q0 72 49 121t121 49t121 -49t49 -121q0 -37 -13.5 -68.5t-37 -55t-54 -37t-65.5 -13.5 t-67 13.5t-54.5 37t-35.5 55.5t-13 68z" />
<glyph unicode="&#xf8;" horiz-adv-x="1013" d="M129 -113l90 174q-90 113 -90 347q0 203 36 387t113.5 324.5t203.5 222t304 81.5q35 0 64 -5t57 -15l80 156l119 -50l-96 -186q90 -113 90 -344q0 -121 -25 -274q-31 -199 -87 -340.5t-135 -230.5t-180.5 -130t-223.5 -41q-72 0 -130 23l-73 -148zM399 416l385 747 q-20 47 -49.5 73t-68.5 26q-43 0 -78 -26t-62.5 -87.5t-51 -161.5t-46.5 -248q-16 -96 -22.5 -176t-6.5 -147zM434 209q37 -90 121 -90q100 0 156.5 135t101.5 422q8 55 12 111.5t4 109.5v36.5t-2 35.5z" />
<glyph unicode="&#xf9;" horiz-adv-x="966" d="M102 0zM102 274q0 29 7 64l153 987l279 94l-164 -1054q-6 -37 -6 -70q0 -76 30.5 -121t85.5 -45q33 0 62 19.5t50.5 50t35.5 67.5t20 72l154 987l281 94l-220 -1419h-217l-10 98q-53 -74 -119.5 -104.5t-138.5 -30.5q-133 0 -208 84t-75 227zM501 1669q0 39 24.5 59.5 t65.5 20.5q18 -2 40 -8t46 -23l205 -141l-47 -64l-272 91q-29 10 -45.5 25.5t-16.5 39.5z" />
<glyph unicode="&#xfa;" horiz-adv-x="966" d="M102 0zM102 274q0 29 7 64l153 987l279 94l-164 -1054q-6 -37 -6 -70q0 -76 30.5 -121t85.5 -45q33 0 62 19.5t50.5 50t35.5 67.5t20 72l154 987l281 94l-220 -1419h-217l-10 98q-53 -74 -119.5 -104.5t-138.5 -30.5q-133 0 -208 84t-75 227zM570 1577l250 141 q29 16 52 23.5t44 7.5q70 0 70 -53q0 -66 -84 -92l-299 -91z" />
<glyph unicode="&#xfb;" horiz-adv-x="966" d="M102 0zM102 274q0 29 7 64l153 987l279 94l-164 -1054q-6 -37 -6 -70q0 -76 30.5 -121t85.5 -45q33 0 62 19.5t50.5 50t35.5 67.5t20 72l154 987l281 94l-220 -1419h-217l-10 98q-53 -74 -119.5 -104.5t-138.5 -30.5q-133 0 -208 84t-75 227zM491 1554q0 14 16.5 49 t69.5 62l174 86l152 -86q25 -16 40 -43t15 -45q0 -29 -18.5 -44t-40.5 -15q-33 0 -77 36.5t-85 83.5q-61 -47 -114.5 -83.5t-86.5 -36.5q-45 0 -45 36z" />
<glyph unicode="&#xfc;" horiz-adv-x="966" d="M102 0zM102 274q0 29 7 64l153 987l279 94l-164 -1054q-6 -37 -6 -70q0 -76 30.5 -121t85.5 -45q33 0 62 19.5t50.5 50t35.5 67.5t20 72l154 987l281 94l-220 -1419h-217l-10 98q-53 -74 -119.5 -104.5t-138.5 -30.5q-133 0 -208 84t-75 227zM475 1616q0 27 11 51.5 t28.5 43t39 28.5t44.5 10q39 0 62.5 -26.5t23.5 -67.5q0 -27 -10.5 -51.5t-28 -43t-39 -29.5t-43.5 -11q-41 0 -64.5 27.5t-23.5 68.5zM786 1614q0 53 38 94t87 41q35 0 59.5 -26.5t24.5 -67.5q0 -55 -38 -95t-83 -40q-39 0 -63.5 26.5t-24.5 67.5z" />
<glyph unicode="&#xfd;" horiz-adv-x="919" d="M-8 -371l24 162q92 0 170 43t113 119l90 201l-160 1243h285l66 -869l366 869h141l-624 -1452q-63 -147 -189.5 -231.5t-281.5 -84.5zM0 0zM545 1577l250 141q29 16 52 23.5t44 7.5q70 0 70 -53q0 -66 -84 -92l-299 -91z" />
<glyph unicode="&#xfe;" horiz-adv-x="974" d="M0 -371l317 2046l283 94l-70 -456q47 49 108.5 79.5t135.5 30.5q141 0 214 -115.5t73 -332.5q0 -59 -6 -126t-17 -140q-29 -178 -71.5 -316.5t-108 -234t-155 -145.5t-205.5 -50q-57 0 -99.5 35t-58.5 100l-72 -469h-268zM377 319q0 -37 10 -74.5t29.5 -68.5t45 -51.5 t56.5 -20.5q39 0 74 33t66.5 103.5t60.5 184.5t53 275q12 82 19.5 155t7.5 132q0 117 -30 181.5t-97 64.5q-37 0 -69 -24.5t-58.5 -65.5t-45 -92.5t-26.5 -104.5l-94 -598q-2 -10 -2 -29z" />
<glyph unicode="&#xff;" horiz-adv-x="919" d="M-8 -371l24 162q92 0 170 43t113 119l90 201l-160 1243h285l66 -869l366 869h141l-624 -1452q-63 -147 -189.5 -231.5t-281.5 -84.5zM0 0zM451 1616q0 27 11 51.5t28.5 43t39 28.5t44.5 10q39 0 62.5 -26.5t23.5 -67.5q0 -27 -10.5 -51.5t-28 -43t-39 -29.5t-43.5 -11 q-41 0 -64.5 27.5t-23.5 68.5zM762 1614q0 53 38 94t87 41q35 0 59.5 -26.5t24.5 -67.5q0 -55 -38 -95t-83 -40q-39 0 -63.5 26.5t-24.5 67.5z" />
<glyph unicode="&#x152;" horiz-adv-x="1720" d="M166 473q0 154 17.5 308.5t55 295t98 262t147.5 210.5t202 140.5t262 51.5q115 0 195 -49l6 41h807l-23 -138h-534l-103 -659h308l-21 -135h-309l-103 -668h535l-18 -133h-807l12 80q-76 -45 -171 -67.5t-187 -22.5t-162 25.5t-116 83t-68.5 149.5t-22.5 225zM451 545 q0 -184 43 -296t129 -112q74 0 148.5 80t133 220.5t95 333t36.5 419.5q0 186 -43 292.5t-129 106.5q-74 0 -147.5 -79.5t-133 -220t-96 -331t-36.5 -413.5z" />
<glyph unicode="&#x153;" horiz-adv-x="1689" d="M152 414q0 123 12 244.5t40.5 231t76 203t120 161t172 106.5t230.5 39q209 0 278 -185q66 98 161 135t196 37q147 0 233 -71.5t86 -181.5q0 -203 -163 -297.5t-472 -100.5q-12 -63 -17 -122.5t-5 -102.5t5 -103.5t23.5 -117t55.5 -96t98 -39.5q78 0 209 168l104 -64 q-203 -264 -424 -264q-96 0 -164.5 40t-117.5 120q-47 -49 -101.5 -82t-110.5 -52.5t-108.5 -26.5t-95.5 -7q-164 0 -242.5 103.5t-78.5 324.5zM420 444q0 -301 160 -301q57 0 100 44t73.5 115t49 156t29 166t14.5 149.5t4 103.5q0 78 -10.5 144t-32 114.5t-53 76 t-72.5 27.5q-39 0 -73 -38t-63.5 -101.5t-53 -145.5t-39 -171t-24.5 -177t-9 -162zM1167 905q100 6 173 25.5t120 46.5t70.5 56.5t23.5 56.5q0 70 -30.5 103.5t-98.5 33.5q-49 0 -89 -34t-72.5 -83t-56 -104.5t-40.5 -100.5z" />
<glyph unicode="&#x178;" horiz-adv-x="905" d="M279 0zM279 1733h282l82 -633l326 633h174l-426 -740l-154 -993h-266l131 858zM494 1950q0 27 11 51.5t28.5 43t39 28.5t44.5 10q39 0 62.5 -26.5t23.5 -67.5q0 -27 -10.5 -51.5t-28 -43t-39 -29.5t-43.5 -11q-41 0 -64.5 27.5t-23.5 68.5zM805 1948q0 53 38 94t87 41 q35 0 59.5 -26.5t24.5 -67.5q0 -55 -38 -95t-83 -40q-39 0 -63.5 26.5t-24.5 67.5z" />
<glyph unicode="&#x2c6;" horiz-adv-x="499" d="M258 1554q0 14 16.5 49t69.5 62l174 86l152 -86q25 -16 40 -43t15 -45q0 -29 -18.5 -44t-40.5 -15q-33 0 -77 36.5t-85 83.5q-61 -47 -114.5 -83.5t-86.5 -36.5q-45 0 -45 36z" />
<glyph unicode="&#x2dc;" horiz-adv-x="620" d="M268 1540q20 98 74.5 153.5t130.5 55.5q43 0 72.5 -22.5t52.5 -49t40 -49t38 -22.5q23 0 50.5 23.5t45.5 94.5h76q-16 -98 -75.5 -152t-133.5 -54q-43 0 -72.5 22.5t-51 48t-41 48t-40.5 22.5q-23 0 -43 -23.5t-47 -95.5h-76z" />
<glyph unicode="&#x2000;" horiz-adv-x="1042" />
<glyph unicode="&#x2001;" horiz-adv-x="2085" />
<glyph unicode="&#x2002;" horiz-adv-x="1042" />
<glyph unicode="&#x2003;" horiz-adv-x="2085" />
<glyph unicode="&#x2004;" horiz-adv-x="695" />
<glyph unicode="&#x2005;" horiz-adv-x="521" />
<glyph unicode="&#x2006;" horiz-adv-x="347" />
<glyph unicode="&#x2007;" horiz-adv-x="347" />
<glyph unicode="&#x2008;" horiz-adv-x="260" />
<glyph unicode="&#x2009;" horiz-adv-x="417" />
<glyph unicode="&#x200a;" horiz-adv-x="115" />
<glyph unicode="&#x2010;" horiz-adv-x="696" d="M164 659l33 205h567l-33 -205h-567z" />
<glyph unicode="&#x2011;" horiz-adv-x="696" d="M164 659l33 205h567l-33 -205h-567z" />
<glyph unicode="&#x2012;" horiz-adv-x="696" d="M164 659l33 205h567l-33 -205h-567z" />
<glyph unicode="&#x2013;" horiz-adv-x="1159" d="M176 659l33 205h995l-33 -205h-995z" />
<glyph unicode="&#x2014;" horiz-adv-x="1941" d="M160 659l33 205h1830l-32 -205h-1831z" />
<glyph unicode="&#x2018;" horiz-adv-x="366" d="M270 1548q0 53 24.5 105.5t67.5 97.5h-2q68 74 158 117l37 -56q-35 -47 -55.5 -84.5t-20.5 -66.5q0 -57 115 -57q-111 -197 -205 -197q-57 0 -88 41t-31 100z" />
<glyph unicode="&#x2019;" horiz-adv-x="366" d="M233 1339q86 111 121 174.5t35 88.5q0 59 -110 59q106 193 204 192q53 0 84 -36.5t31 -96.5q0 -55 -20.5 -103t-67.5 -99l2 2q-35 -43 -105.5 -88.5t-173.5 -92.5z" />
<glyph unicode="&#x201a;" horiz-adv-x="366" d="M-2 -186q156 207 156 260q0 61 -115 61q111 195 209 195q53 0 83.5 -39t30.5 -98q0 -100 -88 -203l2 4q-35 -43 -105.5 -87t-172.5 -93z" />
<glyph unicode="&#x201c;" horiz-adv-x="593" d="M287 1556q0 43 18.5 88.5t51 89.5t77.5 82.5t101 67.5l34 -55q-33 -47 -53 -85t-20 -67q0 -12 6 -24q12 29 29.5 56.5t43.5 55.5h-2q35 39 74 68t82 51l35 -55q-35 -47 -53.5 -86t-18.5 -68q0 -57 115 -57q-109 -195 -207 -195q-63 0 -96 50q-49 -49 -98 -50 q-55 0 -87 37t-32 96z" />
<glyph unicode="&#x201d;" horiz-adv-x="593" d="M297 1683q111 195 207 195q33 0 55.5 -14.5t38.5 -34.5q55 49 100 49q57 0 88 -40t31 -99q0 -100 -90 -205h2q-35 -37 -75 -66.5t-87 -52.5l-35 58q66 78 76 139q0 8 -1 16t-5 17q-12 -27 -29.5 -54.5t-42.5 -56.5h2q-35 -37 -73.5 -66.5t-85.5 -52.5l-35 58 q35 41 54.5 80.5t19.5 68.5q0 61 -115 61z" />
<glyph unicode="&#x201e;" horiz-adv-x="593" d="M57 135q109 195 207 195q33 0 55.5 -13.5t38.5 -35.5q51 49 101 49q57 0 88 -40t31 -100q0 -100 -93 -204h2q-35 -39 -73.5 -67t-85.5 -50l-35 55q35 41 52 75t24 67q0 8 -1 15t-6 17q-12 -27 -29.5 -55.5t-43.5 -56.5h2q-33 -39 -72 -67t-86 -50l-35 55q33 41 53.5 80 t20.5 70q0 61 -115 61z" />
<glyph unicode="&#x2022;" horiz-adv-x="724" d="M199 874q0 76 29.5 149t79.5 129t115.5 91t137.5 35q55 0 101.5 -22.5t80 -61.5t53 -91t19.5 -114q0 -80 -31.5 -152.5t-82 -128t-116 -88t-132.5 -32.5q-55 0 -102.5 22.5t-81 60.5t-52 90t-18.5 113z" />
<glyph unicode="&#x2026;" horiz-adv-x="2396" d="M63 119q0 41 15.5 77.5t40 64.5t56.5 44.5t67 16.5q53 0 89 -40t36 -100q0 -43 -15.5 -79.5t-40 -64.5t-56.5 -43t-67 -15q-55 0 -90 39.5t-35 99.5zM1069 117q0 41 14.5 78.5t39 65.5t56 44.5t66.5 16.5q55 0 89 -39t34 -99q0 -43 -14.5 -79.5t-38 -64.5t-55 -44 t-66.5 -16q-57 0 -91 38.5t-34 98.5zM2071 119q0 41 15 77.5t39.5 64.5t56.5 44.5t67 16.5q55 0 90 -40t35 -100q0 -41 -15.5 -77.5t-40 -64.5t-56.5 -44t-64 -16q-59 0 -93 38.5t-34 100.5z" />
<glyph unicode="&#x202f;" horiz-adv-x="417" />
<glyph unicode="&#x205f;" horiz-adv-x="521" />
<glyph unicode="&#x20ac;" horiz-adv-x="1116" d="M113 618l53 150h74l30 197h-104l51 149h88q88 309 264 480t445 171q80 0 145.5 -13t100.5 -50l-80 -146q-35 35 -90.5 48.5t-128.5 13.5q-53 0 -106.5 -37t-104 -103.5t-94.5 -158.5t-76 -205h356l-80 -149h-307q-16 -47 -23.5 -99.5t-7.5 -97.5h230l-80 -150h-164 q-2 -20 -2 -39.5v-37.5q0 -94 10 -173t31.5 -135.5t54.5 -88t76 -31.5q63 0 143 47t154 174h159q-61 -102 -123.5 -173t-130 -115t-140 -63.5t-152.5 -19.5q-182 0 -272.5 116t-90.5 382q0 72 6 157h-114z" />
<glyph unicode="&#x2122;" horiz-adv-x="1155" d="M244 1606v127h467v-127h-162v-523h-139v523h-166zM768 1085v650h158l123 -336l122 336h152v-652h-131v359l-141 -361l-154 375v-371h-129z" />
<glyph unicode="&#x25fc;" horiz-adv-x="1392" d="M0 0v1393h1393v-1393h-1393z" />
</font>
</defs>
</svg>
