<?xml version="1.0" standalone="no"?>
<!DOCTYPE svg PUBLIC "-//W3C//DTD SVG 1.1//EN" "http://www.w3.org/Graphics/SVG/1.1/DTD/svg11.dtd" >
<svg xmlns="http://www.w3.org/2000/svg">
<metadata></metadata>
<defs>
<font id="dream_orphansregular" horiz-adv-x="950" >
<font-face units-per-em="2048" ascent="1675" descent="-373" />
<missing-glyph horiz-adv-x="555" />
<glyph horiz-adv-x="0" />
<glyph unicode="&#xd;" horiz-adv-x="1169" />
<glyph unicode=" "  horiz-adv-x="555" />
<glyph unicode="&#x09;" horiz-adv-x="555" />
<glyph unicode="&#xa0;" horiz-adv-x="555" />
<glyph unicode="!" horiz-adv-x="428" d="M37 1706q0 55 53 91t137 36q72 0 119 -32t47 -85q0 -10 -7 -36.5t-18.5 -79t-25.5 -136.5t-27 -209q-8 -82 -13 -130t-8 -86t-6 -78.5t-9.5 -107.5t-14.5 -170t-22 -267h-68q-12 160 -20.5 270.5t-14.5 186t-11 127t-9 94.5t-8.5 86t-8.5 102q-10 106 -21 182t-20.5 126 t-16.5 78t-7 38zM72 113q0 55 38 94t93 39t93 -39t38 -94t-38 -93t-93 -38t-93 37.5t-38 93.5z" />
<glyph unicode="&#x22;" horiz-adv-x="569" d="M31 1749q0 47 29.5 76.5t76.5 29.5q94 0 94 -96q0 -35 -16 -78q-37 -92 -40 -170.5t-9 -156.5h-66q-6 82 -14 162.5t-41 164.5q-14 35 -14 68zM334 1749q0 47 30.5 76.5t77.5 29.5q94 0 95 -96q0 -35 -17 -78q-35 -92 -40 -170.5t-9 -156.5h-65q-8 82 -16.5 162.5 t-41.5 164.5q-14 31 -14 68z" />
<glyph unicode="#" horiz-adv-x="1026" d="M27 553l16 121h215l41 358h-219l16 121h215l68 580h92l-65 -580h256l65 580h94l-67 -580h227l-16 -121h-224l-41 -358h228l-17 -121h-227l-61 -553h-93l64 553h-260l-60 -553h-92l64 553h-219zM350 674h258l41 358h-258z" />
<glyph unicode="$" horiz-adv-x="903" d="M35 1247q0 262 313 324v162h29v-158q27 4 52.5 6t51.5 2h29q18 0 27 -4v154h26v-158q150 -25 244 -160l-66 -53q-72 109 -178 133v-573q88 -49 146.5 -94.5t93.5 -94.5t50 -106.5t15 -130.5q0 -258 -305 -326v-170h-26v166q-27 -4 -54.5 -6t-54.5 -2h-25.5t-25.5 2v-160 h-29v162q-199 31 -297 211l80 51q70 -150 217 -180v612q-98 51 -158.5 94t-95.5 87t-47 94.5t-12 115.5zM262 1278q0 -131 86 -217v403q-86 -53 -86 -186zM377 242q4 -2 22 -2q78 0 138 24v467q-55 55 -160 109v-598zM377 1034q23 -23 55.5 -52.5t104.5 -45.5v565 q-6 2 -27 2q-35 0 -67.5 -7t-65.5 -19v-443zM563 281q78 51 78 182q0 145 -78 237v-419z" />
<glyph unicode="%" horiz-adv-x="1544" d="M10 1311q0 94 31 174t86 137t132 89t169 32q76 0 134.5 -31t98 -86t61 -132t21.5 -169q0 -98 -34.5 -176t-93 -133t-133 -85t-154.5 -30q-158 0 -238 112t-80 298zM162 1321q0 -336 221 -336q43 0 81 25.5t67.5 69.5t47 103.5t17.5 127.5q0 74 -17.5 137t-48 110.5 t-74 74t-94.5 26.5q-43 0 -78.5 -28.5t-63 -76t-43 -108t-15.5 -125.5zM342 0l686 1733h135l-698 -1733h-123zM741 379q0 94 31 173t86 136t133 89t170 32q74 0 133.5 -30.5t99.5 -86t61.5 -132.5t21.5 -169q0 -96 -35 -175t-93.5 -134t-133 -85t-154.5 -30q-158 0 -239 112 t-81 300zM895 389q0 -338 221 -338q41 0 79 25.5t67.5 69.5t47 103.5t17.5 129.5q0 74 -17.5 137.5t-48 109.5t-73.5 72.5t-92 26.5q-43 0 -79 -28.5t-63.5 -75t-43 -107.5t-15.5 -125z" />
<glyph unicode="&#x26;" horiz-adv-x="1320" d="M53 506q0 154 82 264.5t230 144.5q-49 6 -92.5 39t-76 85.5t-51 117t-18.5 135.5q0 102 38 187.5t102.5 146t152.5 93t190 32.5q172 0 275 -90l-43 -43q-88 53 -176 53q-72 0 -133.5 -29.5t-105.5 -83t-68.5 -125t-24.5 -153.5q0 -80 20.5 -150.5t59.5 -124t95 -85 t126 -31.5q289 0 334 342v-336h180v-49h-180v-533q0 -55 14 -107t39 -93t60.5 -65.5t78.5 -24.5q49 0 127 32l21 -49q-139 -41 -201 -41q-92 0 -164 46t-123 106q-33 -41 -60.5 -70t-63 -47t-87 -26.5t-133.5 -8.5q-92 0 -169 43t-134 117t-89 172t-32 209zM311 479 q0 -74 19.5 -149.5t55.5 -138t85 -101.5t109 -39q72 0 115.5 23.5t103.5 70.5q-14 20 -25.5 53t-18.5 70t-10.5 74t-3.5 66v438h-120q-68 0 -125.5 -27.5t-98.5 -76t-63.5 -116t-22.5 -147.5z" />
<glyph unicode="'" horiz-adv-x="231" d="M-16 1774q49 111 137 110q55 0 90 -40t35 -93q0 -37 -18.5 -75t-47 -72.5t-62.5 -63.5t-67 -43q57 86 58 156q0 121 -125 121z" />
<glyph unicode="(" horiz-adv-x="479" d="M35 84v1259q0 102 30.5 191.5t85 156t129 107.5t162.5 51l7 -24q-59 -10 -111.5 -54.5t-92.5 -108t-62.5 -139t-22.5 -149.5v-1259q0 -236 82 -347.5t235 -111.5l-4 -14q-23 -4 -44 -8.5t-38 -4.5q-68 0 -132 38t-114.5 101.5t-80 145.5t-29.5 170z" />
<glyph unicode=")" horiz-adv-x="479" d="M35 -344q154 0 236.5 111.5t82.5 347.5v1259q0 74 -22.5 149.5t-62.5 139t-93 108t-113 54.5l7 24q88 -10 162.5 -51t129 -107.5t85 -155.5t30.5 -192v-1259q0 -88 -29.5 -170t-79 -145.5t-114 -101.5t-133.5 -38q-16 0 -38 4.5t-44 8.5z" />
<glyph unicode="*" horiz-adv-x="675" d="M23 1399l14 131l285 -76l-109 272l131 29l14 -293l226 187l67 -119l-274 -100l246 -158l-88 -98l-185 225l-74 -283l-122 58l161 241z" />
<glyph unicode="+" horiz-adv-x="667" d="M29 829v93h247v256h107v-256h256v-93h-256v-274h-107v274h-247z" />
<glyph unicode="," horiz-adv-x="323" d="M27 135q49 111 137 111q53 0 89 -40t36 -93q0 -35 -18.5 -73t-46 -73t-62.5 -62.5t-68 -41.5q55 80 56 153q0 119 -123 119z" />
<glyph unicode="-" horiz-adv-x="733" d="M72 705v118h585v-118h-585z" />
<glyph unicode="." horiz-adv-x="364" d="M49 113q0 55 39 94t92 39q57 0 94 -39t37 -94t-36.5 -93t-94.5 -38q-53 0 -92 37.5t-39 93.5z" />
<glyph unicode="/" horiz-adv-x="800" d="M4 -186l674 1921h119l-660 -1921h-133z" />
<glyph unicode="0" horiz-adv-x="1390" d="M51 643q0 147 52.5 273t149.5 218.5t232.5 144.5t300.5 52q129 0 231.5 -46t174.5 -133t109.5 -212t37.5 -281q0 -201 -131 -385q-55 -80 -125.5 -133t-149.5 -85.5t-162 -47t-165 -14.5q-272 0 -413.5 171t-141.5 478zM279 659q0 -137 27.5 -246.5t81.5 -187.5t133 -120 t184 -42q35 0 62.5 4.5t55.5 12.5q63 16 118.5 75.5t95.5 141.5t63.5 173t23.5 173q0 125 -31.5 235.5t-90 193.5t-144.5 131t-192 48q-94 0 -167 -52t-122 -136t-73.5 -190.5t-24.5 -213.5z" />
<glyph unicode="1" horiz-adv-x="446" d="M6 1300v39l367 115v-1452h-226v1188q0 66 -39.5 86t-101.5 24z" />
<glyph unicode="2" horiz-adv-x="989" d="M35 0q162 156 267.5 258t152.5 158q250 291 250 506q0 61 -9.5 129.5t-39 127t-84 97.5t-142.5 39q-129 0 -246 -117l-39 29q25 41 66 74.5t93 57t111.5 36t123.5 12.5q115 0 190.5 -37t119.5 -96.5t62.5 -132t18.5 -146.5q0 -111 -73 -244t-220 -280q-23 -23 -66 -62.5 t-97 -88t-113.5 -98.5t-112.5 -91h719v-131h-932z" />
<glyph unicode="3" horiz-adv-x="854" d="M16 1227q25 41 66 74.5t93 57t111.5 36t123.5 12.5q80 0 148.5 -22.5t118.5 -65.5t78.5 -103.5t28.5 -136.5q0 -63 -20.5 -122.5t-57 -110.5t-87 -92t-109.5 -66q61 -8 116.5 -37.5t96.5 -75t65.5 -101.5t24.5 -120q0 -178 -66.5 -306t-171 -214t-230.5 -135t-243 -70 l-20 37q117 37 217 93.5t174 131t115 168t41 203.5q0 72 -22.5 136.5t-61.5 113.5t-92.5 79t-114.5 30q-43 0 -72 -11v56q147 37 232.5 127t85.5 219q0 59 -21.5 113.5t-58.5 95.5t-86 65.5t-107 24.5q-125 0 -256 -113z" />
<glyph unicode="4" horiz-adv-x="1067" d="M2 0l889 1462v-1384h131v-78h-131v-371h-225v371h-664zM186 78h480v786z" />
<glyph unicode="5" horiz-adv-x="829" d="M31 1081l139 297h645v-118h-618q526 -471 526 -857q0 -96 -37 -206.5t-110.5 -217t-185 -198.5t-261.5 -152v76q80 37 149.5 97.5t122 138t82 168t29.5 184.5q0 119 -36 235.5t-99.5 221t-152.5 189.5t-193 142z" />
<glyph unicode="6" horiz-adv-x="980" d="M37 645q0 156 39 317.5t118.5 303t201.5 251t286 160.5l10 -61q-121 -43 -202.5 -111.5t-134 -169t-80 -235.5t-39.5 -309q117 170 311 170q94 0 169 -35t125 -97.5t76.5 -149.5t26.5 -192q0 -242 -114.5 -382t-325.5 -140q-467 0 -467 680zM231 580q0 -121 19.5 -223.5 t58.5 -176.5t93.5 -115.5t125.5 -41.5q119 0 178.5 102t59.5 262q0 197 -81 314.5t-232 117.5q-131 0 -211 -104q-6 -29 -8.5 -61.5t-2.5 -73.5z" />
<glyph unicode="7" horiz-adv-x="972" d="M27 1192v188h929l-632 -1751h-113l557 1563h-741z" />
<glyph unicode="8" horiz-adv-x="1091" d="M51 436q0 160 97.5 287t259.5 199q-322 182 -322 436q0 80 35 147.5t94 118.5t139 80t170 29q92 0 174 -22.5t144.5 -65.5t98.5 -103.5t36 -134.5q0 -235 -309 -397q84 -47 152.5 -110.5t116.5 -138.5t74.5 -160t26.5 -171q0 -106 -36.5 -192t-102 -146.5t-156 -93.5 t-196.5 -33q-127 0 -220.5 35t-154.5 98.5t-91 149.5t-30 188zM215 426q0 -88 23.5 -160.5t66.5 -125t103.5 -82t134.5 -29.5t137 31.5t109.5 84t72 120t25.5 141.5q0 160 -113 285.5t-303 203.5q-123 -70 -189.5 -196t-66.5 -273zM233 1470q0 -59 30 -120.5t82 -120 t119.5 -107.5t145.5 -84q98 57 161 150.5t63 206.5q0 63 -23 114.5t-63.5 87t-96 54t-123.5 18.5q-295 0 -295 -199z" />
<glyph unicode="9" horiz-adv-x="983" d="M33 883q0 250 118.5 387t323.5 137q463 0 463 -664q0 -174 -37 -348t-121 -325.5t-219 -267t-330 -173.5l-12 64q115 31 206 109.5t157.5 190t106.5 249t50 288.5q-102 -152 -280 -151q-100 0 -179 40t-134.5 108.5t-84 159.5t-28.5 196zM211 983q0 -90 21.5 -174 t64.5 -148.5t107.5 -102.5t150.5 -38q110 0 180 88q4 31 6 65t2 70q0 131 -20.5 242t-58 190.5t-94 125t-126.5 45.5q-57 0 -100 -28t-72.5 -76t-45 -114.5t-15.5 -144.5z" />
<glyph unicode=":" horiz-adv-x="378" d="M55 113q0 55 38 94t93 39t93 -39t38 -94t-37.5 -93t-93.5 -38q-55 0 -93 37.5t-38 93.5zM55 815q0 55 38 94t93 39t93 -39t38 -94t-37.5 -94t-93.5 -39q-55 0 -93 39t-38 94z" />
<glyph unicode=";" horiz-adv-x="331" d="M29 135q49 111 137 111q55 0 90 -40t35 -93q0 -35 -18.5 -73t-46 -73t-62.5 -62.5t-68 -41.5q55 80 56 153q0 119 -123 119zM29 815q0 55 38 94t93 39q53 0 92 -39t39 -94t-39 -94t-92 -39q-55 0 -93 39t-38 94z" />
<glyph unicode="&#x3c;" horiz-adv-x="524" d="M10 834l297 299l168 45l-309 -310l299 -299l-152 -41z" />
<glyph unicode="=" horiz-adv-x="632" d="M72 721v72h538v-72h-538zM72 944v72h538v-72h-538z" />
<glyph unicode="&#x3e;" horiz-adv-x="524" d="M47 526l309 308l-301 299l154 41l303 -306l-297 -299z" />
<glyph unicode="?" horiz-adv-x="862" d="M18 1573q61 94 181 136t256 42q92 0 162.5 -26.5t119.5 -72.5t74 -107.5t25 -131.5t-36 -143.5t-89.5 -148t-116 -148.5t-115.5 -142.5t-89 -129t-36 -109.5q0 -39 90 -225l-65 -21l-160 305q-8 16 -13 35t-5 37q0 43 30.5 98.5t77.5 116.5t101.5 125.5t101.5 126t78 119 t31 102.5q0 49 -25 96t-64.5 84t-89 59.5t-98.5 22.5q-154 0 -276 -153zM266 113q0 55 39 94t92 39q55 0 93 -39t38 -94t-37.5 -93t-93.5 -38q-53 0 -92 37.5t-39 93.5z" />
<glyph unicode="@" horiz-adv-x="1599" d="M49 786q0 199 60.5 375t167 307t248 207t304.5 76q131 0 259.5 -39t229.5 -128t163.5 -234.5t62.5 -356.5q0 -104 -25.5 -206.5t-76.5 -184.5t-126 -132t-175 -50q-70 0 -117 31.5t-78 107.5q-18 -59 -68.5 -99t-127.5 -40q-55 0 -101.5 38t-79 105.5t-50 158.5 t-17.5 196q0 76 15 144t45 120.5t74 83t101 30.5q74 0 138.5 -33.5t91.5 -105.5l22 109l72 -9v-612q0 -53 24.5 -92t61.5 -39q43 0 85 22.5t74.5 71.5t53 126t20.5 188q0 203 -56 342t-144 225t-195.5 125t-212.5 39q-109 0 -209 -61.5t-177 -166t-122 -243t-45 -291.5 q0 -178 54.5 -333t145.5 -268.5t207.5 -178t239.5 -64.5q41 0 83 8t83 21v-60q-53 -29 -117.5 -40t-132.5 -11q-154 0 -288 59.5t-233 168t-155.5 260t-56.5 333.5zM657 967q0 -72 15.5 -145.5t41 -133t59.5 -97.5t69 -38q16 0 33.5 17.5t31 42t22.5 51t9 47.5v299 q0 23 -10 54.5t-27.5 61t-42 51t-53.5 21.5q-61 0 -104.5 -62.5t-43.5 -168.5z" />
<glyph unicode="A" d="M33 0l325 1733h228l329 -1733h-225l-82 399h-409l-82 -399h-84zM213 449h373l-178 1089z" />
<glyph unicode="B" horiz-adv-x="1019" d="M72 0v1733h479q78 0 142.5 -33t109.5 -92.5t69.5 -141.5t24.5 -182q0 -139 -64.5 -242.5t-177.5 -144.5q74 -8 132.5 -48t99.5 -99.5t62.5 -132t21.5 -148.5q0 -227 -150.5 -348t-425.5 -121h-323zM299 47h107q78 0 139 32t103 88t64.5 135t22.5 173q0 367 -274 367h-162 v-795zM299 889h186q94 0 148.5 102.5t54.5 270.5q0 92 -18.5 169.5t-54 133t-88 87t-119.5 31.5h-109v-794z" />
<glyph unicode="C" horiz-adv-x="1136" d="M53 887q0 211 35 371.5t113 270t200.5 166t298.5 56.5q131 0 229.5 -71.5t164.5 -200.5l-90 -23q-20 49 -57.5 91t-82.5 74t-96 50.5t-102 18.5q-90 0 -161 -59.5t-119 -167t-72.5 -258t-24.5 -335.5q0 -180 24.5 -333.5t70.5 -266t111.5 -177t149.5 -64.5q47 0 95 19.5 t92.5 52t84 74.5t70.5 87h88q-80 -156 -210 -226.5t-296 -70.5q-135 0 -233 50.5t-160.5 161t-92.5 285.5t-30 425z" />
<glyph unicode="D" horiz-adv-x="1196" d="M72 0v1733h549q119 0 215 -63.5t164.5 -177.5t105.5 -270.5t37 -340.5q0 -252 -39 -421t-126 -271.5t-227.5 -145.5t-342.5 -43h-336zM297 47h215q197 0 300 212t103 622q0 172 -34.5 319.5t-101 255t-161 167.5t-210.5 60h-111v-1636z" />
<glyph unicode="E" horiz-adv-x="940" d="M72 0v1733h868v-50h-641v-788h371v-49h-371v-799h641v-47h-868z" />
<glyph unicode="F" horiz-adv-x="972" d="M72 0v1733h866v-50h-641v-813h453v-49h-453v-821h-225z" />
<glyph unicode="G" horiz-adv-x="1167" d="M55 887q0 211 35 371.5t112 270t199.5 166t298.5 56.5q123 0 214.5 -71.5t156.5 -200.5l-88 -23q-20 49 -54 92t-75 74t-89 49.5t-97 18.5q-92 0 -162 -59.5t-118 -167t-72.5 -259t-24.5 -334.5q0 -195 21.5 -349t62.5 -264t99 -168t132 -58q59 0 107.5 30.5t82 86 t51 133t17.5 174.5q0 86 -29.5 120.5t-115.5 45.5v38h340v-344q0 -78 19.5 -155.5t47.5 -130.5l-73 -41q-12 20 -26.5 50t-27 62.5t-20.5 65.5t-8 61q-25 -49 -57.5 -96t-83 -84t-122 -59.5t-173.5 -22.5q-131 0 -222.5 48t-149 157t-83 285t-25.5 432z" />
<glyph unicode="H" horiz-adv-x="1124" d="M72 0v1733h227v-815h522v815h228v-1733h-228v868h-522v-868h-227z" />
<glyph unicode="I" horiz-adv-x="372" d="M70 0v1733h227v-1733h-227z" />
<glyph unicode="J" d="M4 338v86h76v-96q0 -55 24.5 -109.5t67.5 -98.5t100.5 -70.5t122.5 -26.5q63 0 112.5 25.5t83.5 68.5t51 100t17 121v1395h226v-1295q0 -113 -39 -200.5t-106.5 -148t-159 -92.5t-197.5 -32q-82 0 -151.5 30t-120 81t-79 118.5t-28.5 143.5z" />
<glyph unicode="K" horiz-adv-x="1075" d="M70 0v1733h227v-760l655 760h92l-524 -607l524 -1126h-229l-471 922l-47 -54v-868h-227z" />
<glyph unicode="L" horiz-adv-x="768" d="M70 0v1733h225v-1686h469v-47h-694z" />
<glyph unicode="M" horiz-adv-x="1320" d="M70 0v1733h182l432 -1186l416 1186h149v-1733h-223v1315l-416 -1178l-448 1178v-1315h-92z" />
<glyph unicode="N" horiz-adv-x="1026" d="M70 2v1731h198l590 -1180v1180h94v-1768h-28l-758 1499v-1462h-96z" />
<glyph unicode="O" horiz-adv-x="1323" d="M55 887q0 213 36 374.5t117 270t211 164t320 55.5q266 0 396.5 -211t130.5 -629q0 -252 -37 -431t-119 -293.5t-214 -168t-321 -53.5q-135 0 -233 50.5t-161.5 161t-94.5 285.5t-31 425zM293 870q0 -180 24.5 -333.5t71.5 -267t112.5 -178t149.5 -64.5q90 0 159 59 t116 167.5t70.5 260.5t23.5 336q0 188 -23.5 343t-69.5 264.5t-111.5 169t-149.5 59.5q-90 0 -159 -58.5t-117 -165t-72.5 -257t-24.5 -335.5z" />
<glyph unicode="P" horiz-adv-x="966" d="M70 0v1733h559q63 0 121.5 -31t103.5 -81t71.5 -111.5t26.5 -123.5v-256q0 -86 -42 -156.5t-113.5 -119.5t-170 -76.5t-210.5 -27.5h-121v-750h-225zM295 799h160q45 0 93 30.5t88 75.5t64.5 98.5t24.5 96.5v256q0 61 -24.5 119.5t-66.5 104.5t-98.5 74.5t-119.5 28.5 h-121v-884z" />
<glyph unicode="Q" horiz-adv-x="1325" d="M47 887q0 213 36 374.5t117 270t211 164t320 55.5q264 0 395 -211t131 -629q0 -195 -19 -336t-60 -241.5t-109 -166t-162 -108.5q45 -31 89 -64.5t89 -64t92.5 -53t96.5 -29.5q-43 -16 -83 -23t-79 -7q-184 0 -321 202q-51 -29 -110.5 -42t-119.5 -13q-135 0 -232.5 50.5 t-160 161t-92 285.5t-29.5 425zM283 870q0 -180 24.5 -333.5t69.5 -267t110.5 -178t149.5 -64.5q90 0 159.5 59t118 167.5t73 260.5t24.5 336q0 188 -23.5 343t-70 264.5t-113 169t-150.5 59.5q-88 0 -157.5 -58.5t-116.5 -165t-72.5 -257t-25.5 -335.5z" />
<glyph unicode="R" horiz-adv-x="1118" d="M70 0v1733h542q74 0 135.5 -36t105.5 -98.5t69.5 -146.5t25.5 -178q0 -150 -58.5 -262.5t-180.5 -149.5q244 -41 243 -348v-336q0 -166 127 -201q-33 -8 -69 -8q-145 0 -214 57.5t-69 151.5v424q0 43 -16.5 85t-44 77t-62.5 56.5t-69 21.5h-238v-842h-227zM297 889h233 q47 0 83 26.5t59.5 73.5t36 108.5t12.5 133.5q0 98 -23.5 181t-65.5 143.5t-101.5 94t-133.5 33.5h-100v-794z" />
<glyph unicode="S" horiz-adv-x="917" d="M39 215l82 51q12 -43 37.5 -83t62.5 -70.5t82 -49t94 -18.5q47 0 91 23.5t77 69.5t52.5 113.5t19.5 154.5q0 86 -34 171t-114 158q-78 70 -149.5 135.5t-128.5 134t-91 148.5t-34 178q0 88 26.5 165t81 133.5t136.5 89t192 32.5q113 0 184.5 -51t131.5 -137l-68 -54 q-47 74 -101.5 118t-115.5 44q-63 0 -113.5 -23.5t-84 -63.5t-52 -94t-18.5 -114q0 -94 38.5 -170t100 -145.5t139.5 -136t156 -140.5q78 -76 111.5 -180t33.5 -205q0 -201 -121.5 -317.5t-339.5 -116.5q-127 0 -222 63.5t-142 186.5z" />
<glyph unicode="T" horiz-adv-x="884" d="M14 1640v93h854v-93q-29 43 -110 43h-199v-1683h-227v1683h-215q-10 0 -26.5 -4t-33 -10t-29 -13t-14.5 -16z" />
<glyph unicode="U" horiz-adv-x="1017" d="M68 299v1434h227v-1403q0 -61 26.5 -114.5t70.5 -94.5t102.5 -64.5t121.5 -23.5q115 0 177.5 73.5t62.5 192.5v1434h94v-1368q0 -139 -47 -218t-120.5 -120t-163 -51.5t-173.5 -10.5q-379 0 -378 334z" />
<glyph unicode="V" horiz-adv-x="888" d="M4 1733h225l283 -1522l291 1522h86l-328 -1733h-227z" />
<glyph unicode="W" horiz-adv-x="1290" d="M-2 1733h225l209 -1522l164 688l-186 834h225l76 -412l86 412h86l-129 -543l217 -979l237 1522h86l-266 -1733h-227l-162 735l-166 -735h-227z" />
<glyph unicode="X" horiz-adv-x="1001" d="M37 0l391 809l-348 924h237l244 -646l307 646h103l-367 -762l367 -971h-238l-262 692l-334 -692h-100z" />
<glyph unicode="Y" horiz-adv-x="911" d="M10 1733h238l244 -656l307 656h102l-342 -721v-1012h-227v918z" />
<glyph unicode="Z" horiz-adv-x="1005" d="M35 1669v64h921l-663 -1661h700v-72h-934l664 1669h-688z" />
<glyph unicode="[" horiz-adv-x="440" d="M68 -371v2220h297v-59h-197v-2099h197v-62h-297z" />
<glyph unicode="\" horiz-adv-x="800" d="M4 1735h117l676 -1921h-135z" />
<glyph unicode="]" horiz-adv-x="440" d="M68 -309h196v2099h-196v59h297v-2220h-297v62z" />
<glyph unicode="^" horiz-adv-x="931" d="M31 1356l348 346h176l344 -346h-260l-260 250l-252 -250h-96z" />
<glyph unicode="_" horiz-adv-x="1294" d="M-27 -135h1348v-121h-1348v121z" />
<glyph unicode="`" horiz-adv-x="462" d="M-23 1692q0 57 76 57q25 0 47.5 -7t51.5 -22l247 -133l-34 -47l-318 86q-70 18 -70 66z" />
<glyph unicode="a" horiz-adv-x="987" d="M39 360q0 143 107.5 246t326.5 150q88 18 144.5 62t76.5 130v105q0 45 -20.5 93t-55 88t-82 65.5t-100.5 25.5q-135 0 -239 -135l-70 33q137 184 410 184q90 0 161.5 -25.5t120.5 -69.5t76 -102.5t27 -124.5v-907q0 -113 43 -176h-224q-27 39 -38 82t-11 92 q-16 -41 -37.5 -80t-56.5 -67.5t-83 -46t-116 -17.5q-102 0 -170.5 31t-110.5 84t-60.5 124.5t-18.5 155.5zM264 406q0 -66 10.5 -133.5t36 -121t67.5 -87t103 -33.5q72 0 123 74.5t82 183.5l8 71v486q-8 -61 -48 -98t-105 -60q-276 -90 -277 -282z" />
<glyph unicode="b" horiz-adv-x="1044" d="M68 0v1700l227 69v-602q41 117 120 178.5t201 61.5q193 0 296.5 -183.5t103.5 -521.5q0 -154 -32 -287.5t-91 -233t-145 -158t-193 -58.5q-96 0 -163.5 48t-96.5 145l-47 -158h-180zM295 324q0 -47 22.5 -99.5t58.5 -98.5t83 -76t96 -30q53 0 97 44.5t75 127t47.5 198.5 t16.5 261q0 141 -11.5 261t-40 206t-80 134t-131.5 48q-51 0 -94 -28.5t-73.5 -76.5t-48 -111.5t-17.5 -133.5v-626z" />
<glyph unicode="c" horiz-adv-x="962" d="M37 686q0 358 145.5 535.5t409.5 177.5q117 0 189.5 -42t109.5 -149l-70 -26q-29 72 -81 113.5t-130 41.5q-94 0 -158.5 -42t-104.5 -123.5t-57.5 -201.5t-17.5 -276q0 -143 23.5 -263t70 -207t113 -136t154.5 -49q59 0 116.5 56.5t116.5 137.5l52 -24q-33 -53 -66 -98 t-76 -78t-101.5 -50.5t-144.5 -17.5q-115 0 -207 53.5t-155.5 148.5t-97 227t-33.5 292z" />
<glyph unicode="d" horiz-adv-x="1019" d="M23 786q0 123 25.5 236t74.5 198t120.5 136t164.5 51q117 0 194.5 -52t120.5 -171v516l227 69v-1769h-180l-47 162q-20 -41 -45 -77t-60.5 -62.5t-83 -42t-110.5 -15.5q-92 0 -166 62.5t-126 173t-80.5 261t-28.5 324.5zM244 872q0 -145 22.5 -292.5t62.5 -265t95 -192.5 t119 -75q31 0 62.5 31t58 77t43 97t16.5 94v619q0 45 -18.5 107.5t-51 119.5t-78 96t-98.5 39q-115 0 -174 -115.5t-59 -339.5z" />
<glyph unicode="e" horiz-adv-x="1071" d="M47 641q0 158 43 297t120 243.5t180.5 165t225.5 60.5q109 0 188 -58.5t130 -149.5t75.5 -203.5t24.5 -219.5h-739q-2 -12 -2 -28.5v-65.5q0 -115 19.5 -229.5t60.5 -206.5t106.5 -149.5t157.5 -57.5q59 0 115.5 56.5t115.5 137.5l54 -24q-37 -53 -74 -98t-81 -78 t-99.5 -50.5t-130.5 -17.5q-111 0 -202 53.5t-154.5 145.5t-98.5 215t-35 262zM305 862h563q0 78 -13 161t-42 152.5t-78 113.5t-119 44q-76 0 -130 -47t-91 -117.5t-58.5 -152.5t-31.5 -154z" />
<glyph unicode="f" horiz-adv-x="686" d="M33 1327v49h110v37q0 61 23.5 123.5t69 115t113 85t155.5 32.5q57 0 104 -10t97 -37l-21 -49q-78 33 -129 33q-41 0 -75 -26.5t-58.5 -69.5t-37.5 -98.5t-13 -112.5v-23h180v-49h-180v-1327h-228v1327h-110z" />
<glyph unicode="g" horiz-adv-x="1198" d="M6 -125q0 55 28.5 104.5t78 89.5t118 68.5t148.5 42.5q-211 47 -211 109q0 53 166 94q-61 35 -106.5 89t-76 118.5t-45 135.5t-14.5 140q0 106 38 204.5t108.5 173.5t172 119t228.5 44q100 0 181 -39t143 -111q43 -14 79 -14q94 0 160 98q-16 -117 -52 -157.5t-116 -40.5 q51 -123 51 -279q0 -270 -135 -402t-391 -132q-41 0 -75.5 5t-69.5 15q-33 -27 -33 -45q0 -68 254 -112q-84 -16 -160 -43t-133 -63t-90 -78t-33 -85q0 -47 23.5 -87t63.5 -69.5t94.5 -47t117.5 -17.5q61 0 147.5 15.5t164 34t131 33.5t51.5 15l22 -49q-309 -125 -618 -125 q-90 0 -165 16.5t-129 47t-85 77t-31 107.5zM297 954q0 -135 28.5 -238.5t77 -174t112 -107.5t130.5 -37q240 0 240 344q0 117 -24.5 222.5t-68.5 185.5t-108.5 128t-144.5 48q-123 0 -182.5 -94t-59.5 -277z" />
<glyph unicode="h" horiz-adv-x="987" d="M68 2v1698l227 69v-575q12 39 41 77t71 68.5t96 49t115 18.5q66 0 125.5 -32t105.5 -82t73.5 -114.5t27.5 -131.5v-1045h-225v1012q0 49 -19.5 99t-52 91t-77 66.5t-91.5 25.5t-82.5 -28.5t-59.5 -74.5t-36 -102.5t-12 -113.5v-975h-227z" />
<glyph unicode="i" horiz-adv-x="366" d="M53 1610q0 57 39 95t92 38q57 0 94 -38t37 -95q0 -53 -38.5 -93t-92.5 -40q-53 0 -92 39.5t-39 93.5zM68 2v1307l227 69v-1376h-227z" />
<glyph unicode="j" horiz-adv-x="393" d="M-289 -324q190 0 282.5 75t92.5 233v1325l227 69v-1274q0 -102 -25.5 -176.5t-90 -130t-177 -94.5t-286.5 -70zM78 1610q0 57 38 95t93 38q53 0 92 -38t39 -95q0 -53 -39 -93t-92 -40q-55 0 -93 39.5t-38 93.5z" />
<glyph unicode="k" horiz-adv-x="1011" d="M68 0v1700l225 69v-1048l592 657h86l-424 -479l452 -899h-243l-365 723l-98 -107v-616h-225z" />
<glyph unicode="l" horiz-adv-x="366" d="M68 2v1698l227 69v-1767h-227z" />
<glyph unicode="m" horiz-adv-x="1484" d="M68 0v1309l227 69v-166q14 51 44 88t67.5 60.5t79.5 35t81 11.5q168 0 226 -156q117 162 311 162q74 0 131 -26.5t97 -73.5t61.5 -110.5t21.5 -137.5v-1065h-223v1032q0 57 -10.5 110.5t-31 95.5t-48 67.5t-64.5 25.5q-84 0 -132 -71.5t-48 -194.5v-1065h-225v1032 q0 43 -5 94.5t-21.5 96.5t-47.5 74.5t-82 29.5q-39 0 -71.5 -26.5t-57 -70.5t-39 -99.5t-14.5 -110.5v-1020h-227z" />
<glyph unicode="n" horiz-adv-x="1015" d="M68 0v1309l225 69v-194q27 106 106.5 164.5t192.5 58.5q78 0 143.5 -24.5t113.5 -68.5t74.5 -107.5t26.5 -139.5v-1067h-227v1034q0 125 -59.5 207t-159.5 82q-41 0 -79 -22.5t-67.5 -61.5t-47 -88t-17.5 -104v-1047h-225z" />
<glyph unicode="o" horiz-adv-x="1114" d="M53 702q0 152 26.5 281t92.5 223t176.5 147.5t278.5 53.5q217 0 325.5 -182.5t108.5 -526.5q0 -203 -38 -343t-110.5 -226t-178 -125t-240.5 -39q-231 0 -336 180t-105 557zM281 735q0 -342 76.5 -521t234.5 -179q66 0 114 29.5t78.5 102.5t46 194.5t15.5 306.5 q0 143 -25.5 265t-69.5 210t-105.5 137t-135.5 49q-57 0 -100 -30.5t-72 -100.5t-43 -183.5t-14 -279.5z" />
<glyph unicode="p" horiz-adv-x="1019" d="M68 -371v1680l157 69l47 -178q41 98 116 152.5t208 54.5q96 0 171 -64.5t125 -176t76.5 -259t26.5 -313.5q0 -121 -29.5 -233.5t-83 -200.5t-129 -141.5t-169.5 -53.5q-119 0 -185.5 60.5t-103.5 171.5v-568h-227zM295 414q0 -53 22.5 -117t60.5 -120t86 -94t99 -38 t90 35t64.5 98.5t38 151.5t12.5 194q0 158 -22.5 303.5t-62.5 256t-93 176t-115 65.5q-35 0 -67.5 -35t-57 -83t-40 -101t-15.5 -90v-602z" />
<glyph unicode="q" horiz-adv-x="1044" d="M29 684q0 156 31.5 289t93 229t151.5 150.5t207 54.5q88 0 160.5 -51t113.5 -137l80 188l111 -70v-1708h-227v584q-31 -115 -116 -181.5t-208 -66.5q-199 0 -298 188.5t-99 530.5zM252 676q0 -326 67.5 -468t194.5 -142q53 0 96 31.5t74 82.5t48.5 116.5t17.5 133.5v608 q0 39 -17.5 92.5t-49.5 101.5t-76 82t-95 34q-129 0 -194.5 -178.5t-65.5 -493.5z" />
<glyph unicode="r" horiz-adv-x="727" d="M68 0v1309l225 69v-307q37 100 72.5 166t71.5 103.5t71 52t70 14.5q72 0 120 -49l-108 -141q-14 10 -31.5 13t-52.5 3q-18 0 -53 -28.5t-71 -78t-62.5 -114t-26.5 -138.5v-874h-225z" />
<glyph unicode="s" horiz-adv-x="907" d="M45 215l80 51q16 -39 44 -77.5t62.5 -69.5t74.5 -50.5t83 -19.5q63 0 110.5 20.5t78 55.5t45 78t14.5 90q0 86 -42 142.5t-105.5 100.5t-138.5 82.5t-138 91t-105 125t-42 183.5q0 76 29.5 146.5t80.5 124.5t120 86t146 32q135 0 217 -40t142 -136l-66 -53 q-45 66 -99 105.5t-124 39.5q-45 0 -85 -18.5t-70.5 -50t-48 -72.5t-17.5 -86q0 -86 31.5 -148.5t101.5 -101.5q78 -45 156.5 -86t142 -92.5t103.5 -120t40 -168.5q0 -78 -27.5 -152.5t-84 -133t-142.5 -93.5t-204 -35q-68 0 -123.5 19.5t-98.5 53.5t-77.5 79t-63.5 98z" />
<glyph unicode="t" horiz-adv-x="671" d="M27 1329v49q289 0 333 336v-336h181v-49h-181v-1048q0 -43 17.5 -87t45.5 -80t63.5 -57.5t74.5 -21.5q51 0 113 49l20 -49q-45 -41 -97 -55.5t-105 -14.5q-78 0 -144.5 25.5t-114 72t-74 110t-26.5 140.5v1016h-106z" />
<glyph unicode="u" horiz-adv-x="1015" d="M63 338v977l226 71v-1019q0 -63 15 -116.5t45 -93.5t70 -62.5t89 -22.5q47 0 86 21.5t66.5 58t43 85t15.5 101.5v977l227 71v-1386h-180l-47 178q-27 -86 -110 -137t-189 -51q-76 0 -140.5 24.5t-112.5 70.5t-76 109.5t-28 143.5z" />
<glyph unicode="v" horiz-adv-x="878" d="M-18 1378h243l277 -1007l305 1007h78l-430 -1413h-29z" />
<glyph unicode="w" horiz-adv-x="1413" d="M6 1378h242l254 -1007l176 446l-180 561h241l299 -1007l287 1007h78l-408 -1413h-28l-234 737l-276 -737h-29z" />
<glyph unicode="x" horiz-adv-x="1005" d="M53 0l371 608l-365 770h246l254 -547l324 547h65l-354 -618l369 -760h-244l-258 535l-316 -535h-92z" />
<glyph unicode="y" horiz-adv-x="929" d="M14 1378h242l274 -950l310 950h75l-458 -1450q-45 -141 -156 -220t-258 -79v76q47 0 95 14.5t90 41t74 63.5t48 84l74 209z" />
<glyph unicode="z" horiz-adv-x="929" d="M18 0l658 1307h-623v71h858l-655 -1308h629v-70h-867z" />
<glyph unicode="{" horiz-adv-x="636" d="M72 715v49q180 35 180 305q0 37 -2 84l-4 94t-4 91t-2 77q0 201 70.5 301.5t232.5 132.5v-43q-186 -66 -187 -278q0 -41 4.5 -90t9.5 -99.5t9 -99.5t4 -88q0 -285 -240 -410q240 -127 240 -413q0 -33 -4 -79t-9 -97.5t-9.5 -102.5t-4.5 -96q0 -213 187 -283v-43 q-160 33 -231.5 135.5t-71.5 305.5q0 39 2 85l4 92t4 89t2 76q0 270 -180 305z" />
<glyph unicode="|" horiz-adv-x="233" d="M68 -231v2080h84v-2080h-84z" />
<glyph unicode="}" horiz-adv-x="636" d="M72 -330q188 70 188 283q0 45 -4 96t-10 102.5t-10.5 97.5t-4.5 79q0 287 242 413q-242 125 -242 410q0 39 4.5 88t10.5 99.5t10 99.5t4 90q0 213 -188 278v43q164 -33 234.5 -133t70.5 -301q0 -33 -2 -77t-5 -91t-5.5 -94t-2.5 -84q0 -270 181 -305v-49 q-180 -35 -181 -305q0 -33 2.5 -76t5.5 -89t5 -92.5t2 -84.5q0 -203 -73 -305.5t-232 -135.5v43z" />
<glyph unicode="~" horiz-adv-x="1312" d="M88 838q10 162 101.5 251t238.5 89q84 0 150.5 -41t121 -90.5t101.5 -90.5t94 -41q27 0 56.5 9.5t56 34t46 66.5t25.5 110h117q-2 -80 -29.5 -143.5t-75 -107.5t-109.5 -67.5t-134 -23.5q-55 0 -103.5 19t-89.5 49t-77.5 65t-69.5 64.5t-65.5 49t-65.5 19.5 q-53 0 -96 -46t-72 -175h-121z" />
<glyph unicode="&#xa1;" horiz-adv-x="428" d="M37 -252q0 8 7 35t18.5 79t25.5 136t27 211q8 80 13 128t8 86t7 79t9.5 107.5t14.5 170t23 267.5h68q12 -160 20.5 -269.5t14.5 -186.5t10 -128t8 -93t7.5 -86t9.5 -104q8 -106 19 -182t21.5 -126t17.5 -77.5t7 -38.5q0 -53 -53 -90t-137 -37q-70 0 -118 32t-48 87z M96 1350q0 55 38 93t93 38t93 -38t38 -93t-38 -94t-93 -39t-93 38.5t-38 94.5z" />
<glyph unicode="&#xa3;" horiz-adv-x="1136" d="M76 20q27 55 48 115t37.5 128.5t26 149.5t9.5 181h-93v74h76q-8 63 -22.5 131.5t-27.5 136.5t-23.5 132.5t-10.5 121.5q0 135 33 239.5t105.5 176t187.5 108.5t278 37q135 0 231.5 -71.5t162.5 -200.5l-90 -23q-20 49 -57.5 91t-82.5 74t-96 50.5t-102 18.5 q-172 0 -262.5 -126t-90.5 -339q0 -59 15.5 -129t35 -141.5t39 -145.5t29.5 -141h481v-74h-473q0 -152 -40 -292t-105 -255q35 14 71.5 19.5t73.5 5.5q90 0 182.5 -19.5t192.5 -19.5q70 0 143.5 17.5t153.5 68.5v-47q-94 -49 -169 -66.5t-142 -17.5q-96 0 -188.5 20.5 t-198.5 20.5q-61 0 -131 -11.5t-156 -40.5z" />
<glyph unicode="&#xa5;" horiz-adv-x="911" d="M10 1733h238l244 -899l307 899h102l-342 -965v-190h254v-72h-254v-150h254v-73h-254v-283h-227v283h-256v73h256v150h-256v72h256v96z" />
<glyph unicode="&#xa8;" horiz-adv-x="688" d="M59 1645q0 43 30 73.5t75 30.5q41 0 71.5 -30.5t30.5 -73.5q0 -41 -30.5 -72t-71.5 -31q-45 0 -75 31t-30 72zM412 1645q0 43 30.5 73.5t75.5 30.5q41 0 72 -30.5t31 -73.5q0 -41 -31 -72t-72 -31q-45 0 -75.5 31t-30.5 72z" />
<glyph unicode="&#xa9;" horiz-adv-x="1837" d="M53 856q0 178 67.5 335t184.5 273.5t273.5 184t334.5 67.5t334 -67.5t272.5 -184t184.5 -273.5t68 -335t-68 -333.5t-184.5 -272.5t-272 -184.5t-334.5 -67.5q-178 0 -334.5 67.5t-273.5 184.5t-184.5 272.5t-67.5 333.5zM154 852q0 -158 59 -296t162.5 -240.5t243 -162 t296.5 -59.5q156 0 295.5 59.5t242.5 162t163.5 240.5t60.5 296t-60.5 298t-163.5 244.5t-242.5 165t-295.5 60.5q-158 0 -297 -60.5t-242.5 -165t-162.5 -244.5t-59 -298zM522 870q27 406 441 406q92 0 150 -25.5t87 -89.5l-55 -14q-47 84 -172 92q-147 -10 -206.5 -105.5 t-59.5 -277.5q0 -172 73.5 -271.5t214.5 -99.5q92 0 185 99l43 -17q-119 -127 -308 -127q-193 0 -291 116t-102 314z" />
<glyph unicode="&#xaa;" horiz-adv-x="716" d="M47 1081q0 92 68.5 159t210.5 97q59 12 95 40t50 83v68q0 29 -13.5 60.5t-37 57t-54 42t-65.5 16.5q-84 0 -154 -88l-45 20q47 61 112 90t153 29q117 0 183 -60.5t66 -144.5v-585q0 -74 27 -113h-141q-18 25 -25.5 51.5t-7.5 59.5q-10 -27 -25.5 -51.5t-37 -44t-53 -31 t-74.5 -11.5q-66 0 -110 19.5t-71.5 54.5t-39 82t-11.5 100zM193 1110q0 -43 7 -86t22.5 -78t42 -56.5t67.5 -21.5q47 0 79.5 47.5t51.5 118.5l8 47v314q-6 -41 -31.5 -64.5t-68.5 -38.5q-178 -55 -178 -182z" />
<glyph unicode="&#xab;" horiz-adv-x="874" d="M96 657v140l365 188v-145l-238 -109l238 -113v-141zM442 657v140l365 188v-145l-238 -109l238 -113v-141z" />
<glyph unicode="&#xad;" horiz-adv-x="733" d="M72 705v118h585v-118h-585z" />
<glyph unicode="&#xae;" horiz-adv-x="1263" d="M111 1257q0 100 38.5 190.5t108.5 158t166 107.5t211 40q117 0 214 -38t167.5 -105.5t110.5 -157.5t40 -195q0 -98 -41 -187t-112.5 -156.5t-168.5 -108.5t-210 -41q-115 0 -211 41t-166 108.5t-108.5 156.5t-38.5 187zM209 1257q0 -74 29.5 -146.5t84 -129.5t133.5 -92 t177 -35q92 0 174 30.5t143.5 85t97 128t35.5 159.5q0 74 -33.5 146t-93 128t-142.5 91t-181 35t-177 -35t-133.5 -91t-84 -128t-29.5 -146zM455 997v531h231q63 0 104 -41t41 -98q0 -47 -24.5 -81t-79.5 -46q106 -8 107 -109v-102q0 -18 18 -26.5t35 -12.5v-23 q-6 -2 -26.5 -2h-26.5q-61 0 -92 17.5t-31 46.5v131q0 49 -82 49h-76v-234h-98zM553 1294h74q82 0 82 80q0 61 -34 89t-79 28h-43v-197z" />
<glyph unicode="&#xb0;" horiz-adv-x="714" d="M39 1444q0 68 26.5 125t69.5 99t100.5 65.5t118.5 23.5q59 0 116.5 -23.5t101.5 -65.5t71 -99.5t27 -124.5q0 -66 -27 -124t-71 -101t-101 -69t-117 -26q-59 0 -116.5 23.5t-101.5 66.5t-70.5 101.5t-26.5 128.5zM152 1444q0 -45 17 -82t45 -63.5t64.5 -41t75.5 -14.5 t74 14.5t62.5 41t44 63.5t16.5 82t-16.5 82t-44 63.5t-62.5 39.5t-74 13t-75.5 -13t-64.5 -39.5t-45 -63.5t-17 -82z" />
<glyph unicode="&#xb4;" horiz-adv-x="462" d="M70 1587l247 133q29 16 54 21.5t45 7.5q78 0 78 -57q0 -47 -70 -66l-320 -86z" />
<glyph unicode="&#xb7;" horiz-adv-x="364" d="M49 856q0 57 39 95t92 38q57 0 94 -38t37 -95q0 -53 -36.5 -92t-94.5 -39q-53 0 -92 39t-39 92z" />
<glyph unicode="&#xb8;" horiz-adv-x="387" d="M96 -340q96 0 144.5 30.5t48.5 102.5q0 41 -30 69.5t-75 28.5l33 125h68l-21 -94q74 -2 118 -27.5t44 -78.5q0 -84 -72.5 -135.5t-257.5 -51.5v31z" />
<glyph unicode="&#xba;" horiz-adv-x="790" d="M35 1294q0 98 17.5 183.5t60.5 147t115.5 96t183.5 34.5q141 0 211.5 -119.5t70.5 -345.5q0 -133 -24.5 -225t-72.5 -148.5t-116.5 -82t-156.5 -25.5q-154 0 -221.5 118.5t-67.5 366.5zM184 1315q0 -223 50.5 -341t154.5 -118q43 0 74 19.5t51.5 66.5t30.5 128t10 202 q0 94 -16.5 173t-46 137t-70.5 91t-88 33q-37 0 -65.5 -20.5t-47 -66.5t-28 -121t-9.5 -183z" />
<glyph unicode="&#xbb;" horiz-adv-x="903" d="M121 477v146l239 112l-239 111v139l366 -180v-137zM469 477v146l238 112l-238 111v139l365 -180v-137z" />
<glyph unicode="&#xbf;" horiz-adv-x="862" d="M12 -33q0 70 36 143.5t89 148.5t115.5 148.5t116 142t89.5 129t36 109.5q0 33 -91 226l66 20l158 -303q18 -35 18 -74q0 -43 -30.5 -97t-78 -115.5t-100.5 -126t-100 -127t-78 -120t-31 -102.5q0 -49 24.5 -96t64.5 -84t89.5 -59.5t98.5 -22.5q154 0 276 156l49 -56 q-61 -94 -181 -136t-255 -42q-92 0 -162.5 27t-120 73t-74 107.5t-24.5 130.5zM317 1268q0 55 39 93t93 38q55 0 93 -38t38 -93t-38 -94t-93 -39q-53 0 -92.5 38.5t-39.5 94.5z" />
<glyph unicode="&#xc0;" d="M33 0l325 1733h228l329 -1733h-225l-82 399h-409l-82 -399h-84zM33 0zM213 449h373l-178 1089zM217 2028q0 57 76 57q25 0 47.5 -7t51.5 -22l247 -133l-34 -47l-318 86q-70 18 -70 66z" />
<glyph unicode="&#xc1;" d="M33 0l325 1733h228l329 -1733h-225l-82 399h-409l-82 -399h-84zM33 0zM213 449h373l-178 1089zM310 1923l247 133q29 16 54 21.5t45 7.5q78 0 78 -57q0 -47 -70 -66l-320 -86z" />
<glyph unicode="&#xc2;" d="M33 0l325 1733h228l329 -1733h-225l-82 399h-409l-82 -399h-84zM33 0zM213 449h373l-178 1089zM224 1919q0 47 71 82l181 84l180 -84q74 -35 74 -82q0 -43 -48 -43q-35 0 -92 40t-114 87q-59 -49 -114.5 -88t-90.5 -39q-47 0 -47 43z" />
<glyph unicode="&#xc3;" d="M33 0l325 1733h228l329 -1733h-225l-82 399h-409l-82 -399h-84zM33 0zM174 1899q4 90 54.5 138t129.5 48q45 0 81 -22.5t66 -49t55.5 -49t51.5 -22.5q29 0 61 23.5t40 94.5h63q-4 -88 -58 -136t-132 -48q-45 0 -81 22.5t-65.5 49t-56.5 49t-53 22.5q-29 0 -51.5 -24.5 t-38.5 -95.5h-66zM213 449h373l-178 1089z" />
<glyph unicode="&#xc4;" d="M33 0l325 1733h228l329 -1733h-225l-82 399h-409l-82 -399h-84zM33 0zM194 1981q0 43 30 73.5t75 30.5q41 0 71.5 -30.5t30.5 -73.5q0 -41 -30.5 -72t-71.5 -31q-45 0 -75 31t-30 72zM213 449h373l-178 1089zM547 1981q0 43 30.5 73.5t75.5 30.5q41 0 72 -30.5t31 -73.5 q0 -41 -31 -72t-72 -31q-45 0 -75.5 31t-30.5 72z" />
<glyph unicode="&#xc5;" d="M33 0l325 1733h228l329 -1733h-225l-82 399h-409l-82 -399h-84zM33 0zM213 449h373l-178 1089zM303 1913q0 37 14.5 68.5t38 54t54 36t63.5 13.5q68 0 121 -49t53 -123q0 -37 -14.5 -68.5t-39 -55t-56 -37t-64.5 -13.5q-66 0 -118 48t-52 126zM365 1913q0 -49 33.5 -79 t74.5 -30q43 0 76 30t33 79t-33 79t-76 30q-41 0 -74.5 -30t-33.5 -79z" />
<glyph unicode="&#xc6;" horiz-adv-x="1075" d="M16 0l316 1733h727v-50h-408v-1234h230v-50h-230v-350h408v-49h-668v399h-207l-84 -399h-84zM199 449h192v1069z" />
<glyph unicode="&#xc7;" horiz-adv-x="1136" d="M53 887q0 211 35 371.5t113 270t200.5 166t298.5 56.5q131 0 229.5 -71.5t164.5 -200.5l-90 -23q-20 49 -57.5 91t-82.5 74t-96 50.5t-102 18.5q-90 0 -161 -59.5t-119 -167t-72.5 -258t-24.5 -335.5q0 -180 24.5 -333.5t70.5 -266t111.5 -177t149.5 -64.5q47 0 95 19.5 t92.5 52t84 74.5t70.5 87h88q-70 -135 -177 -205.5t-247 -87.5l-10 -47q74 -2 118 -27.5t44 -78.5q0 -84 -73 -135.5t-257 -51.5v31q96 0 144.5 30.5t48.5 102.5q0 41 -30 69.5t-75 28.5l19 74q-139 0 -239.5 50.5t-164 161t-93.5 285.5t-30 425z" />
<glyph unicode="&#xc8;" horiz-adv-x="940" d="M72 0v1733h868v-50h-641v-788h371v-49h-371v-799h641v-47h-868zM72 0zM210 2028q0 57 76 57q25 0 47.5 -7t51.5 -22l247 -133l-34 -47l-318 86q-70 18 -70 66z" />
<glyph unicode="&#xc9;" horiz-adv-x="940" d="M72 0v1733h868v-50h-641v-788h371v-49h-371v-799h641v-47h-868zM72 0zM303 1923l247 133q29 16 54 21.5t45 7.5q78 0 78 -57q0 -47 -70 -66l-320 -86z" />
<glyph unicode="&#xca;" horiz-adv-x="940" d="M72 0v1733h868v-50h-641v-788h371v-49h-371v-799h641v-47h-868zM72 0zM217 1919q0 47 71 82l181 84l180 -84q74 -35 74 -82q0 -43 -48 -43q-35 0 -92 40t-114 87q-59 -49 -114.5 -88t-90.5 -39q-47 0 -47 43z" />
<glyph unicode="&#xcb;" horiz-adv-x="940" d="M72 0v1733h868v-50h-641v-788h371v-49h-371v-799h641v-47h-868zM72 0zM190 1981q0 43 30 73.5t75 30.5q41 0 71.5 -30.5t30.5 -73.5q0 -41 -30.5 -72t-71.5 -31q-45 0 -75 31t-30 72zM543 1981q0 43 30.5 73.5t75.5 30.5q41 0 72 -30.5t31 -73.5q0 -41 -31 -72t-72 -31 q-45 0 -75.5 31t-30.5 72z" />
<glyph unicode="&#xcc;" horiz-adv-x="372" d="M-70 2028q0 57 76 57q25 0 47.5 -7t51.5 -22l247 -133l-34 -47l-318 86q-70 18 -70 66zM0 0zM70 0v1733h227v-1733h-227z" />
<glyph unicode="&#xcd;" horiz-adv-x="372" d="M23 0zM23 1923l247 133q29 16 54 21.5t45 7.5q78 0 78 -57q0 -47 -70 -66l-320 -86zM70 0v1733h227v-1733h-227z" />
<glyph unicode="&#xce;" horiz-adv-x="372" d="M-63 1919q0 47 71 82l181 84l180 -84q74 -35 74 -82q0 -43 -48 -43q-35 0 -92 40t-114 87q-59 -49 -114.5 -88t-90.5 -39q-47 0 -47 43zM0 0zM70 0v1733h227v-1733h-227z" />
<glyph unicode="&#xcf;" horiz-adv-x="372" d="M-91 1981q0 43 30 73.5t75 30.5q41 0 71.5 -30.5t30.5 -73.5q0 -41 -30.5 -72t-71.5 -31q-45 0 -75 31t-30 72zM0 0zM70 0v1733h227v-1733h-227zM262 1981q0 43 30.5 73.5t75.5 30.5q41 0 72 -30.5t31 -73.5q0 -41 -31 -72t-72 -31q-45 0 -75.5 31t-30.5 72z" />
<glyph unicode="&#xd0;" horiz-adv-x="1196" d="M0 821v119h72v793h549q119 0 215 -63.5t164.5 -177.5t105.5 -270.5t37 -340.5q0 -252 -39 -421t-126 -271.5t-227.5 -145.5t-342.5 -43h-336v821h-72zM297 47h215q197 0 300 212t103 622q0 172 -34.5 319.5t-101 255t-161 167.5t-210.5 60h-111v-743h289v-119h-289v-774z " />
<glyph unicode="&#xd1;" horiz-adv-x="1026" d="M70 0zM70 2v1731h198l590 -1180v1180h94v-1768h-28l-758 1499v-1462h-96zM211 1899q4 90 54.5 138t129.5 48q45 0 81 -22.5t66 -49t55.5 -49t51.5 -22.5q29 0 61 23.5t40 94.5h63q-4 -88 -58 -136t-132 -48q-45 0 -81 22.5t-65.5 49t-56.5 49t-53 22.5q-29 0 -51.5 -24.5 t-38.5 -95.5h-66z" />
<glyph unicode="&#xd2;" horiz-adv-x="1323" d="M55 0zM55 887q0 213 36 374.5t117 270t211 164t320 55.5q266 0 396.5 -211t130.5 -629q0 -252 -37 -431t-119 -293.5t-214 -168t-321 -53.5q-135 0 -233 50.5t-161.5 161t-94.5 285.5t-31 425zM293 870q0 -180 24.5 -333.5t71.5 -267t112.5 -178t149.5 -64.5q90 0 159 59 t116 167.5t70.5 260.5t23.5 336q0 188 -23.5 343t-69.5 264.5t-111.5 169t-149.5 59.5q-90 0 -159 -58.5t-117 -165t-72.5 -257t-24.5 -335.5zM403 2028q0 57 76 57q25 0 47.5 -7t51.5 -22l247 -133l-34 -47l-318 86q-70 18 -70 66z" />
<glyph unicode="&#xd3;" horiz-adv-x="1323" d="M55 0zM55 887q0 213 36 374.5t117 270t211 164t320 55.5q266 0 396.5 -211t130.5 -629q0 -252 -37 -431t-119 -293.5t-214 -168t-321 -53.5q-135 0 -233 50.5t-161.5 161t-94.5 285.5t-31 425zM293 870q0 -180 24.5 -333.5t71.5 -267t112.5 -178t149.5 -64.5q90 0 159 59 t116 167.5t70.5 260.5t23.5 336q0 188 -23.5 343t-69.5 264.5t-111.5 169t-149.5 59.5q-90 0 -159 -58.5t-117 -165t-72.5 -257t-24.5 -335.5zM496 1923l247 133q29 16 54 21.5t45 7.5q78 0 78 -57q0 -47 -70 -66l-320 -86z" />
<glyph unicode="&#xd4;" horiz-adv-x="1323" d="M55 0zM55 887q0 213 36 374.5t117 270t211 164t320 55.5q266 0 396.5 -211t130.5 -629q0 -252 -37 -431t-119 -293.5t-214 -168t-321 -53.5q-135 0 -233 50.5t-161.5 161t-94.5 285.5t-31 425zM293 870q0 -180 24.5 -333.5t71.5 -267t112.5 -178t149.5 -64.5q90 0 159 59 t116 167.5t70.5 260.5t23.5 336q0 188 -23.5 343t-69.5 264.5t-111.5 169t-149.5 59.5q-90 0 -159 -58.5t-117 -165t-72.5 -257t-24.5 -335.5zM408 1919q0 47 71 82l181 84l180 -84q74 -35 74 -82q0 -43 -48 -43q-35 0 -92 40t-114 87q-59 -49 -114.5 -88t-90.5 -39 q-47 0 -47 43z" />
<glyph unicode="&#xd5;" horiz-adv-x="1323" d="M55 0zM55 887q0 213 36 374.5t117 270t211 164t320 55.5q266 0 396.5 -211t130.5 -629q0 -252 -37 -431t-119 -293.5t-214 -168t-321 -53.5q-135 0 -233 50.5t-161.5 161t-94.5 285.5t-31 425zM293 870q0 -180 24.5 -333.5t71.5 -267t112.5 -178t149.5 -64.5q90 0 159 59 t116 167.5t70.5 260.5t23.5 336q0 188 -23.5 343t-69.5 264.5t-111.5 169t-149.5 59.5q-90 0 -159 -58.5t-117 -165t-72.5 -257t-24.5 -335.5zM360 1899q4 90 54.5 138t129.5 48q45 0 81 -22.5t66 -49t55.5 -49t51.5 -22.5q29 0 61 23.5t40 94.5h63q-4 -88 -58 -136 t-132 -48q-45 0 -81 22.5t-65.5 49t-56.5 49t-53 22.5q-29 0 -51.5 -24.5t-38.5 -95.5h-66z" />
<glyph unicode="&#xd6;" horiz-adv-x="1323" d="M55 0zM55 887q0 213 36 374.5t117 270t211 164t320 55.5q266 0 396.5 -211t130.5 -629q0 -252 -37 -431t-119 -293.5t-214 -168t-321 -53.5q-135 0 -233 50.5t-161.5 161t-94.5 285.5t-31 425zM293 870q0 -180 24.5 -333.5t71.5 -267t112.5 -178t149.5 -64.5q90 0 159 59 t116 167.5t70.5 260.5t23.5 336q0 188 -23.5 343t-69.5 264.5t-111.5 169t-149.5 59.5q-90 0 -159 -58.5t-117 -165t-72.5 -257t-24.5 -335.5zM381 1981q0 43 30 73.5t75 30.5q41 0 71.5 -30.5t30.5 -73.5q0 -41 -30.5 -72t-71.5 -31q-45 0 -75 31t-30 72zM734 1981 q0 43 30.5 73.5t75.5 30.5q41 0 72 -30.5t31 -73.5q0 -41 -31 -72t-72 -31q-45 0 -75.5 31t-30.5 72z" />
<glyph unicode="&#xd7;" horiz-adv-x="667" d="M72 686l194 195l-174 174l66 65l174 -174l180 180l78 -77l-180 -181l180 -180l-68 -65l-180 180l-192 -195z" />
<glyph unicode="&#xd8;" horiz-adv-x="1323" d="M55 887q0 213 36 374.5t117 270t211 164t320 55.5q115 0 207 -43l47 111l92 -39l-53 -125q233 -188 234 -744q0 -252 -37 -431t-119 -293.5t-214 -168t-321 -53.5q-141 0 -243 53l-49 -112l-86 41l55 133q-102 100 -149.5 295.5t-47.5 511.5zM293 870q0 -154 17.5 -289 t51.5 -241l517 1210q-43 66 -96.5 101t-116.5 35q-90 0 -159 -58.5t-117 -165t-72.5 -257t-24.5 -335.5zM414 213q47 -88 106.5 -137t130.5 -49q90 0 159 59t116 167.5t70.5 260.5t23.5 336q0 178 -20.5 325.5t-63.5 254.5z" />
<glyph unicode="&#xd9;" horiz-adv-x="1017" d="M68 0zM68 299v1434h227v-1403q0 -61 26.5 -114.5t70.5 -94.5t102.5 -64.5t121.5 -23.5q115 0 177.5 73.5t62.5 192.5v1434h94v-1368q0 -139 -47 -218t-120.5 -120t-163 -51.5t-173.5 -10.5q-379 0 -378 334zM251 2028q0 57 76 57q25 0 47.5 -7t51.5 -22l247 -133l-34 -47 l-318 86q-70 18 -70 66z" />
<glyph unicode="&#xda;" horiz-adv-x="1017" d="M68 0zM68 299v1434h227v-1403q0 -61 26.5 -114.5t70.5 -94.5t102.5 -64.5t121.5 -23.5q115 0 177.5 73.5t62.5 192.5v1434h94v-1368q0 -139 -47 -218t-120.5 -120t-163 -51.5t-173.5 -10.5q-379 0 -378 334zM344 1923l247 133q29 16 54 21.5t45 7.5q78 0 78 -57 q0 -47 -70 -66l-320 -86z" />
<glyph unicode="&#xdb;" horiz-adv-x="1017" d="M68 0zM68 299v1434h227v-1403q0 -61 26.5 -114.5t70.5 -94.5t102.5 -64.5t121.5 -23.5q115 0 177.5 73.5t62.5 192.5v1434h94v-1368q0 -139 -47 -218t-120.5 -120t-163 -51.5t-173.5 -10.5q-379 0 -378 334zM256 1919q0 47 71 82l181 84l180 -84q74 -35 74 -82 q0 -43 -48 -43q-35 0 -92 40t-114 87q-59 -49 -114.5 -88t-90.5 -39q-47 0 -47 43z" />
<glyph unicode="&#xdc;" horiz-adv-x="1017" d="M68 0zM68 299v1434h227v-1403q0 -61 26.5 -114.5t70.5 -94.5t102.5 -64.5t121.5 -23.5q115 0 177.5 73.5t62.5 192.5v1434h94v-1368q0 -139 -47 -218t-120.5 -120t-163 -51.5t-173.5 -10.5q-379 0 -378 334zM237 1981q0 43 30 73.5t75 30.5q41 0 71.5 -30.5t30.5 -73.5 q0 -41 -30.5 -72t-71.5 -31q-45 0 -75 31t-30 72zM590 1981q0 43 30.5 73.5t75.5 30.5q41 0 72 -30.5t31 -73.5q0 -41 -31 -72t-72 -31q-45 0 -75.5 31t-30.5 72z" />
<glyph unicode="&#xdd;" horiz-adv-x="911" d="M10 0zM10 1733h238l244 -656l307 656h102l-342 -721v-1012h-227v918zM289 1923l247 133q29 16 54 21.5t45 7.5q78 0 78 -57q0 -47 -70 -66l-320 -86z" />
<glyph unicode="&#xde;" horiz-adv-x="966" d="M70 0v1733h225v-322h334q63 0 121.5 -30.5t103.5 -81t71.5 -112t26.5 -122.5v-256q0 -86 -42 -156.5t-113.5 -120t-170 -77t-210.5 -27.5h-121v-428h-225zM295 477h160q45 0 93 31t88 77t64.5 98t24.5 97v254q0 61 -24.5 119.5t-66.5 105t-98.5 75t-119.5 28.5h-121v-885 z" />
<glyph unicode="&#xdf;" horiz-adv-x="1009" d="M66 0v1403q0 184 122.5 275t329.5 91q88 0 156.5 -33.5t117 -94t74 -142.5t25.5 -178q0 -154 -48 -256t-120 -162q55 -12 98 -45t74 -80t46 -106.5t15 -126.5q0 -117 -39.5 -218.5t-112.5 -175t-173.5 -115.5t-218.5 -42v39q63 0 119.5 44t97.5 114.5t64.5 156.5 t23.5 170q0 152 -73 246t-208 94q63 18 113.5 59t83.5 99.5t50 131.5t17 152q0 203 -62.5 304.5t-152.5 101.5t-141 -78t-51 -196v-1432h-227z" />
<glyph unicode="&#xe0;" horiz-adv-x="987" d="M39 0zM39 360q0 143 107.5 246t326.5 150q88 18 144.5 62t76.5 130v105q0 45 -20.5 93t-55 88t-82 65.5t-100.5 25.5q-135 0 -239 -135l-70 33q137 184 410 184q90 0 161.5 -25.5t120.5 -69.5t76 -102.5t27 -124.5v-907q0 -113 43 -176h-224q-27 39 -38 82t-11 92 q-16 -41 -37.5 -80t-56.5 -67.5t-83 -46t-116 -17.5q-102 0 -170.5 31t-110.5 84t-60.5 124.5t-18.5 155.5zM235 1692q0 57 76 57q25 0 47.5 -7t51.5 -22l247 -133l-34 -47l-318 86q-70 18 -70 66zM264 406q0 -66 10.5 -133.5t36 -121t67.5 -87t103 -33.5q72 0 123 74.5 t82 183.5l8 71v486q-8 -61 -48 -98t-105 -60q-276 -90 -277 -282z" />
<glyph unicode="&#xe1;" horiz-adv-x="987" d="M39 0zM39 360q0 143 107.5 246t326.5 150q88 18 144.5 62t76.5 130v105q0 45 -20.5 93t-55 88t-82 65.5t-100.5 25.5q-135 0 -239 -135l-70 33q137 184 410 184q90 0 161.5 -25.5t120.5 -69.5t76 -102.5t27 -124.5v-907q0 -113 43 -176h-224q-27 39 -38 82t-11 92 q-16 -41 -37.5 -80t-56.5 -67.5t-83 -46t-116 -17.5q-102 0 -170.5 31t-110.5 84t-60.5 124.5t-18.5 155.5zM264 406q0 -66 10.5 -133.5t36 -121t67.5 -87t103 -33.5q72 0 123 74.5t82 183.5l8 71v486q-8 -61 -48 -98t-105 -60q-276 -90 -277 -282zM328 1587l247 133 q29 16 54 21.5t45 7.5q78 0 78 -57q0 -47 -70 -66l-320 -86z" />
<glyph unicode="&#xe2;" horiz-adv-x="987" d="M39 0zM39 360q0 143 107.5 246t326.5 150q88 18 144.5 62t76.5 130v105q0 45 -20.5 93t-55 88t-82 65.5t-100.5 25.5q-135 0 -239 -135l-70 33q137 184 410 184q90 0 161.5 -25.5t120.5 -69.5t76 -102.5t27 -124.5v-907q0 -113 43 -176h-224q-27 39 -38 82t-11 92 q-16 -41 -37.5 -80t-56.5 -67.5t-83 -46t-116 -17.5q-102 0 -170.5 31t-110.5 84t-60.5 124.5t-18.5 155.5zM242 1583q0 47 71 82l181 84l180 -84q74 -35 74 -82q0 -43 -48 -43q-35 0 -92 40t-114 87q-59 -49 -114.5 -88t-90.5 -39q-47 0 -47 43zM264 406q0 -66 10.5 -133.5 t36 -121t67.5 -87t103 -33.5q72 0 123 74.5t82 183.5l8 71v486q-8 -61 -48 -98t-105 -60q-276 -90 -277 -282z" />
<glyph unicode="&#xe3;" horiz-adv-x="987" d="M39 0zM39 360q0 143 107.5 246t326.5 150q88 18 144.5 62t76.5 130v105q0 45 -20.5 93t-55 88t-82 65.5t-100.5 25.5q-135 0 -239 -135l-70 33q137 184 410 184q90 0 161.5 -25.5t120.5 -69.5t76 -102.5t27 -124.5v-907q0 -113 43 -176h-224q-27 39 -38 82t-11 92 q-16 -41 -37.5 -80t-56.5 -67.5t-83 -46t-116 -17.5q-102 0 -170.5 31t-110.5 84t-60.5 124.5t-18.5 155.5zM192 1563q4 90 54.5 138t129.5 48q45 0 81 -22.5t66 -49t55.5 -49t51.5 -22.5q29 0 61 23.5t40 94.5h63q-4 -88 -58 -136t-132 -48q-45 0 -81 22.5t-65.5 49 t-56.5 49t-53 22.5q-29 0 -51.5 -24.5t-38.5 -95.5h-66zM264 406q0 -66 10.5 -133.5t36 -121t67.5 -87t103 -33.5q72 0 123 74.5t82 183.5l8 71v486q-8 -61 -48 -98t-105 -60q-276 -90 -277 -282z" />
<glyph unicode="&#xe4;" horiz-adv-x="987" d="M39 0zM39 360q0 143 107.5 246t326.5 150q88 18 144.5 62t76.5 130v105q0 45 -20.5 93t-55 88t-82 65.5t-100.5 25.5q-135 0 -239 -135l-70 33q137 184 410 184q90 0 161.5 -25.5t120.5 -69.5t76 -102.5t27 -124.5v-907q0 -113 43 -176h-224q-27 39 -38 82t-11 92 q-16 -41 -37.5 -80t-56.5 -67.5t-83 -46t-116 -17.5q-102 0 -170.5 31t-110.5 84t-60.5 124.5t-18.5 155.5zM213 1645q0 43 30 73.5t75 30.5q41 0 71.5 -30.5t30.5 -73.5q0 -41 -30.5 -72t-71.5 -31q-45 0 -75 31t-30 72zM264 406q0 -66 10.5 -133.5t36 -121t67.5 -87 t103 -33.5q72 0 123 74.5t82 183.5l8 71v486q-8 -61 -48 -98t-105 -60q-276 -90 -277 -282zM566 1645q0 43 30.5 73.5t75.5 30.5q41 0 72 -30.5t31 -73.5q0 -41 -31 -72t-72 -31q-45 0 -75.5 31t-30.5 72z" />
<glyph unicode="&#xe5;" horiz-adv-x="987" d="M39 0zM39 360q0 143 107.5 246t326.5 150q88 18 144.5 62t76.5 130v105q0 45 -20.5 93t-55 88t-82 65.5t-100.5 25.5q-135 0 -239 -135l-70 33q137 184 410 184q90 0 161.5 -25.5t120.5 -69.5t76 -102.5t27 -124.5v-907q0 -113 43 -176h-224q-27 39 -38 82t-11 92 q-16 -41 -37.5 -80t-56.5 -67.5t-83 -46t-116 -17.5q-102 0 -170.5 31t-110.5 84t-60.5 124.5t-18.5 155.5zM264 406q0 -66 10.5 -133.5t36 -121t67.5 -87t103 -33.5q72 0 123 74.5t82 183.5l8 71v486q-8 -61 -48 -98t-105 -60q-276 -90 -277 -282zM321 1655q0 37 14.5 68.5 t38 54t54 36t63.5 13.5q68 0 121 -49t53 -123q0 -37 -14.5 -68.5t-39 -55t-56 -37t-64.5 -13.5q-66 0 -118 48t-52 126zM383 1655q0 -49 33.5 -79t74.5 -30q43 0 76 30t33 79t-33 79t-76 30q-41 0 -74.5 -30t-33.5 -79z" />
<glyph unicode="&#xe6;" horiz-adv-x="1738" d="M53 338q0 102 30 167.5t85 108.5t135 69t182 50q176 43 224 135v125q0 57 -20.5 115.5t-56.5 107t-83 79t-100 30.5q-66 0 -125.5 -52t-112.5 -122l-74 33q72 94 175.5 158.5t238.5 64.5q125 0 211 -62.5t133 -148.5q59 102 154.5 156.5t199.5 54.5q127 0 212 -53.5 t135.5 -141.5t72 -201.5t21.5 -234.5h-738q-2 -23 -3 -45t-1 -49q0 -129 23.5 -246t67.5 -207t107.5 -143t143.5 -53q51 0 97.5 17.5t87.5 47t73.5 67.5t55.5 81l51 -27q-31 -53 -67 -99t-82 -81t-105.5 -54.5t-134.5 -19.5q-84 0 -154 30t-127 85t-102 132t-80 171 q-25 -86 -54.5 -163t-73.5 -133t-108.5 -89t-156.5 -33q-100 0 -169 32t-110 84t-59.5 119.5t-18.5 137.5zM279 367q0 -55 15 -112.5t41.5 -104t64.5 -75t81 -28.5q55 0 97.5 39t71 104.5t44 151.5t15.5 180v269q-37 -82 -154 -125q-96 -37 -151.5 -64t-83 -58.5 t-34.5 -72.5t-7 -104zM963 862h563q0 88 -18.5 172t-53.5 150.5t-83 107.5t-105 41q-55 0 -104.5 -38t-88.5 -102.5t-67.5 -149.5t-42.5 -181z" />
<glyph unicode="&#xe7;" horiz-adv-x="962" d="M37 686q0 358 145.5 535.5t409.5 177.5q117 0 189.5 -42t109.5 -149l-70 -26q-29 72 -81 113.5t-130 41.5q-94 0 -158.5 -42t-104.5 -123.5t-57.5 -201.5t-17.5 -276q0 -143 23.5 -263t70 -207t113 -136t154.5 -49q59 0 116.5 56.5t116.5 137.5l52 -24q-31 -51 -62 -94 t-71 -75t-93 -50.5t-129 -22.5l-8 -45q74 -2 118 -27.5t44 -78.5q0 -84 -73 -135.5t-257 -51.5v31q94 0 142.5 30.5t48.5 102.5q0 41 -29 69.5t-74 28.5l19 76q-106 8 -191.5 63.5t-144 150.5t-90 223t-31.5 282z" />
<glyph unicode="&#xe8;" horiz-adv-x="1071" d="M47 0zM47 641q0 158 43 297t120 243.5t180.5 165t225.5 60.5q109 0 188 -58.5t130 -149.5t75.5 -203.5t24.5 -219.5h-739q-2 -12 -2 -28.5v-65.5q0 -115 19.5 -229.5t60.5 -206.5t106.5 -149.5t157.5 -57.5q59 0 115.5 56.5t115.5 137.5l54 -24q-37 -53 -74 -98t-81 -78 t-99.5 -50.5t-130.5 -17.5q-111 0 -202 53.5t-154.5 145.5t-98.5 215t-35 262zM276 1692q0 57 76 57q25 0 47.5 -7t51.5 -22l247 -133l-34 -47l-318 86q-70 18 -70 66zM305 862h563q0 78 -13 161t-42 152.5t-78 113.5t-119 44q-76 0 -130 -47t-91 -117.5t-58.5 -152.5 t-31.5 -154z" />
<glyph unicode="&#xe9;" horiz-adv-x="1071" d="M47 0zM47 641q0 158 43 297t120 243.5t180.5 165t225.5 60.5q109 0 188 -58.5t130 -149.5t75.5 -203.5t24.5 -219.5h-739q-2 -12 -2 -28.5v-65.5q0 -115 19.5 -229.5t60.5 -206.5t106.5 -149.5t157.5 -57.5q59 0 115.5 56.5t115.5 137.5l54 -24q-37 -53 -74 -98t-81 -78 t-99.5 -50.5t-130.5 -17.5q-111 0 -202 53.5t-154.5 145.5t-98.5 215t-35 262zM305 862h563q0 78 -13 161t-42 152.5t-78 113.5t-119 44q-76 0 -130 -47t-91 -117.5t-58.5 -152.5t-31.5 -154zM369 1587l247 133q29 16 54 21.5t45 7.5q78 0 78 -57q0 -47 -70 -66l-320 -86z " />
<glyph unicode="&#xea;" horiz-adv-x="1071" d="M47 0zM47 641q0 158 43 297t120 243.5t180.5 165t225.5 60.5q109 0 188 -58.5t130 -149.5t75.5 -203.5t24.5 -219.5h-739q-2 -12 -2 -28.5v-65.5q0 -115 19.5 -229.5t60.5 -206.5t106.5 -149.5t157.5 -57.5q59 0 115.5 56.5t115.5 137.5l54 -24q-37 -53 -74 -98t-81 -78 t-99.5 -50.5t-130.5 -17.5q-111 0 -202 53.5t-154.5 145.5t-98.5 215t-35 262zM283 1583q0 47 71 82l181 84l180 -84q74 -35 74 -82q0 -43 -48 -43q-35 0 -92 40t-114 87q-59 -49 -114.5 -88t-90.5 -39q-47 0 -47 43zM305 862h563q0 78 -13 161t-42 152.5t-78 113.5t-119 44 q-76 0 -130 -47t-91 -117.5t-58.5 -152.5t-31.5 -154z" />
<glyph unicode="&#xeb;" horiz-adv-x="1071" d="M47 0zM47 641q0 158 43 297t120 243.5t180.5 165t225.5 60.5q109 0 188 -58.5t130 -149.5t75.5 -203.5t24.5 -219.5h-739q-2 -12 -2 -28.5v-65.5q0 -115 19.5 -229.5t60.5 -206.5t106.5 -149.5t157.5 -57.5q59 0 115.5 56.5t115.5 137.5l54 -24q-37 -53 -74 -98t-81 -78 t-99.5 -50.5t-130.5 -17.5q-111 0 -202 53.5t-154.5 145.5t-98.5 215t-35 262zM256 1645q0 43 30 73.5t75 30.5q41 0 71.5 -30.5t30.5 -73.5q0 -41 -30.5 -72t-71.5 -31q-45 0 -75 31t-30 72zM305 862h563q0 78 -13 161t-42 152.5t-78 113.5t-119 44q-76 0 -130 -47 t-91 -117.5t-58.5 -152.5t-31.5 -154zM609 1645q0 43 30.5 73.5t75.5 30.5q41 0 72 -30.5t31 -73.5q0 -41 -31 -72t-72 -31q-45 0 -75.5 31t-30.5 72z" />
<glyph unicode="&#xec;" horiz-adv-x="366" d="M-72 1692q0 57 76 57q25 0 47.5 -7t51.5 -22l247 -133l-34 -47l-318 86q-70 18 -70 66zM0 2zM68 2v1307l227 69v-1376h-227z" />
<glyph unicode="&#xed;" horiz-adv-x="366" d="M39 2zM39 1587l247 133q29 16 54 21.5t45 7.5q78 0 78 -57q0 -47 -70 -66l-320 -86zM68 2v1307l227 69v-1376h-227z" />
<glyph unicode="&#xee;" horiz-adv-x="366" d="M-65 1583q0 47 71 82l181 84l180 -84q74 -35 74 -82q0 -43 -48 -43q-35 0 -92 40t-114 87q-59 -49 -114.5 -88t-90.5 -39q-47 0 -47 43zM0 2zM68 2v1307l227 69v-1376h-227z" />
<glyph unicode="&#xef;" horiz-adv-x="366" d="M-93 1645q0 43 30 73.5t75 30.5q41 0 71.5 -30.5t30.5 -73.5q0 -41 -30.5 -72t-71.5 -31q-45 0 -75 31t-30 72zM0 2zM68 2v1307l227 69v-1376h-227zM260 1645q0 43 30.5 73.5t75.5 30.5q41 0 72 -30.5t31 -73.5q0 -41 -31 -72t-72 -31q-45 0 -75.5 31t-30.5 72z" />
<glyph unicode="&#xf0;" horiz-adv-x="983" d="M33 498q0 104 28.5 195t84 160t134 108.5t179.5 39.5q178 0 280 -151q-10 137 -45 265t-90 233l-178 -146l-55 70l188 153q-66 98 -150.5 166t-189.5 97l12 63q131 -39 233.5 -103.5t180.5 -150.5l178 145l58 -67l-179 -145q63 -84 107.5 -178.5t73 -197t42 -208 t13.5 -209.5q0 -664 -463 -664q-205 0 -323.5 137.5t-118.5 387.5zM211 397q0 -78 15.5 -144.5t45 -114.5t72.5 -75.5t100 -27.5q70 0 126.5 45t94 125t58 190.5t20.5 241.5q0 37 -2 71.5t-6 63.5q-68 90 -180 90q-86 0 -150.5 -39t-107.5 -103.5t-64.5 -148.5t-21.5 -174z " />
<glyph unicode="&#xf1;" horiz-adv-x="1015" d="M68 0v1309l225 69v-194q27 106 106.5 164.5t192.5 58.5q78 0 143.5 -24.5t113.5 -68.5t74.5 -107.5t26.5 -139.5v-1067h-227v1034q0 125 -59.5 207t-159.5 82q-41 0 -79 -22.5t-67.5 -61.5t-47 -88t-17.5 -104v-1047h-225zM68 0zM207 1563q4 90 54.5 138t129.5 48 q45 0 81 -22.5t66 -49t55.5 -49t51.5 -22.5q29 0 61 23.5t40 94.5h63q-4 -88 -58 -136t-132 -48q-45 0 -81 22.5t-65.5 49t-56.5 49t-53 22.5q-29 0 -51.5 -24.5t-38.5 -95.5h-66z" />
<glyph unicode="&#xf2;" horiz-adv-x="1114" d="M53 0zM53 702q0 152 26.5 281t92.5 223t176.5 147.5t278.5 53.5q217 0 325.5 -182.5t108.5 -526.5q0 -203 -38 -343t-110.5 -226t-178 -125t-240.5 -39q-231 0 -336 180t-105 557zM281 735q0 -342 76.5 -521t234.5 -179q66 0 114 29.5t78.5 102.5t46 194.5t15.5 306.5 q0 143 -25.5 265t-69.5 210t-105.5 137t-135.5 49q-57 0 -100 -30.5t-72 -100.5t-43 -183.5t-14 -279.5zM299 1692q0 57 76 57q25 0 47.5 -7t51.5 -22l247 -133l-34 -47l-318 86q-70 18 -70 66z" />
<glyph unicode="&#xf3;" horiz-adv-x="1114" d="M53 0zM53 702q0 152 26.5 281t92.5 223t176.5 147.5t278.5 53.5q217 0 325.5 -182.5t108.5 -526.5q0 -203 -38 -343t-110.5 -226t-178 -125t-240.5 -39q-231 0 -336 180t-105 557zM281 735q0 -342 76.5 -521t234.5 -179q66 0 114 29.5t78.5 102.5t46 194.5t15.5 306.5 q0 143 -25.5 265t-69.5 210t-105.5 137t-135.5 49q-57 0 -100 -30.5t-72 -100.5t-43 -183.5t-14 -279.5zM392 1587l247 133q29 16 54 21.5t45 7.5q78 0 78 -57q0 -47 -70 -66l-320 -86z" />
<glyph unicode="&#xf4;" horiz-adv-x="1114" d="M53 0zM53 702q0 152 26.5 281t92.5 223t176.5 147.5t278.5 53.5q217 0 325.5 -182.5t108.5 -526.5q0 -203 -38 -343t-110.5 -226t-178 -125t-240.5 -39q-231 0 -336 180t-105 557zM281 735q0 -342 76.5 -521t234.5 -179q66 0 114 29.5t78.5 102.5t46 194.5t15.5 306.5 q0 143 -25.5 265t-69.5 210t-105.5 137t-135.5 49q-57 0 -100 -30.5t-72 -100.5t-43 -183.5t-14 -279.5zM305 1583q0 47 71 82l181 84l180 -84q74 -35 74 -82q0 -43 -48 -43q-35 0 -92 40t-114 87q-59 -49 -114.5 -88t-90.5 -39q-47 0 -47 43z" />
<glyph unicode="&#xf5;" horiz-adv-x="1114" d="M53 0zM53 702q0 152 26.5 281t92.5 223t176.5 147.5t278.5 53.5q217 0 325.5 -182.5t108.5 -526.5q0 -203 -38 -343t-110.5 -226t-178 -125t-240.5 -39q-231 0 -336 180t-105 557zM256 1563q4 90 54.5 138t129.5 48q45 0 81 -22.5t66 -49t55.5 -49t51.5 -22.5 q29 0 61 23.5t40 94.5h63q-4 -88 -58 -136t-132 -48q-45 0 -81 22.5t-65.5 49t-56.5 49t-53 22.5q-29 0 -51.5 -24.5t-38.5 -95.5h-66zM281 735q0 -342 76.5 -521t234.5 -179q66 0 114 29.5t78.5 102.5t46 194.5t15.5 306.5q0 143 -25.5 265t-69.5 210t-105.5 137t-135.5 49 q-57 0 -100 -30.5t-72 -100.5t-43 -183.5t-14 -279.5z" />
<glyph unicode="&#xf6;" horiz-adv-x="1114" d="M53 0zM53 702q0 152 26.5 281t92.5 223t176.5 147.5t278.5 53.5q217 0 325.5 -182.5t108.5 -526.5q0 -203 -38 -343t-110.5 -226t-178 -125t-240.5 -39q-231 0 -336 180t-105 557zM276 1645q0 43 30 73.5t75 30.5q41 0 71.5 -30.5t30.5 -73.5q0 -41 -30.5 -72t-71.5 -31 q-45 0 -75 31t-30 72zM281 735q0 -342 76.5 -521t234.5 -179q66 0 114 29.5t78.5 102.5t46 194.5t15.5 306.5q0 143 -25.5 265t-69.5 210t-105.5 137t-135.5 49q-57 0 -100 -30.5t-72 -100.5t-43 -183.5t-14 -279.5zM629 1645q0 43 30.5 73.5t75.5 30.5q41 0 72 -30.5 t31 -73.5q0 -41 -31 -72t-72 -31q-45 0 -75.5 31t-30.5 72z" />
<glyph unicode="&#xf7;" horiz-adv-x="667" d="M29 829v93h610v-93h-610zM209 524q0 57 37 95t94 38q53 0 92 -37.5t39 -95.5q0 -53 -39 -92t-92 -39q-57 0 -94 39t-37 92zM209 1227q0 55 37 94t94 39q53 0 92 -39t39 -94t-39 -94t-92 -39q-57 0 -94 38.5t-37 94.5z" />
<glyph unicode="&#xf8;" horiz-adv-x="1114" d="M53 702q0 152 26.5 281t92.5 223t176.5 147.5t278.5 53.5q119 0 202 -57l54 106l71 -37l-59 -121q166 -176 166 -600q0 -203 -38 -343t-110.5 -226t-178 -125t-240.5 -39q-141 0 -234 68l-53 -109l-66 39l60 123q-78 88 -113 240.5t-35 375.5zM281 735q0 -123 9 -224 t32 -183l415 837q-45 78 -102 121t-125 43q-57 0 -100 -30.5t-72 -100.5t-43 -183.5t-14 -279.5zM356 223q78 -188 236 -188q66 0 114 29.5t78.5 102.5t46 195t15.5 306q0 117 -17.5 219t-48.5 184z" />
<glyph unicode="&#xf9;" horiz-adv-x="1015" d="M63 0zM63 338v977l226 71v-1019q0 -63 15 -116.5t45 -93.5t70 -62.5t89 -22.5q47 0 86 21.5t66.5 58t43 85t15.5 101.5v977l227 71v-1386h-180l-47 178q-27 -86 -110 -137t-189 -51q-76 0 -140.5 24.5t-112.5 70.5t-76 109.5t-28 143.5zM249 1692q0 57 76 57 q25 0 47.5 -7t51.5 -22l247 -133l-34 -47l-318 86q-70 18 -70 66z" />
<glyph unicode="&#xfa;" horiz-adv-x="1015" d="M63 0zM63 338v977l226 71v-1019q0 -63 15 -116.5t45 -93.5t70 -62.5t89 -22.5q47 0 86 21.5t66.5 58t43 85t15.5 101.5v977l227 71v-1386h-180l-47 178q-27 -86 -110 -137t-189 -51q-76 0 -140.5 24.5t-112.5 70.5t-76 109.5t-28 143.5zM342 1587l247 133q29 16 54 21.5 t45 7.5q78 0 78 -57q0 -47 -70 -66l-320 -86z" />
<glyph unicode="&#xfb;" horiz-adv-x="1015" d="M63 0zM63 338v977l226 71v-1019q0 -63 15 -116.5t45 -93.5t70 -62.5t89 -22.5q47 0 86 21.5t66.5 58t43 85t15.5 101.5v977l227 71v-1386h-180l-47 178q-27 -86 -110 -137t-189 -51q-76 0 -140.5 24.5t-112.5 70.5t-76 109.5t-28 143.5zM256 1583q0 47 71 82l181 84 l180 -84q74 -35 74 -82q0 -43 -48 -43q-35 0 -92 40t-114 87q-59 -49 -114.5 -88t-90.5 -39q-47 0 -47 43z" />
<glyph unicode="&#xfc;" horiz-adv-x="1015" d="M63 0zM63 338v977l226 71v-1019q0 -63 15 -116.5t45 -93.5t70 -62.5t89 -22.5q47 0 86 21.5t66.5 58t43 85t15.5 101.5v977l227 71v-1386h-180l-47 178q-27 -86 -110 -137t-189 -51q-76 0 -140.5 24.5t-112.5 70.5t-76 109.5t-28 143.5zM227 1645q0 43 30 73.5t75 30.5 q41 0 71.5 -30.5t30.5 -73.5q0 -41 -30.5 -72t-71.5 -31q-45 0 -75 31t-30 72zM580 1645q0 43 30.5 73.5t75.5 30.5q41 0 72 -30.5t31 -73.5q0 -41 -31 -72t-72 -31q-45 0 -75.5 31t-30.5 72z" />
<glyph unicode="&#xfd;" horiz-adv-x="929" d="M14 0zM14 1378h242l274 -950l310 950h75l-458 -1450q-45 -141 -156 -220t-258 -79v76q47 0 95 14.5t90 41t74 63.5t48 84l74 209zM299 1587l247 133q29 16 54 21.5t45 7.5q78 0 78 -57q0 -47 -70 -66l-320 -86z" />
<glyph unicode="&#xfe;" horiz-adv-x="1046" d="M55 -373v2073l228 69v-602q41 117 119.5 178.5t201.5 61.5q195 0 297.5 -183.5t102.5 -521.5q0 -154 -32 -287.5t-91.5 -233t-144.5 -158t-193 -58.5q-76 0 -145.5 47t-114.5 146v-531h-228zM283 324q0 -47 22.5 -99.5t58 -98.5t83 -76t96.5 -30q53 0 97 44.5t74.5 127 t48 198.5t17.5 261q0 141 -11 261t-40 206t-80 134t-131 48q-53 0 -96 -28.5t-74 -76.5t-48 -111.5t-17 -133.5v-626z" />
<glyph unicode="&#xff;" horiz-adv-x="929" d="M14 0zM14 1378h242l274 -950l310 950h75l-458 -1450q-45 -141 -156 -220t-258 -79v76q47 0 95 14.5t90 41t74 63.5t48 84l74 209zM184 1645q0 43 30 73.5t75 30.5q41 0 71.5 -30.5t30.5 -73.5q0 -41 -30.5 -72t-71.5 -31q-45 0 -75 31t-30 72zM537 1645q0 43 30.5 73.5 t75.5 30.5q41 0 72 -30.5t31 -73.5q0 -41 -31 -72t-72 -31q-45 0 -75.5 31t-30.5 72z" />
<glyph unicode="&#x152;" horiz-adv-x="1918" d="M59 887q0 211 36 371.5t117 270t211 166t318 56.5q86 0 159 -27.5t132 -72.5v82h869v-50h-641v-788h368v-49h-368v-799h641v-47h-869v129q-43 -35 -86 -64.5t-95 -52t-118.5 -35t-159.5 -12.5q-135 0 -232 50.5t-159.5 161t-92.5 285.5t-30 425zM295 870 q0 -180 24.5 -333.5t70.5 -267t111.5 -178t147.5 -64.5q90 0 160 59t117 167.5t71.5 260.5t24.5 336q0 186 -23.5 341t-68.5 264.5t-110.5 170t-149.5 60.5q-88 0 -158 -57.5t-118 -164t-73.5 -257t-25.5 -337.5z" />
<glyph unicode="&#x153;" horiz-adv-x="1880" d="M53 702q0 152 26.5 281t92.5 223t176.5 147.5t278.5 53.5q129 0 218 -65.5t142 -192.5q78 141 188.5 199.5t243.5 58.5q109 0 188 -58.5t130 -149.5t75.5 -203.5t24.5 -219.5h-739q-2 -12 -2 -28.5v-65.5q0 -115 19.5 -229.5t60.5 -206.5t106.5 -149.5t157.5 -57.5 q59 0 115.5 56.5t115.5 137.5l53 -24q-37 -53 -73.5 -98t-80.5 -78t-99.5 -50.5t-131.5 -17.5q-123 0 -218 62.5t-160 171.5q-72 -127 -190 -180.5t-277 -53.5q-231 0 -336 180.5t-105 556.5zM281 735q0 -342 76.5 -521t234.5 -179q66 0 114 29.5t78.5 102.5t46 194.5 t15.5 306.5q0 143 -25.5 265t-69.5 210t-105.5 137t-135.5 49q-57 0 -100 -30.5t-72 -100.5t-43 -183.5t-14 -279.5zM1108 862h563q0 78 -13 161t-42 152.5t-78 113.5t-119 44q-76 0 -130 -47t-91 -117.5t-58.5 -152.5t-31.5 -154z" />
<glyph unicode="&#x178;" horiz-adv-x="911" d="M10 0zM10 1733h238l244 -656l307 656h102l-342 -721v-1012h-227v918zM174 1981q0 43 30 73.5t75 30.5q41 0 71.5 -30.5t30.5 -73.5q0 -41 -30.5 -72t-71.5 -31q-45 0 -75 31t-30 72zM527 1981q0 43 30.5 73.5t75.5 30.5q41 0 72 -30.5t31 -73.5q0 -41 -31 -72t-72 -31 q-45 0 -75.5 31t-30.5 72z" />
<glyph unicode="&#x2c6;" horiz-adv-x="567" d="M31 1583q0 47 71 82l181 84l180 -84q74 -35 74 -82q0 -43 -48 -43q-35 0 -92 40t-114 87q-59 -49 -114.5 -88t-90.5 -39q-47 0 -47 43z" />
<glyph unicode="&#x2dc;" horiz-adv-x="704" d="M47 1563q4 90 54.5 138t129.5 48q45 0 81 -22.5t66 -49t55.5 -49t51.5 -22.5q29 0 61 23.5t40 94.5h63q-4 -88 -58 -136t-132 -48q-45 0 -81 22.5t-65.5 49t-56.5 49t-53 22.5q-29 0 -51.5 -24.5t-38.5 -95.5h-66z" />
<glyph unicode="&#x2000;" horiz-adv-x="1042" />
<glyph unicode="&#x2001;" horiz-adv-x="2085" />
<glyph unicode="&#x2002;" horiz-adv-x="1042" />
<glyph unicode="&#x2003;" horiz-adv-x="2085" />
<glyph unicode="&#x2004;" horiz-adv-x="695" />
<glyph unicode="&#x2005;" horiz-adv-x="521" />
<glyph unicode="&#x2006;" horiz-adv-x="347" />
<glyph unicode="&#x2007;" horiz-adv-x="347" />
<glyph unicode="&#x2008;" horiz-adv-x="260" />
<glyph unicode="&#x2009;" horiz-adv-x="417" />
<glyph unicode="&#x200a;" horiz-adv-x="115" />
<glyph unicode="&#x2010;" horiz-adv-x="733" d="M72 705v118h585v-118h-585z" />
<glyph unicode="&#x2011;" horiz-adv-x="733" d="M72 705v118h585v-118h-585z" />
<glyph unicode="&#x2012;" horiz-adv-x="733" d="M72 705v118h585v-118h-585z" />
<glyph unicode="&#x2013;" horiz-adv-x="1161" d="M68 705v118h1013v-118h-1013z" />
<glyph unicode="&#x2014;" horiz-adv-x="1914" d="M68 705v118h1790v-118h-1790z" />
<glyph unicode="&#x2018;" horiz-adv-x="317" d="M33 1620q0 37 17.5 75t46 71.5t62 60.5t68.5 43q-57 -82 -57 -152q0 -123 125 -123q-49 -111 -137 -110q-55 0 -90 40t-35 95z" />
<glyph unicode="&#x2019;" horiz-adv-x="317" d="M23 1751q51 111 139 111q53 0 88 -40t35 -96q0 -35 -18.5 -73.5t-46 -73.5t-61.5 -62.5t-67 -41.5q55 80 55 153q1 123 -124 123z" />
<glyph unicode="&#x201a;" horiz-adv-x="317" d="M23 145q51 111 139 111q53 0 88 -40t35 -95q0 -35 -18.5 -74t-46 -73.5t-61.5 -62.5t-67 -42q55 80 55 154q1 122 -124 122z" />
<glyph unicode="&#x201c;" horiz-adv-x="587" d="M49 1634q0 33 16.5 70t44 71.5t61.5 64.5t71 46q-57 -78 -58 -153q0 -106 97 -123v24q0 33 17 70t45 71.5t62.5 64.5t69.5 46q-55 -80 -55 -153q0 -123 123 -123q-49 -109 -137 -109q-41 0 -71 19.5t-44 54.5q-47 -74 -121 -74q-53 0 -87 39t-34 94z" />
<glyph unicode="&#x201d;" horiz-adv-x="587" d="M43 1774q49 111 137 110q39 0 69 -21.5t44 -56.5q49 78 121 78q55 0 90 -40t35 -93q0 -35 -17.5 -72t-45 -71.5t-62.5 -64.5t-70 -46q55 82 55 156q0 109 -98 119q4 -6 4 -21q0 -35 -17.5 -72t-45 -71.5t-62.5 -64.5t-69 -46q55 82 55 156q0 121 -123 121z" />
<glyph unicode="&#x201e;" horiz-adv-x="587" d="M43 150q49 111 137 110q39 0 69 -21.5t44 -56.5q49 78 121 78q55 0 90 -40t35 -93q0 -35 -17.5 -72t-45 -71.5t-62.5 -64.5t-70 -46q55 82 55 156q0 109 -98 118q4 -6 4 -20q0 -35 -17.5 -72t-45 -71.5t-62.5 -64.5t-69 -46q55 82 55 156q0 121 -123 121z" />
<glyph unicode="&#x2022;" horiz-adv-x="727" d="M47 936q0 66 24.5 124t67.5 101t100 68.5t123 25.5t124.5 -25.5t101.5 -68.5t68.5 -101.5t25.5 -123.5q0 -66 -25.5 -123t-68.5 -100t-101.5 -67.5t-124.5 -24.5t-123 24.5t-100 67.5t-67.5 100t-24.5 123z" />
<glyph unicode="&#x2026;" horiz-adv-x="2205" d="M49 113q0 55 39 94t92 39q57 0 94 -39t37 -94t-36.5 -93t-94.5 -38q-53 0 -92 37.5t-39 93.5zM969 113q0 55 39 94t92 39q57 0 94 -39t37 -94t-37 -93t-94 -38q-53 0 -92 37.5t-39 93.5zM1888 113q0 55 39 94t92 39q57 0 94 -39t37 -94t-36.5 -93t-94.5 -38 q-53 0 -92 37.5t-39 93.5z" />
<glyph unicode="&#x202f;" horiz-adv-x="417" />
<glyph unicode="&#x205f;" horiz-adv-x="521" />
<glyph unicode="&#x20ac;" horiz-adv-x="1210" d="M59 666l23 90h45v188h-68l23 88h49q8 164 48 297t118 226.5t194.5 144.5t280.5 51q90 0 163 -37t132 -96l-33 -92q-23 35 -57.5 64.5t-74.5 52t-83 35t-82 12.5q-160 0 -255 -172t-117 -486h489l-33 -88h-461v-74v-57.5t2 -56.5h392l-35 -90h-348q12 -147 42.5 -265 t77 -201t104.5 -127t126 -44q47 0 95 19.5t92 52t83 74.5t70 87h86q-78 -156 -207 -226.5t-297 -70.5q-246 0 -365.5 173t-146.5 528h-72z" />
<glyph unicode="&#x2122;" horiz-adv-x="1312" d="M100 1606v127h467v-127h-161v-523h-140v523h-166zM625 1085v650h157l123 -336l123 336h152v-652h-131v359l-142 -361l-153 375v-371h-129z" />
<glyph unicode="&#x25fc;" horiz-adv-x="1382" d="M0 0v1382h1382v-1382h-1382z" />
</font>
</defs>
</svg>
