<?xml version="1.0" standalone="no"?>
<!DOCTYPE svg PUBLIC "-//W3C//DTD SVG 1.1//EN" "http://www.w3.org/Graphics/SVG/1.1/DTD/svg11.dtd" >
<svg xmlns="http://www.w3.org/2000/svg">
<metadata></metadata>
<defs>
<font id="dream_orphansitalic" horiz-adv-x="1144" >
<font-face units-per-em="2048" ascent="1675" descent="-373" />
<missing-glyph horiz-adv-x="479" />
<glyph horiz-adv-x="0" />
<glyph unicode="&#xd;" horiz-adv-x="1011" />
<glyph unicode=" "  horiz-adv-x="479" />
<glyph unicode="&#x09;" horiz-adv-x="479" />
<glyph unicode="&#xa0;" horiz-adv-x="479" />
<glyph unicode="!" horiz-adv-x="370" d="M76 86q0 63 42 109.5t95 46.5q41 0 67.5 -30t26.5 -73q0 -33 -11 -61.5t-29.5 -50t-43 -33.5t-51.5 -12q-43 0 -69.5 29.5t-26.5 74.5zM213 410q14 158 24.5 266t16.5 183t9 125t6 92t6.5 84t9.5 102q6 82 8 144t2 110q0 70 -2 105.5t-2 51.5q0 29 15.5 52.5t42 41 t59 27.5t67.5 10q55 0 91 -25.5t36 -70.5q0 -10 -7 -27.5t-23.5 -64.5t-42 -137t-64.5 -244q-18 -80 -30.5 -127t-20.5 -85t-17.5 -78t-25 -105.5t-39 -167t-60.5 -262.5h-59z" />
<glyph unicode="&#x22;" horiz-adv-x="493" d="M289 1692q0 59 32.5 97t79.5 38q68 0 68 -70q0 -49 -27 -102q-23 -47 -37 -88t-23 -81t-17.5 -78t-16.5 -75h-55q4 47 9 97.5t5 97.5q0 41 -9 83t-9 81zM553 1694q0 59 32.5 96t80.5 37q68 0 67 -70q0 -49 -26 -102q-23 -47 -37.5 -88t-24.5 -80t-17 -77t-16 -77h-55 q4 47 8 96.5t4 96.5q0 41 -8 83t-8 85z" />
<glyph unicode="#" horiz-adv-x="888" d="M106 545l35 119h185l90 352h-191l33 119h188l146 571h82l-148 -571h222l147 571h80l-146 -571h197l-35 -119h-192l-88 -352h196l-35 -119h-196l-135 -545h-82l139 545h-225l-135 -545h-80l139 545h-191zM408 664h221l88 352h-221z" />
<glyph unicode="$" horiz-adv-x="782" d="M100 367l78 51q35 -147 158 -178l96 602q-61 43 -104 77.5t-69 69.5t-37 72t-11 80q0 168 84 269t246 136l26 160h23l-23 -156q23 4 45.5 6.5t44.5 2.5h27q16 0 21 -5l24 152h23l-25 -156q125 -25 186 -157l-63 -52q-45 106 -135 132l-86 -566q111 -78 159 -150.5 t48 -172.5q0 -340 -324 -416l-25 -168h-22l24 164q-25 -4 -49 -6t-47 -2h-22.5t-22.5 2l-22 -158h-23l21 160q-166 31 -224 207zM362 238q2 -2 19 -2q37 0 65.5 6t57.5 18l71 459q-39 53 -122 108zM416 1198q0 -88 47 -154l61 398q-47 -31 -77.5 -91.5t-30.5 -152.5z M483 1018q16 -23 40 -48.5t83 -47.5l88 557q-6 2 -22 2q-59 0 -119 -27zM530 276q47 31 74 98.5t27 157.5t-37 158z" />
<glyph unicode="%" horiz-adv-x="1339" d="M197 1169q0 117 32.5 216.5t92 173t139.5 115.5t176 42q109 0 163 -81t54 -216q0 -121 -37 -218t-98.5 -167.5t-139 -108.5t-157.5 -38q-113 0 -169 74.5t-56 207.5zM297 0l858 1706h117l-869 -1706h-106zM328 1174q0 -203 151 -203q43 0 87 33.5t79 90t56.5 131 t21.5 156.5q0 111 -42 180.5t-114 69.5q-49 0 -93 -43t-75.5 -109.5t-51 -147.5t-19.5 -158zM690 252q0 115 33 214t91 173t138 116t176 42q106 0 164 -80t58 -215q0 -121 -38 -219.5t-99.5 -168t-139.5 -108.5t-160 -39q-113 0 -168 76t-55 209zM823 256q0 -205 150 -205 q43 0 86 34t77.5 90t56 132t21.5 160q0 111 -41.5 178.5t-113.5 67.5q-49 0 -92 -43t-75 -109.5t-50.5 -147.5t-18.5 -157z" />
<glyph unicode="&#x26;" d="M113 375q0 96 23.5 183t66.5 155.5t106.5 118t143.5 69.5q-35 6 -63 29.5t-48 62.5t-30.5 89.5t-10.5 105.5q0 119 41 217t110.5 169t157.5 110.5t185 39.5q152 0 225 -90l-45 -41q-68 51 -144 52q-72 0 -136 -38t-113.5 -103.5t-78 -152.5t-28.5 -186q0 -61 13.5 -114.5 t40 -92t66.5 -61.5t91 -23q123 0 209 83t131 255l-51 -331h155l-8 -47h-153l-84 -525q-4 -16 -4 -34.5v-34.5q0 -88 32.5 -152.5t94.5 -64.5q43 0 114 32l11 -49q-123 -41 -179 -41q-78 0 -134 46t-91 104q-35 -39 -63.5 -68t-62.5 -47t-80 -26.5t-115 -8.5q-68 0 -122.5 31 t-93 86t-59 130t-20.5 163zM334 371q0 -61 11 -118.5t33.5 -103t55.5 -72t76 -26.5q31 0 55.5 5t47 16.5t47 29t53.5 41.5q-10 23 -14.5 58t-4.5 75q0 35 3 66t8 59l65 433h-104q-68 0 -128.5 -36t-105.5 -98.5t-71.5 -146.5t-26.5 -182z" />
<glyph unicode="'" horiz-adv-x="198" d="M256 1745q61 111 135 110q43 0 66.5 -30.5t23.5 -77.5q0 -37 -20.5 -79t-51 -79t-67.5 -67.5t-70 -46.5q76 100 76 182q0 88 -92 88z" />
<glyph unicode="(" horiz-adv-x="415" d="M37 2q0 39 6 80l190 1241q14 100 55.5 187t98.5 154t129 106.5t150 50.5l2 -25q-55 -10 -108.5 -53t-97.5 -105.5t-75 -136.5t-41 -147l-190 -1241q-4 -29 -9.5 -55.5t-5.5 -51.5q0 -176 48.5 -260t170.5 -84l-6 -14q-23 -4 -39 -8.5t-32 -4.5q-53 0 -97.5 30t-78 80 t-52 116.5t-18.5 140.5z" />
<glyph unicode=")" horiz-adv-x="415" d="M-23 -338q133 0 222.5 109.5t124.5 341.5l192 1241q6 39 6 84q0 63 -13 123.5t-38 109.5t-60.5 82t-78.5 43l10 25q129 -16 206 -123t77 -268q0 -27 -2 -53.5t-7 -53.5l-190 -1241q-12 -86 -51 -167t-92.5 -142.5t-115 -99.5t-118.5 -38q-16 0 -33.5 4.5t-35.5 8.5z" />
<glyph unicode="*" horiz-adv-x="583" d="M215 1376l14 129l281 -73l-107 268l129 29l15 -289l221 182l68 -117l-271 -98l242 -156l-88 -96l-180 221l-74 -276l-121 55l160 238z" />
<glyph unicode="+" horiz-adv-x="579" d="M117 817v90h243v252h105v-252h252v-90h-252v-270h-105v270h-243z" />
<glyph unicode="," horiz-adv-x="280" d="M43 133q55 109 137 109q41 0 64.5 -31t23.5 -76q0 -35 -19.5 -76t-50 -78.5t-67.5 -68.5t-70 -47q35 49 53.5 93t18.5 89q0 86 -90 86z" />
<glyph unicode="-" horiz-adv-x="634" d="M170 694l16 117h508l-18 -117h-506z" />
<glyph unicode="." horiz-adv-x="317" d="M57 88q0 63 43.5 108.5t94.5 45.5q41 0 67.5 -31t26.5 -76q0 -31 -11.5 -58.5t-30 -49t-43 -33.5t-50.5 -12q-43 0 -70 30.5t-27 75.5z" />
<glyph unicode="/" horiz-adv-x="694" d="M-25 -184l875 1892h104l-866 -1892h-113z" />
<glyph unicode="0" horiz-adv-x="1206" d="M127 453q0 178 55.5 334.5t154.5 272.5t238.5 183.5t307.5 67.5q190 0 290.5 -127t100.5 -355q0 -211 -72 -367.5t-182.5 -261t-242.5 -155.5t-253 -51q-199 0 -298 119.5t-99 339.5zM324 463q0 -188 73.5 -294t220.5 -106q104 0 190.5 74t148 182.5t95 234.5t33.5 230 q0 96 -20.5 178t-61 141.5t-100 93.5t-137.5 34q-70 0 -129 -35t-108.5 -94.5t-87.5 -136t-64.5 -162.5t-39.5 -173t-13 -167z" />
<glyph unicode="1" horiz-adv-x="387" d="M127 2l182 1169q2 8 2 25q0 47 -30.5 63.5t-79.5 20.5l8 39l336 113l-221 -1430h-197z" />
<glyph unicode="2" horiz-adv-x="856" d="M31 0q162 152 268.5 254t155.5 156q88 98 147.5 183t95 160.5t50 146.5t14.5 144q0 49 -9.5 94.5t-31 80t-57 55t-91.5 20.5q-111 0 -231 -114l-29 28q27 41 68 74t90 55.5t102.5 34.5t108.5 12q82 0 136 -24.5t87 -66.5t46.5 -96t13.5 -112q0 -96 -33 -195t-115 -213 t-224 -248t-360 -300h623l-18 -129h-807z" />
<glyph unicode="3" horiz-adv-x="739" d="M20 -328q113 37 215.5 98.5t181.5 144.5t126 186.5t47 226.5q0 59 -14.5 110t-41 90t-64.5 60.5t-83 21.5q-18 0 -32.5 -2t-30.5 -8l8 55q72 20 132 57.5t105 87.5t70 113.5t25 135.5q0 49 -14.5 93t-41 76.5t-62.5 52t-79 19.5q-102 0 -238 -110l-30 28q57 82 158.5 129 t211.5 47q123 0 200 -68.5t77 -191.5q0 -72 -23.5 -139t-63.5 -126.5t-95.5 -106.5t-116.5 -74q94 -16 154.5 -93t60.5 -186q0 -12 -1 -25.5t-3 -25.5q-27 -176 -105 -301t-180 -210t-219 -133t-221 -69z" />
<glyph unicode="4" horiz-adv-x="923" d="M2 0l991 1440l-211 -1364h113l-10 -76h-113l-57 -365h-195l58 365h-576zM172 76h414l123 774z" />
<glyph unicode="5" horiz-adv-x="716" d="M55 -365l11 74q92 43 170.5 119t137 171t91.5 203.5t33 221.5q0 98 -21.5 193.5t-61.5 178.5t-96.5 152.5t-125.5 116.5l163 293h559l-18 -119h-535q166 -203 250 -388t84 -355q0 -94 -40 -215t-119.5 -242t-200.5 -228.5t-281 -175.5z" />
<glyph unicode="6" horiz-adv-x="849" d="M109 391q0 113 20.5 238t61 252t102 247.5t143.5 223t184.5 180.5t225.5 119v-60q-111 -43 -192 -110.5t-142 -165.5t-106.5 -231.5t-81.5 -305.5q127 168 294 168q141 0 212 -94t71 -252q0 -145 -37 -262t-100.5 -200t-149.5 -128t-182 -45q-324 0 -323 426zM272 367 q0 -158 46.5 -251t140.5 -93q59 0 109 37.5t86 103t56.5 156t20.5 192.5q0 139 -53 217t-162 78q-113 0 -197 -102q-12 -31 -20 -73t-14 -89t-9.5 -93.5t-3.5 -82.5z" />
<glyph unicode="7" horiz-adv-x="841" d="M125 -365l721 1539h-643l28 184h807l-815 -1723h-98z" />
<glyph unicode="8" horiz-adv-x="946" d="M102 324q0 195 105.5 346t286.5 237q-217 152 -218 365q0 88 37 168t97.5 138t140.5 93t166 35q74 0 137.5 -19.5t110.5 -54.5t73.5 -86t26.5 -114q0 -131 -88 -242t-246 -197q115 -78 177.5 -204.5t62.5 -274.5q0 -125 -41 -226.5t-110.5 -173t-161 -110.5t-191.5 -39 q-188 0 -276.5 99.5t-88.5 259.5zM242 322q0 -133 60 -213t171 -80q74 0 139.5 38.5t115.5 101t79 142.5t29 160q0 133 -78 238.5t-213 171.5q-68 -39 -123 -99.5t-95 -134.5t-62.5 -157.5t-22.5 -167.5zM424 1409q0 -55 19.5 -110.5t55.5 -106.5t84 -95t105 -75 q49 31 95 74t81 95t55.5 111.5t20.5 120.5q0 104 -62.5 161.5t-166.5 57.5q-135 0 -211 -57t-76 -176z" />
<glyph unicode="9" horiz-adv-x="849" d="M141 -303q104 31 195.5 108.5t166.5 187t130 246t86 283.5q-109 -150 -266 -149q-74 0 -130.5 29.5t-93 81t-56 121t-19.5 151.5q0 147 38.5 264t105.5 197.5t152 123.5t177 43q319 0 319 -413q0 -125 -21.5 -260.5t-64.5 -269.5t-108.5 -261t-154.5 -233.5 t-202.5 -187.5t-251.5 -124zM324 844q0 -70 14 -130.5t43 -105.5t73 -70.5t105 -25.5q96 0 170 86q23 86 35 183.5t12 179.5q0 166 -47 265t-141 99q-57 0 -105.5 -38t-84.5 -103.5t-55 -153.5t-19 -186z" />
<glyph unicode=":" horiz-adv-x="327" d="M63 86q0 63 41.5 109.5t94.5 46.5q41 0 67.5 -31t26.5 -76q0 -61 -41 -107t-94 -46q-43 0 -69 29.5t-26 74.5zM170 776q0 63 41 110.5t94 47.5q43 0 69.5 -32t26.5 -77q0 -63 -43 -108t-94 -45q-43 0 -68.5 28.5t-25.5 75.5z" />
<glyph unicode=";" horiz-adv-x="288" d="M45 133q55 109 137 109q41 0 64.5 -31t23.5 -76q0 -35 -19.5 -76t-50 -78.5t-67.5 -68.5t-70 -47q35 47 53.5 93t18.5 89q0 86 -90 86zM147 776q0 63 40.5 110.5t95.5 47.5q41 0 68.5 -32t27.5 -79q0 -31 -12.5 -58.5t-33 -48t-44 -32.5t-47.5 -12q-41 0 -68 28.5 t-27 75.5z" />
<glyph unicode="&#x3c;" horiz-adv-x="452" d="M135 821l303 293l152 45l-316 -305l215 -293l-139 -41z" />
<glyph unicode="=" horiz-adv-x="548" d="M172 711l12 69h465l-10 -69h-467zM205 930l10 69h469l-10 -69h-469z" />
<glyph unicode="&#x3e;" horiz-adv-x="452" d="M121 518l315 303l-217 293l141 41l215 -301l-301 -293z" />
<glyph unicode="?" horiz-adv-x="745" d="M244 88q0 31 12 59.5t31.5 49t44 33t49.5 12.5q43 0 68.5 -31t25.5 -76q0 -61 -40 -107t-95 -46q-41 0 -68.5 30.5t-27.5 75.5zM256 1548q68 94 177.5 135t225.5 41q141 0 213 -76.5t72 -193.5q0 -16 -1 -31.5t-3 -31.5q-10 -68 -53 -140.5t-101.5 -146.5t-124 -146.5 t-122 -140t-96.5 -127t-48 -108.5q0 -16 10.5 -71.5t34.5 -150.5l-61 -20l-90 301q-6 18 -6 45q0 45 34.5 103.5t87 125t114 136t113.5 136t87 127t35 107.5q0 43 -17.5 84t-45 73t-63.5 50.5t-73 18.5q-135 0 -266 -152z" />
<glyph unicode="@" horiz-adv-x="1384" d="M147 598q0 150 34 291t93.5 266t139.5 230.5t173 180t194.5 116.5t201.5 42q98 0 192.5 -29.5t167 -95t116.5 -173t44 -261.5q0 -117 -28.5 -248t-86 -243.5t-141.5 -186t-194 -73.5q-61 0 -97 31.5t-51 105.5q-27 -59 -75 -98t-117 -39q-76 0 -115 87t-39 226 q0 94 18.5 192.5t53.5 177.5t87 129t118 50t115.5 -34t60.5 -103l37 106l61 -8l-94 -602q-2 -10 -2 -17.5v-15.5q0 -41 15 -68.5t44 -27.5q41 0 89 31.5t90 102.5t71 183.5t29 272.5q0 145 -38 246.5t-99.5 164t-138.5 91t-154 28.5q-74 0 -148 -36t-141.5 -99.5 t-127 -151.5t-102.5 -190t-67.5 -217t-24.5 -232q0 -143 35 -263t95.5 -207t141.5 -135t175 -48q37 0 73.5 8t73.5 19l-10 -58q-47 -29 -105.5 -40t-115.5 -11q-117 0 -214.5 45t-167 128t-107.5 200t-38 260zM709 829q0 -55 7 -107t20.5 -91t32.5 -62.5t44 -23.5 q12 0 29.5 16.5t34 41t29 51t16.5 46.5l45 293q2 8 2 25q0 25 -6.5 53.5t-17.5 52t-27.5 40t-38.5 16.5q-35 0 -67 -26t-54.5 -73t-35.5 -111.5t-13 -140.5z" />
<glyph unicode="A" horiz-adv-x="823" d="M29 0l546 1706h218v-1706h-195l-12 393h-355l-131 -393h-71zM252 442h334v1071z" />
<glyph unicode="B" horiz-adv-x="882" d="M63 0l263 1706h415q115 0 177.5 -88t62.5 -236q0 -88 -19.5 -167.5t-56.5 -145t-88 -114t-112 -72.5q51 -6 91 -36t67.5 -75t41 -102.5t13.5 -118.5q0 -133 -43.5 -235.5t-120 -172t-182 -106.5t-230.5 -37h-279zM266 47h92q78 0 143.5 42t114 116t75 174t26.5 215 q0 235 -189 235h-2h-139zM393 874h162q45 0 89 37t78 103.5t55.5 157t21.5 198.5q0 129 -48.5 208t-142.5 79h-94z" />
<glyph unicode="C" horiz-adv-x="983" d="M141 446q0 88 10.5 193.5t30.5 232.5q31 207 86.5 367t138 267.5t197.5 162.5t268 55q115 0 189 -70.5t113 -197.5l-82 -22q-10 47 -36 89t-59.5 72.5t-75.5 49t-85 18.5q-90 0 -176.5 -88t-156 -243.5t-111.5 -367.5t-42 -460q0 -215 54.5 -345t158.5 -130q41 0 86 19.5 t88 51t84 72.5t74 86h76q-94 -154 -216 -223.5t-268 -69.5q-176 0 -261 111.5t-85 369.5z" />
<glyph unicode="D" horiz-adv-x="1036" d="M63 0l263 1706h477q82 0 145.5 -41t107.5 -115.5t66.5 -179t22.5 -233.5q0 -63 -6 -131t-17 -140q-39 -248 -98 -414.5t-149.5 -267t-218.5 -142.5t-304 -42h-289zM264 47h189q168 0 289.5 208t183.5 611q10 68 15 129.5t5 118.5q0 121 -21.5 221.5t-64.5 172 t-106.5 110.5t-145.5 39h-96z" />
<glyph unicode="E" horiz-adv-x="815" d="M63 0l263 1706h753l-8 -49h-557l-119 -776h322l-8 -47h-322l-121 -787h555l-6 -47h-752z" />
<glyph unicode="F" horiz-adv-x="841" d="M63 0l263 1706h751l-8 -49h-557l-123 -801h391l-6 -47h-393l-123 -809h-195z" />
<glyph unicode="G" horiz-adv-x="1011" d="M139 408q0 92 11.5 207.5t33.5 256.5q31 207 85.5 367t137 267.5t197.5 162.5t268 55q104 0 174 -70.5t107 -197.5l-80 -22q-23 96 -87 162.5t-150 66.5q-94 0 -182.5 -94t-157 -258t-109.5 -384t-41 -474q0 -201 46 -311.5t136 -110.5q47 0 99.5 34.5t95.5 97 t71.5 149.5t28.5 194q0 53 -23.5 74.5t-82.5 29.5l4 39h295l-49 -338q-4 -29 -7.5 -58.5t-3.5 -57.5q0 -98 23 -166l-70 -41q-14 35 -25.5 89t-11.5 107v19.5t2 19.5q-29 -49 -63.5 -95t-83.5 -82t-115.5 -58.5t-154.5 -22.5q-164 0 -241 100.5t-77 342.5z" />
<glyph unicode="H" horiz-adv-x="972" d="M63 0l263 1706h198l-127 -803h453l125 803h199l-265 -1706h-198l131 854h-451l-133 -854h-195z" />
<glyph unicode="I" horiz-adv-x="323" d="M61 0l263 1706h198l-264 -1706h-197z" />
<glyph unicode="J" horiz-adv-x="823" d="M49 266q0 35 6 66l11 86h67l-14 -94q-2 -10 -3 -21.5t-1 -21.5q0 -49 16 -95.5t47 -83t73 -58t93 -21.5q55 0 101.5 24.5t82 67.5t60 99t35.5 118l213 1374h194l-196 -1274q-18 -111 -65.5 -198t-116 -147t-152.5 -91t-174 -31q-61 0 -112.5 23.5t-88.5 63.5t-56.5 95.5 t-19.5 118.5z" />
<glyph unicode="K" horiz-adv-x="931" d="M61 0l263 1706h198l-116 -748l684 748h79l-548 -598l284 -1108h-198l-269 907l-49 -53l-131 -854h-197z" />
<glyph unicode="L" horiz-adv-x="665" d="M61 0l263 1706h196l-258 -1659h408l-8 -47h-601z" />
<glyph unicode="M" d="M61 0l263 1706h157l195 -1167l543 1167h129l-265 -1706h-194l201 1294l-541 -1159l-209 1159l-199 -1294h-80z" />
<glyph unicode="N" horiz-adv-x="888" d="M61 2l263 1704h172l331 -1161l181 1161h82l-269 -1741h-26l-428 1477l-224 -1440h-82z" />
<glyph unicode="O" d="M143 451q0 88 10.5 192.5t30.5 228.5q33 209 88.5 369t141.5 267.5t206.5 161.5t286.5 54q178 0 266.5 -127t88.5 -376q0 -72 -7.5 -152t-21.5 -172q-39 -248 -97.5 -424t-146.5 -288.5t-210 -166t-285 -53.5q-176 0 -263.5 112.5t-87.5 373.5zM354 508q0 -109 13.5 -198 t41 -151.5t67.5 -97t93 -34.5q88 0 174 91t153 250.5t107.5 376t40.5 465.5q0 211 -52 330t-156 119q-86 0 -172 -86t-155 -239.5t-112 -364.5t-43 -461z" />
<glyph unicode="P" horiz-adv-x="837" d="M61 0l263 1706h485q49 0 92 -25.5t74 -66.5t48 -94.5t17 -108.5q0 -10 -1 -22.5t-3 -24.5l-39 -252q-12 -84 -59 -153.5t-117.5 -118.5t-160 -76t-187.5 -27h-104l-113 -737h-195zM377 786h137q39 0 86 31t88 75t70.5 96t36.5 95l41 252q2 12 3 23.5t1 23.5 q0 53 -16.5 103.5t-47.5 88.5t-71.5 60.5t-90.5 22.5h-104z" />
<glyph unicode="Q" horiz-adv-x="1146" d="M135 444q0 90 10.5 195.5t30.5 232.5q33 209 88 369t141.5 267.5t208 161.5t285.5 54q180 0 268 -128t88 -379q0 -72 -6 -152t-20 -168q-31 -193 -69 -331t-90 -236.5t-119.5 -163t-155.5 -107.5q33 -31 66.5 -64.5t68.5 -63t71.5 -52t77.5 -29.5q-39 -16 -74.5 -23 t-68.5 -7q-162 0 -248 200q-49 -29 -102.5 -42t-106.5 -13q-174 0 -259 111.5t-85 367.5zM346 496q0 -106 13.5 -192.5t39 -148t64.5 -95t92 -33.5q90 0 177 91t154.5 249.5t109.5 373.5t42 465q0 211 -53.5 332t-159.5 121q-88 0 -174 -87t-153.5 -242.5t-109.5 -368.5 t-42 -465z" />
<glyph unicode="R" horiz-adv-x="968" d="M61 0l263 1706h471q53 0 96 -25.5t72.5 -70.5t45 -106.5t15.5 -135.5q0 -90 -19.5 -175t-55.5 -154.5t-88 -120t-116 -70.5q166 -31 166 -242q0 -23 -2 -47t-6 -53l-53 -330q-4 -16 -4 -29.5v-27.5q0 -113 86 -142q-31 -8 -64 -8q-111 0 -163 45t-52 119q0 10 1 21.5 t3 21.5l62 416q2 10 2 19.5v19.5q0 37 -10.5 72.5t-27.5 63.5t-42 45t-51 17h-205l-127 -829h-197zM391 874h203q47 0 89 39t72.5 103.5t48 147.5t17.5 171q0 143 -58 232.5t-165 89.5h-86z" />
<glyph unicode="S" horiz-adv-x="794" d="M66 211l77 51q4 -43 20.5 -82t43 -69.5t62.5 -48t79 -17.5q41 0 89 21.5t88 65.5t66.5 109.5t26.5 155.5q0 113 -19 192t-62 134q-49 61 -97.5 124.5t-86.5 130t-60.5 139.5t-22.5 153q0 100 31 184t85 143.5t130 93t168 33.5q61 0 105.5 -13t76 -37.5t55 -58.5t44.5 -77 l-70 -51q-29 72 -73 115t-124 43q-49 0 -94 -19.5t-78.5 -58.5t-54 -95.5t-20.5 -132.5q0 -96 23.5 -166.5t61 -132t86 -121t97.5 -133.5q25 -35 43 -71.5t30.5 -80.5t18.5 -99.5t6 -126.5q0 -205 -122 -324t-351 -119q-111 0 -183.5 63.5t-94.5 182.5z" />
<glyph unicode="T" horiz-adv-x="765" d="M262 1616l14 90h740l-15 -90q-18 41 -90 41h-172l-256 -1657h-194l254 1657h-187q-10 0 -24.5 -4t-28.5 -10.5t-25.5 -13.5t-15.5 -13z" />
<glyph unicode="U" horiz-adv-x="880" d="M94 213q0 18 2 38.5t6 43.5l222 1411h196l-215 -1382q-2 -10 -3 -21.5t-1 -21.5q0 -53 18.5 -98.5t50 -78t75.5 -52t94 -19.5q98 0 163.5 72.5t83.5 189.5l220 1411h81l-208 -1348q-23 -135 -76 -213.5t-124 -118.5t-149.5 -50.5t-148.5 -10.5q-287 0 -287 248z" />
<glyph unicode="V" horiz-adv-x="770" d="M268 0v1706h207v-1499l486 1499h73l-549 -1706h-217z" />
<glyph unicode="W" horiz-adv-x="1116" d="M213 0l49 1706h195l-49 -1499l245 678l-35 821h199v-406l137 406h74l-192 -535l36 -964l439 1499h73l-493 -1706h-197l-28 723l-256 -723h-197z" />
<glyph unicode="X" horiz-adv-x="866" d="M33 0l461 797l-162 909h209l110 -635l365 635h88l-432 -750l168 -956h-205l-123 682l-393 -682h-86z" />
<glyph unicode="Y" horiz-adv-x="790" d="M274 1706h205l109 -645l368 645h88l-405 -711l-156 -995h-194l137 903z" />
<glyph unicode="Z" horiz-adv-x="870" d="M53 0l826 1642h-594l10 64h799l-830 -1636h606l-10 -70h-807z" />
<glyph unicode="[" horiz-adv-x="380" d="M2 -365l338 2186h258l-10 -60h-168l-324 -2066h172l-10 -60h-256z" />
<glyph unicode="\" horiz-adv-x="694" d="M268 1708h101l290 -1892h-116z" />
<glyph unicode="]" horiz-adv-x="380" d="M2 -365l8 60h172l320 2066h-170l8 60h258l-340 -2186h-256z" />
<glyph unicode="^" horiz-adv-x="806" d="M231 1335l355 340h153l244 -340h-223l-187 246l-256 -246h-86z" />
<glyph unicode="_" horiz-adv-x="1120" d="M-63 -252l20 119h1165l-20 -119h-1165z" />
<glyph unicode="`" horiz-adv-x="401" d="M236 1653q0 35 21.5 52t55.5 17q16 -4 37 -8t43 -20l193 -131l-35 -47l-262 86q-27 8 -40 17t-13 34z" />
<glyph unicode="a" horiz-adv-x="905" d="M102 389q0 205 42 386t116 316.5t175.5 214t221.5 78.5q78 0 131.5 -49t75.5 -135l103 184l84 -67l-205 -1317h-135l-9 209q-45 -111 -139 -177.5t-201 -66.5q-131 0 -195.5 109.5t-64.5 314.5zM293 356q0 -154 41 -222t119 -68q45 0 89 30.5t78.5 81.5t59.5 114.5 t35 131.5l92 598q2 10 2 19.5v19.5q0 39 -10.5 86t-30.5 87t-50 66.5t-69 26.5q-117 0 -198.5 -175t-128.5 -486q-16 -92 -22.5 -169t-6.5 -141z" />
<glyph unicode="b" horiz-adv-x="905" d="M59 0l260 1673l205 70l-90 -594q51 115 130 175t184 60q129 0 195.5 -108.5t66.5 -310.5q0 -193 -41 -373t-114 -319.5t-170 -223.5t-210 -84q-84 0 -135 48t-61 143l-66 -156h-154zM301 287q0 -43 13.5 -90t38 -86t57 -65t71.5 -26q53 0 112.5 74t109 203t82 306 t32.5 384q0 135 -36 214t-126 79q-45 0 -86 -28.5t-75.5 -76t-59 -109.5t-35.5 -130l-96 -617q-2 -8 -2 -16v-16z" />
<glyph unicode="c" horiz-adv-x="835" d="M119 457q0 229 49 401t132 288t192.5 173t232.5 57q102 0 158.5 -41t72.5 -145l-65 -27q-16 70 -53 112t-107 42q-82 0 -143.5 -42t-108.5 -122t-80.5 -197.5t-58.5 -271.5q-10 -66 -14 -126t-4 -114q0 -186 57 -295.5t176 -109.5q49 0 108.5 55.5t122.5 134.5l39 -24 q-37 -53 -71.5 -96t-76.5 -76t-96.5 -50.5t-127.5 -17.5q-82 0 -144.5 35t-104.5 99.5t-63.5 155.5t-21.5 202z" />
<glyph unicode="d" horiz-adv-x="882" d="M113 471q0 102 13 211t38.5 210t64.5 191.5t89.5 157t113 105t137.5 38.5q100 0 158.5 -51t79.5 -168l78 508l209 70l-271 -1743h-155l-19 160q-25 -41 -51.5 -77t-60 -61.5t-76.5 -41t-99 -15.5q-61 0 -107 37t-78 103.5t-48 159.5t-16 206zM319 532q0 -100 10.5 -188 t30 -154.5t49 -104.5t68.5 -38q25 0 56.5 29.5t61.5 75t53.5 96.5t29.5 92l96 610q2 10 2 21.5v23.5q0 47 -10 102.5t-29.5 101.5t-50.5 77t-72 31q-61 0 -115.5 -53.5t-94 -153t-62.5 -243.5t-23 -325z" />
<glyph unicode="e" horiz-adv-x="927" d="M125 455q0 184 53 352t140.5 297t199 204.5t230.5 75.5q154 0 216 -52t62 -171q0 -72 -37 -138.5t-116.5 -120.5t-203.5 -91t-296 -47q0 -4 -6.5 -37t-12.5 -81t-11 -102.5t-5 -97.5q0 -84 11 -157.5t38 -129t69 -88t101 -32.5q51 0 108.5 55.5t122.5 134.5l41 -24 q-41 -53 -79.5 -96t-80.5 -76t-93.5 -50.5t-116.5 -17.5q-80 0 -142.5 37t-105.5 103.5t-64.5 155.5t-21.5 194zM395 848q131 14 222.5 45t149.5 73t85 89t27 94q0 25 -5.5 53.5t-20.5 53t-44 41t-74 16.5q-66 0 -119 -46t-95 -116t-74 -151.5t-52 -151.5z" />
<glyph unicode="f" horiz-adv-x="593" d="M66 -365l260 1672h-97l9 49h94l6 35q10 59 40 121.5t77 113.5t110.5 84t141.5 33q49 0 88 -10.5t77 -36.5l-24 -49q-31 16 -57.5 24t-51.5 8q-35 0 -68.5 -25.5t-61 -68.5t-47 -97t-27.5 -112l-5 -20h158l-8 -49h-156l-264 -1672h-194z" />
<glyph unicode="g" horiz-adv-x="1038" d="M-16 -162q0 59 28.5 114.5t78.5 100.5t117.5 77t145.5 48q-166 39 -166 103q0 29 41 52t117 44q-76 55 -110.5 151.5t-34.5 206.5q0 123 41 240t116.5 208t179 146t230.5 55q170 0 258 -147q37 -12 68 -12q82 0 151 96q-31 -115 -68.5 -156t-105.5 -41q12 -61 12 -135 q0 -166 -42 -291t-115.5 -207.5t-174 -124.5t-216.5 -42q-35 0 -65 5t-58 15q-20 -16 -27.5 -27.5t-7.5 -23.5q0 -63 203 -103q-86 -18 -160 -48.5t-128 -69.5t-85 -85t-31 -93q0 -82 63.5 -135.5t163.5 -53.5q53 0 130 15.5t147 34t118 33.5t46 15l12 -49 q-141 -59 -279.5 -91t-273.5 -32q-143 0 -231 51.5t-88 155.5zM389 768q0 -184 65.5 -280.5t163.5 -96.5q123 0 199 128t76 384q0 84 -14.5 158t-42 128t-69.5 85t-97 31q-123 0 -202 -139.5t-79 -397.5z" />
<glyph unicode="h" horiz-adv-x="854" d="M59 2l260 1671l205 70l-88 -567q16 37 47 74.5t73 67.5t91 48t103 18q51 0 94 -25.5t74.5 -66.5t50 -96t18.5 -113q0 -14 -1 -26.5t-3 -26.5l-160 -1028h-194l153 995q2 10 3 21.5t1 21.5q0 43 -12 86t-35.5 76t-54.5 53.5t-68 20.5q-45 0 -79.5 -28.5t-61 -73 t-44 -100.5t-25.5 -111l-150 -961h-197z" />
<glyph unicode="i" horiz-adv-x="319" d="M59 2l199 1286l207 70l-209 -1356h-197zM289 1565q0 63 43 107t94 44q43 0 68.5 -29.5t25.5 -74.5q0 -31 -11 -59.5t-29.5 -50t-43 -35t-51.5 -13.5q-43 0 -69.5 32t-26.5 79z" />
<glyph unicode="j" horiz-adv-x="339" d="M-299 -319q166 0 255 74.5t114 228.5l204 1304l205 70l-192 -1256q-16 -102 -49 -174.5t-98.5 -127t-169 -92.5t-257.5 -68zM311 1563q0 63 42.5 108t95.5 45q41 0 67.5 -29.5t26.5 -76.5q0 -31 -12.5 -59.5t-31 -50t-43 -34t-48.5 -12.5q-45 0 -71 31t-26 78z" />
<glyph unicode="k" horiz-adv-x="876" d="M59 0l260 1673l205 70l-162 -1032l613 647h76l-441 -473l254 -885h-209l-204 711l-105 -105l-92 -606h-195z" />
<glyph unicode="l" horiz-adv-x="319" d="M59 2l260 1671l205 70l-268 -1741h-197z" />
<glyph unicode="m" horiz-adv-x="1286" d="M59 0l199 1288l207 70l-25 -164q20 49 52 86t68 59.5t74 33.5t73 11q143 0 170 -153q127 160 294 160q111 0 166.5 -73t55.5 -190q0 -37 -7 -79l-159 -1049h-195l158 1016q2 25 5 50.5t3 47.5q0 84 -24.5 140.5t-73.5 56.5q-72 0 -124 -71t-71 -191l-162 -1049h-194 l156 1016q4 23 6 50.5t2 53.5q0 35 -3 69t-13.5 59.5t-30 42t-52.5 16.5t-65.5 -27t-60 -70t-49 -97t-29.5 -109l-154 -1004h-197z" />
<glyph unicode="n" horiz-adv-x="878" d="M59 0l199 1288l205 70l-29 -193q39 104 117 161.5t176 57.5q119 0 190.5 -71.5t71.5 -194.5q0 -31 -6 -67l-160 -1051h-196l157 1018q4 18 4 36.5t3 35.5q0 96 -41 154.5t-113 58.5q-35 0 -72 -23t-67.5 -60.5t-53 -87t-30.5 -102.5l-160 -1030h-195z" />
<glyph unicode="o" horiz-adv-x="966" d="M125 381q0 201 34 383t108.5 320.5t195.5 219t295 80.5q147 0 219 -110.5t72 -319.5q0 -59 -5.5 -125.5t-17.5 -140.5q-31 -201 -86 -338t-132 -223t-173 -124t-213 -38q-154 0 -225.5 102.5t-71.5 313.5zM324 391q0 -176 47 -266t145 -90q55 0 102.5 29.5t86 100.5 t70.5 190.5t61 301.5q10 59 13 118t3 112q0 190 -55.5 306t-153.5 116q-49 0 -91 -30t-77 -99.5t-65.5 -181t-55.5 -275.5q-30 -189 -30 -323v-9z" />
<glyph unicode="p" horiz-adv-x="882" d="M2 -365l256 1653l148 70l14 -176q47 96 121.5 149t189.5 53q63 0 109.5 -36.5t77 -103t45 -158t14.5 -199.5q0 -96 -13.5 -202.5t-40 -209t-66.5 -195t-93 -163t-119.5 -111.5t-144.5 -41q-104 0 -151.5 60.5t-63.5 169.5l-86 -560h-197zM315 358q0 -51 13.5 -106 t37 -101.5t56.5 -76t72 -29.5q59 0 110 65.5t88 176t58.5 256t21.5 303.5q0 98 -10 182t-30.5 145.5t-50.5 96.5t-69 35q-29 0 -62.5 -34t-62 -82t-50 -100.5t-27.5 -89.5l-91 -591q-2 -12 -3 -24.5t-1 -25.5z" />
<glyph unicode="q" horiz-adv-x="905" d="M102 389q0 205 42 386t116 316.5t175.5 214t221.5 78.5q78 0 131.5 -49t75.5 -135l103 184l84 -67l-260 -1682h-199l90 574q-45 -111 -129 -177.5t-191 -66.5q-131 0 -195.5 109.5t-64.5 314.5zM293 356q0 -154 41 -222t119 -68q45 0 89 30.5t78.5 81.5t59.5 114.5 t35 131.5l92 598q2 10 2 19.5v19.5q0 39 -10.5 86t-30.5 87t-50 66.5t-69 26.5q-117 0 -198.5 -175t-128.5 -486q-16 -92 -22.5 -169t-6.5 -141z" />
<glyph unicode="r" horiz-adv-x="628" d="M59 0l199 1288l205 70l-45 -303q47 98 88 162.5t78 101.5t68.5 51t62.5 14q61 0 96 -47l-115 -139q-10 10 -25.5 13t-43.5 3q-18 0 -53 -28.5t-73 -76.5t-71 -112.5t-43 -136.5l-133 -860h-195z" />
<glyph unicode="s" horiz-adv-x="786" d="M70 211l77 51q8 -39 27 -77t44.5 -68.5t57 -49t68.5 -18.5q61 0 109.5 25.5t81 66.5t49 91.5t16.5 101.5q0 66 -29.5 117t-72.5 94t-95.5 85t-95.5 91t-72.5 109.5t-29.5 144.5q0 86 32.5 160.5t87 130t125 87t148.5 31.5q117 0 181.5 -38.5t99.5 -133.5l-62 -53 q-31 63 -73 103.5t-101 40.5q-51 0 -95 -16.5t-78 -45.5t-53.5 -72t-19.5 -94q0 -92 29 -152.5t70 -88.5q55 -41 111.5 -85t102.5 -97.5t74.5 -116t28.5 -138.5q0 -86 -29.5 -163.5t-89 -137t-146.5 -95.5t-202 -36q-59 0 -103 19.5t-77 52.5t-56.5 78t-39.5 96z" />
<glyph unicode="t" horiz-adv-x="581" d="M156 244q0 31 6 65l157 1000h-94l6 49q250 0 342 330l-51 -330h156l-6 -49h-158l-160 -1033q-2 -10 -3 -20t-1 -20q0 -39 11.5 -75t30 -63.5t44 -45t53.5 -17.5q43 0 107 47l8 -47q-43 -41 -90 -55.5t-92 -14.5q-123 0 -194.5 76t-71.5 203z" />
<glyph unicode="u" horiz-adv-x="878" d="M100 262q0 35 6 70l150 962l205 70l-156 -1004q-6 -41 -6 -71q0 -98 40 -158.5t114 -60.5q37 0 73.5 21.5t66.5 58t51.5 84t29.5 98.5l149 962l207 70l-209 -1364h-157l-15 176q-37 -84 -115.5 -135t-171.5 -51q-117 0 -189.5 72.5t-72.5 199.5z" />
<glyph unicode="v" horiz-adv-x="761" d="M195 1358h211l83 -993l420 993h66l-586 -1393h-27z" />
<glyph unicode="w" horiz-adv-x="1224" d="M213 1358h211l65 -993l222 440l-70 553h209l104 -993l404 993h67l-569 -1393h-22l-93 727l-350 -727h-26z" />
<glyph unicode="x" horiz-adv-x="870" d="M47 0l412 598l-199 760h213l137 -539l363 539h57l-401 -610l207 -748h-213l-144 526l-354 -526h-78z" />
<glyph unicode="y" horiz-adv-x="806" d="M-18 -365l10 74q41 0 84 14.5t83 41t73.5 63.5t56.5 82l96 205l-164 1243h211l92 -936l414 936h63l-618 -1428q-59 -141 -165.5 -218t-235.5 -77z" />
<glyph unicode="z" horiz-adv-x="806" d="M16 0l768 1286h-540l12 72h741l-768 -1290h547l-10 -68h-750z" />
<glyph unicode="{" horiz-adv-x="552" d="M170 705l8 47q74 14 115 70.5t63.5 142.5t34.5 195.5t31 232.5q29 197 107.5 296t222.5 132l-7 -43q-92 -35 -134 -100.5t-59 -151.5t-22.5 -187.5t-21.5 -205.5q-45 -279 -272 -404q76 -51 114.5 -127t38.5 -180q0 -23 -2 -48.5t-6 -49.5q-6 -41 -20.5 -99.5t-29 -120 t-25.5 -120t-11 -101.5q0 -156 125 -207l-8 -43q-109 27 -159 94.5t-50 196.5q0 61 13 144.5t29.5 166t30 155.5t13.5 114q0 172 -119 201z" />
<glyph unicode="|" horiz-adv-x="200" d="M23 -227l317 2048h74l-318 -2048h-73z" />
<glyph unicode="}" horiz-adv-x="552" d="M4 -367l6 43q94 37 138.5 111t62.5 165t22.5 189.5t16.5 182.5q47 285 272 405q-154 98 -153 301q0 41 14 112.5t32.5 150.5t33 154t14.5 124q0 154 -127 207l8 43q109 -27 159 -93.5t50 -189.5q0 -41 -13.5 -116.5t-29.5 -161.5t-29.5 -170t-13.5 -142q0 -168 117 -196 l-4 -47q-74 -16 -113 -64.5t-61.5 -129.5t-36 -192.5t-35.5 -252.5q-31 -199 -109 -299.5t-221 -133.5z" />
<glyph unicode="~" horiz-adv-x="1136" d="M203 825q35 160 127 247t221 87q74 0 124 -40t90 -89t73.5 -89t74.5 -40q23 0 50.5 9.5t54 33t50.5 65.5t38 107h102q-12 -80 -46 -142.5t-82 -105.5t-106.5 -65.5t-119.5 -22.5q-74 0 -124 41t-90 90.5t-75 90t-78 40.5q-47 0 -91 -46t-87 -171h-106z" />
<glyph unicode="&#xa1;" horiz-adv-x="370" d="M-8 -268q0 10 7 26.5t23.5 62.5t42 136t64.5 248q18 80 30.5 127t20.5 85t18.5 78t25 105.5t38 166.5t62.5 263h59q-14 -158 -24.5 -265.5t-16.5 -183t-10 -124.5t-8.5 -92t-6.5 -85t-6 -102q-12 -170 -12 -258q0 -59 2 -95t2 -52q0 -29 -15.5 -54.5t-41 -44t-58 -29 t-69.5 -10.5q-53 0 -90 26t-37 71zM287 1305q0 31 11 58.5t29.5 49t43 33.5t51.5 12q43 0 69.5 -30.5t26.5 -75.5q0 -63 -42 -108.5t-95 -45.5q-43 0 -68.5 29.5t-25.5 77.5z" />
<glyph unicode="&#xa3;" horiz-adv-x="983" d="M66 20q33 55 61.5 114t53 126.5t44 146t35.5 177.5h-78l11 73h65q0 20 1 40t1 38q0 70 -3 138.5t-3 134.5q0 344 151.5 530t466.5 186q117 0 190 -70.5t112 -197.5l-82 -22q-10 47 -36 89t-59.5 72.5t-75.5 49t-85 18.5q-78 0 -149 -40t-123 -113.5t-82.5 -177 t-30.5 -228.5q0 -104 12 -221t12 -226h418l-12 -73h-410q-23 -147 -78 -286.5t-131 -250.5q33 14 64.5 18.5t64.5 4.5q78 0 155 -18.5t165 -18.5q59 0 125.5 17.5t144.5 66.5l-8 -47q-90 -47 -156.5 -64.5t-126.5 -17.5q-41 0 -80 6t-78.5 14t-81.5 14.5t-88 6.5 q-53 0 -115.5 -11.5t-140.5 -40.5z" />
<glyph unicode="&#xa5;" horiz-adv-x="790" d="M109 279l10 71h221l22 148h-221l13 71h221l16 95l-117 1042h205l74 -885l403 885h88l-444 -950l-29 -187h220l-11 -71h-219l-22 -148h219l-13 -71h-219l-43 -279h-194l41 279h-221z" />
<glyph unicode="&#xa8;" horiz-adv-x="595" d="M301 1599q0 47 32 85t75 38q33 0 53 -24.5t20 -59.5q0 -47 -31.5 -83.5t-72.5 -36.5q-35 0 -55.5 23.5t-20.5 57.5zM604 1604q0 47 35 82.5t76 35.5q33 0 53 -25.5t20 -62.5q0 -45 -32.5 -80.5t-71.5 -35.5q-35 0 -57.5 24.5t-22.5 61.5z" />
<glyph unicode="&#xa9;" horiz-adv-x="1591" d="M76 842q0 174 66.5 328.5t182 270t269.5 182.5t330 67q174 0 327.5 -67t268 -182.5t181 -270t66.5 -328.5t-66.5 -328t-181 -268.5t-268 -181t-327.5 -66.5q-176 0 -330 66.5t-269.5 181t-182 268.5t-66.5 328zM176 840q0 -156 58.5 -292t160 -237.5t238.5 -160 t293 -58.5q154 0 291 58.5t238 160t160.5 237.5t59.5 292t-59.5 293t-160.5 239.5t-238 162.5t-291 60q-156 0 -293 -60t-238.5 -162.5t-160 -240t-58.5 -292.5zM539 856q27 399 432 399q92 0 149.5 -24.5t85.5 -87.5l-55 -15q-23 41 -63.5 65t-106.5 28 q-145 -10 -203.5 -104.5t-58.5 -274.5q0 -168 73.5 -266.5t211.5 -98.5q90 0 182 98l43 -16q-117 -125 -303 -125q-188 0 -285.5 112.5t-101.5 309.5z" />
<glyph unicode="&#xaa;" horiz-adv-x="620" d="M199 989q0 117 65.5 203t220.5 125q53 12 88 38.5t56 82.5l12 65q0 4 1 10.5t1 12.5q0 27 -9 54.5t-25.5 49t-39 34.5t-49.5 13q-72 0 -145 -86l-39 21q98 117 248 117q92 0 140 -49.5t48 -118.5v-17.5t-2 -17.5l-88 -576q-6 -31 -6 -57q0 -35 12 -53h-123q-16 33 -16 67 q0 10 1 20.5t3 20.5q-29 -53 -70 -94t-116 -41q-92 0 -130 49t-38 127zM328 1008q0 -61 19.5 -107.5t72.5 -46.5q39 0 74.5 47t64.5 117l14 47l48 307q-25 -76 -103 -100q-117 -39 -153.5 -103.5t-36.5 -160.5z" />
<glyph unicode="&#xab;" horiz-adv-x="757" d="M184 647l19 137l346 187l-23 -144l-223 -108l191 -111l-23 -139zM481 647l23 137l344 187l-21 -144l-225 -108l191 -111l-21 -139z" />
<glyph unicode="&#xad;" horiz-adv-x="634" d="M170 694l16 117h508l-18 -117h-506z" />
<glyph unicode="&#xae;" horiz-adv-x="1095" d="M225 1237q0 98 38 187t106.5 157t164 106.5t207.5 38.5q115 0 211.5 -37.5t166 -104t108.5 -156t39 -191.5q0 -96 -40 -184t-111 -155t-167 -106.5t-207 -39.5q-113 0 -208 39.5t-163.5 106.5t-106.5 155t-38 184zM324 1237q0 -74 28.5 -144.5t81.5 -127t131 -91 t174 -34.5q90 0 171 30.5t141.5 84t96.5 126t36 156.5q0 74 -33 144.5t-92.5 126t-141 89t-178.5 33.5q-96 0 -174 -33.5t-131 -89t-81.5 -126t-28.5 -144.5zM565 981v522h228q61 0 102 -40t41 -97q0 -47 -24.5 -80t-77.5 -45q104 -10 104 -106v-101q0 -18 17.5 -26.5 t33.5 -12.5v-22q-6 -2 -25.5 -2h-25.5q-61 0 -91 17.5t-30 45.5v129q0 49 -82 49h-73v-231h-97zM662 1274h71q82 0 82 80q0 59 -33.5 86.5t-76.5 27.5h-43v-194z" />
<glyph unicode="&#xb0;" horiz-adv-x="618" d="M219 1421q0 68 25.5 124.5t68.5 97t99.5 64.5t117.5 24q59 0 114.5 -24t98.5 -64.5t70 -97t27 -124.5q0 -66 -27 -123t-70 -100t-98 -67.5t-115 -24.5q-59 0 -115.5 23.5t-99.5 65.5t-69.5 99t-26.5 127zM330 1421q0 -43 17.5 -79.5t45 -62.5t63.5 -40t74 -14q37 0 72 14 t61.5 40t43 62.5t16.5 79.5q0 92 -58.5 143.5t-134.5 51.5q-39 0 -74.5 -13.5t-63 -39t-45 -61.5t-17.5 -81z" />
<glyph unicode="&#xb4;" horiz-adv-x="401" d="M303 1563l236 131q51 29 88 28q59 0 59 -47q0 -53 -72 -73l-290 -86z" />
<glyph unicode="&#xb7;" horiz-adv-x="317" d="M170 823q0 31 12.5 58.5t31.5 48t43.5 32t49.5 11.5q43 0 68.5 -29t25.5 -76q0 -31 -10 -58.5t-28.5 -49t-43 -34.5t-53.5 -13q-43 0 -69.5 31.5t-26.5 78.5z" />
<glyph unicode="&#xb8;" horiz-adv-x="333" d="M27 -365l4 31q84 0 135 34t51 112q0 35 -20.5 58.5t-55.5 23.5l49 122h58l-33 -92q59 -2 93 -23.5t34 -66.5q0 -90 -77 -144.5t-238 -54.5z" />
<glyph unicode="&#xba;" horiz-adv-x="686" d="M209 1069q0 131 21.5 250t70.5 210t129 145.5t195 54.5q96 0 142 -73t46 -210q0 -180 -34 -304t-91 -201t-131 -110.5t-154 -33.5q-195 0 -194 272zM340 1075q0 -115 30.5 -174t94.5 -59q37 0 67.5 19.5t55 66.5t46 126t40.5 197q12 82 12 152q0 125 -37 200.5t-100 75.5 q-66 0 -111 -85t-78 -300q-10 -63 -15 -118.5t-5 -100.5z" />
<glyph unicode="&#xbb;" horiz-adv-x="782" d="M178 469l21 143l225 111l-193 111l23 137l291 -178l-21 -136zM479 469l21 143l223 111l-188 111l20 137l289 -178l-21 -136z" />
<glyph unicode="&#xbf;" horiz-adv-x="745" d="M0 -94q0 27 6 61q10 70 54 144.5t104.5 149.5t127 149.5t124 142.5t94.5 128t37 107q0 45 -43 209l61 21l88 -299q6 -18 6 -39v-16.5t-2 -16.5q-6 -47 -44 -104.5t-90 -122t-110.5 -131t-107.5 -130t-82 -120.5t-33 -102q0 -43 17.5 -84t45.5 -73t63.5 -50.5t74.5 -18.5 q135 0 264 154l33 -55q-68 -92 -177.5 -133.5t-225.5 -41.5q-143 0 -214 78t-71 193zM465 1225q0 31 12 58.5t30.5 48t43 32.5t49.5 12q45 0 71.5 -29.5t26.5 -76.5q0 -31 -12 -58.5t-31.5 -49t-44 -34t-49.5 -12.5q-43 0 -69.5 31t-26.5 78z" />
<glyph unicode="&#xc0;" horiz-adv-x="823" d="M29 0l546 1706h218v-1706h-195l-12 393h-355l-131 -393h-71zM29 0zM252 442h334v1071zM496 2001q0 35 21.5 52t55.5 17q16 -4 37 -8t43 -20l193 -131l-35 -47l-262 86q-27 8 -40 17t-13 34z" />
<glyph unicode="&#xc1;" horiz-adv-x="823" d="M29 0l546 1706h218v-1706h-195l-12 393h-355l-131 -393h-71zM29 0zM252 442h334v1071zM563 1911l236 131q51 29 88 28q59 0 59 -47q0 -53 -72 -73l-290 -86z" />
<glyph unicode="&#xc2;" horiz-adv-x="823" d="M29 0l546 1706h218v-1706h-195l-12 393h-355l-131 -393h-71zM29 0zM252 442h334v1071zM485 1892q0 55 76 94l168 84l145 -84q25 -14 38.5 -34.5t13.5 -36.5q0 -51 -50 -51q-29 0 -72.5 38.5t-86.5 85.5q-59 -47 -112.5 -85.5t-82.5 -38.5q-37 0 -37 28z" />
<glyph unicode="&#xc3;" horiz-adv-x="823" d="M29 0l546 1706h218v-1706h-195l-12 393h-355l-131 -393h-71zM29 0zM252 442h334v1071zM443 1886q18 88 68 136t118 48q41 0 68.5 -22.5t49 -48t41 -48t42.5 -22.5q27 0 56.5 22.5t47.5 94.5h55q-16 -86 -71.5 -134t-122.5 -48q-39 0 -66.5 22.5t-49 48t-40 48t-43.5 22.5 q-27 0 -50.5 -24.5t-47.5 -94.5h-55z" />
<glyph unicode="&#xc4;" horiz-adv-x="823" d="M29 0l546 1706h218v-1706h-195l-12 393h-355l-131 -393h-71zM29 0zM252 442h334v1071zM471 1947q0 47 32 85t75 38q33 0 53 -24.5t20 -59.5q0 -47 -31.5 -83.5t-72.5 -36.5q-35 0 -55.5 23.5t-20.5 57.5zM774 1952q0 47 35 82.5t76 35.5q33 0 53 -25.5t20 -62.5 q0 -45 -32.5 -80.5t-71.5 -35.5q-35 0 -57.5 24.5t-22.5 61.5z" />
<glyph unicode="&#xc5;" horiz-adv-x="823" d="M29 0l546 1706h218v-1706h-195l-12 393h-355l-131 -393h-71zM29 0zM252 442h334v1071zM545 1900q0 37 14.5 68t37 53.5t53 35.5t63.5 13t63.5 -13t54 -35.5t38 -53.5t14.5 -68q0 -35 -14.5 -66.5t-38 -55t-54 -37t-63.5 -13.5q-66 0 -117 48t-51 124zM606 1900 q0 -49 33 -77.5t74 -28.5t73.5 28.5t32.5 77.5q0 47 -32.5 77t-73.5 30t-74 -30t-33 -77z" />
<glyph unicode="&#xc6;" horiz-adv-x="931" d="M14 0l539 1706h629l-8 -49h-353l-190 -1215h200l-8 -49h-198l-54 -344h353l-6 -49h-580l61 393h-180l-133 -393h-72zM240 442h168l161 1051z" />
<glyph unicode="&#xc7;" horiz-adv-x="983" d="M141 446q0 90 10.5 196t30.5 230q31 207 85.5 367t137 267.5t197.5 162.5t270 55q115 0 189 -70.5t113 -197.5l-82 -22q-10 47 -36 89t-59.5 72.5t-75.5 49t-85 18.5q-90 0 -176.5 -88t-156 -243.5t-111.5 -367.5t-42 -460q0 -215 54.5 -345t158.5 -130q41 0 86 19.5 t88 51t84 72.5t74 86h76q-80 -135 -184.5 -203.5t-227.5 -85.5l-16 -45q59 -2 93 -23.5t34 -66.5q0 -90 -77 -144.5t-241 -54.5l4 31q82 0 135.5 34t53.5 112q0 35 -21.5 58.5t-56.5 23.5l29 71q-180 0 -267.5 112.5t-87.5 368.5z" />
<glyph unicode="&#xc8;" horiz-adv-x="815" d="M63 0l263 1706h753l-8 -49h-557l-119 -776h322l-8 -47h-322l-121 -787h555l-6 -47h-752zM63 0zM492 2001q0 35 21.5 52t55.5 17q16 -4 37 -8t43 -20l193 -131l-35 -47l-262 86q-27 8 -40 17t-13 34z" />
<glyph unicode="&#xc9;" horiz-adv-x="815" d="M63 0l263 1706h753l-8 -49h-557l-119 -776h322l-8 -47h-322l-121 -787h555l-6 -47h-752zM63 0zM559 1911l236 131q51 29 88 28q59 0 59 -47q0 -53 -72 -73l-290 -86z" />
<glyph unicode="&#xca;" horiz-adv-x="815" d="M63 0l263 1706h753l-8 -49h-557l-119 -776h322l-8 -47h-322l-121 -787h555l-6 -47h-752zM63 0zM479 1892q0 55 76 94l168 84l145 -84q25 -14 38.5 -34.5t13.5 -36.5q0 -51 -50 -51q-29 0 -72.5 38.5t-86.5 85.5q-59 -47 -112.5 -85.5t-82.5 -38.5q-37 0 -37 28z" />
<glyph unicode="&#xcb;" horiz-adv-x="815" d="M63 0l263 1706h753l-8 -49h-557l-119 -776h322l-8 -47h-322l-121 -787h555l-6 -47h-752zM63 0zM469 1947q0 47 32 85t75 38q33 0 53 -24.5t20 -59.5q0 -47 -31.5 -83.5t-72.5 -36.5q-35 0 -55.5 23.5t-20.5 57.5zM772 1952q0 47 35 82.5t76 35.5q33 0 53 -25.5t20 -62.5 q0 -45 -32.5 -80.5t-71.5 -35.5q-35 0 -57.5 24.5t-22.5 61.5z" />
<glyph unicode="&#xcc;" horiz-adv-x="323" d="M61 0l263 1706h198l-264 -1706h-197zM61 0zM246 2001q0 35 21.5 52t55.5 17q16 -4 37 -8t43 -20l193 -131l-35 -47l-262 86q-27 8 -40 17t-13 34z" />
<glyph unicode="&#xcd;" horiz-adv-x="323" d="M61 0l263 1706h198l-264 -1706h-197zM61 0zM313 1911l236 131q51 29 88 28q59 0 59 -47q0 -53 -72 -73l-290 -86z" />
<glyph unicode="&#xce;" horiz-adv-x="323" d="M61 0l263 1706h198l-264 -1706h-197zM61 0zM239 1892q0 55 76 94l168 84l145 -84q25 -14 38.5 -34.5t13.5 -36.5q0 -51 -50 -51q-29 0 -72.5 38.5t-86.5 85.5q-59 -47 -112.5 -85.5t-82.5 -38.5q-37 0 -37 28z" />
<glyph unicode="&#xcf;" horiz-adv-x="323" d="M61 0l263 1706h198l-264 -1706h-197zM61 0zM227 1947q0 47 32 85t75 38q33 0 53 -24.5t20 -59.5q0 -47 -31.5 -83.5t-72.5 -36.5q-35 0 -55.5 23.5t-20.5 57.5zM530 1952q0 47 35 82.5t76 35.5q33 0 53 -25.5t20 -62.5q0 -45 -32.5 -80.5t-71.5 -35.5q-35 0 -57.5 24.5 t-22.5 61.5z" />
<glyph unicode="&#xd0;" horiz-adv-x="1036" d="M63 0l123 809h-61l16 117h62l123 780h477q82 0 145.5 -41t107.5 -115.5t66.5 -179t22.5 -233.5q0 -63 -6 -131t-17 -140q-39 -248 -98 -414.5t-149.5 -267t-218.5 -142.5t-304 -42h-289zM264 47h189q168 0 289.5 208t183.5 611q10 68 15 129.5t5 118.5q0 121 -21.5 221.5 t-64.5 172t-106.5 110.5t-145.5 39h-96l-113 -731h250l-18 -117h-250z" />
<glyph unicode="&#xd1;" horiz-adv-x="888" d="M61 0zM61 2l263 1704h172l331 -1161l181 1161h82l-269 -1741h-26l-428 1477l-224 -1440h-82zM474 1886q18 88 68 136t118 48q41 0 68.5 -22.5t49 -48t41 -48t42.5 -22.5q27 0 56.5 22.5t47.5 94.5h55q-16 -86 -71.5 -134t-122.5 -48q-39 0 -66.5 22.5t-49 48t-40 48 t-43.5 22.5q-27 0 -50.5 -24.5t-47.5 -94.5h-55z" />
<glyph unicode="&#xd2;" d="M143 0zM143 451q0 88 10.5 192.5t30.5 228.5q33 209 88.5 369t141.5 267.5t206.5 161.5t286.5 54q178 0 266.5 -127t88.5 -376q0 -72 -7.5 -152t-21.5 -172q-39 -248 -97.5 -424t-146.5 -288.5t-210 -166t-285 -53.5q-176 0 -263.5 112.5t-87.5 373.5zM354 508 q0 -109 13.5 -198t41 -151.5t67.5 -97t93 -34.5q88 0 174 91t153 250.5t107.5 376t40.5 465.5q0 211 -52 330t-156 119q-86 0 -172 -86t-155 -239.5t-112 -364.5t-43 -461zM658 2001q0 35 21.5 52t55.5 17q16 -4 37 -8t43 -20l193 -131l-35 -47l-262 86q-27 8 -40 17t-13 34 z" />
<glyph unicode="&#xd3;" d="M143 0zM143 451q0 88 10.5 192.5t30.5 228.5q33 209 88.5 369t141.5 267.5t206.5 161.5t286.5 54q178 0 266.5 -127t88.5 -376q0 -72 -7.5 -152t-21.5 -172q-39 -248 -97.5 -424t-146.5 -288.5t-210 -166t-285 -53.5q-176 0 -263.5 112.5t-87.5 373.5zM354 508 q0 -109 13.5 -198t41 -151.5t67.5 -97t93 -34.5q88 0 174 91t153 250.5t107.5 376t40.5 465.5q0 211 -52 330t-156 119q-86 0 -172 -86t-155 -239.5t-112 -364.5t-43 -461zM725 1911l236 131q51 29 88 28q59 0 59 -47q0 -53 -72 -73l-290 -86z" />
<glyph unicode="&#xd4;" d="M143 0zM143 451q0 88 10.5 192.5t30.5 228.5q33 209 88.5 369t141.5 267.5t206.5 161.5t286.5 54q178 0 266.5 -127t88.5 -376q0 -72 -7.5 -152t-21.5 -172q-39 -248 -97.5 -424t-146.5 -288.5t-210 -166t-285 -53.5q-176 0 -263.5 112.5t-87.5 373.5zM354 508 q0 -109 13.5 -198t41 -151.5t67.5 -97t93 -34.5q88 0 174 91t153 250.5t107.5 376t40.5 465.5q0 211 -52 330t-156 119q-86 0 -172 -86t-155 -239.5t-112 -364.5t-43 -461zM645 1892q0 55 76 94l168 84l145 -84q25 -14 38.5 -34.5t13.5 -36.5q0 -51 -50 -51 q-29 0 -72.5 38.5t-86.5 85.5q-59 -47 -112.5 -85.5t-82.5 -38.5q-37 0 -37 28z" />
<glyph unicode="&#xd5;" d="M143 0zM143 451q0 88 10.5 192.5t30.5 228.5q33 209 88.5 369t141.5 267.5t206.5 161.5t286.5 54q178 0 266.5 -127t88.5 -376q0 -72 -7.5 -152t-21.5 -172q-39 -248 -97.5 -424t-146.5 -288.5t-210 -166t-285 -53.5q-176 0 -263.5 112.5t-87.5 373.5zM354 508 q0 -109 13.5 -198t41 -151.5t67.5 -97t93 -34.5q88 0 174 91t153 250.5t107.5 376t40.5 465.5q0 211 -52 330t-156 119q-86 0 -172 -86t-155 -239.5t-112 -364.5t-43 -461zM603 1886q18 88 68 136t118 48q41 0 68.5 -22.5t49 -48t41 -48t42.5 -22.5q27 0 56.5 22.5 t47.5 94.5h55q-16 -86 -71.5 -134t-122.5 -48q-39 0 -66.5 22.5t-49 48t-40 48t-43.5 22.5q-27 0 -50.5 -24.5t-47.5 -94.5h-55z" />
<glyph unicode="&#xd6;" d="M143 0zM143 451q0 88 10.5 192.5t30.5 228.5q33 209 88.5 369t141.5 267.5t206.5 161.5t286.5 54q178 0 266.5 -127t88.5 -376q0 -72 -7.5 -152t-21.5 -172q-39 -248 -97.5 -424t-146.5 -288.5t-210 -166t-285 -53.5q-176 0 -263.5 112.5t-87.5 373.5zM354 508 q0 -109 13.5 -198t41 -151.5t67.5 -97t93 -34.5q88 0 174 91t153 250.5t107.5 376t40.5 465.5q0 211 -52 330t-156 119q-86 0 -172 -86t-155 -239.5t-112 -364.5t-43 -461zM633 1947q0 47 32 85t75 38q33 0 53 -24.5t20 -59.5q0 -47 -31.5 -83.5t-72.5 -36.5 q-35 0 -55.5 23.5t-20.5 57.5zM936 1952q0 47 35 82.5t76 35.5q33 0 53 -25.5t20 -62.5q0 -45 -32.5 -80.5t-71.5 -35.5q-35 0 -57.5 24.5t-22.5 61.5z" />
<glyph unicode="&#xd7;" horiz-adv-x="579" d="M195 676l192 190l-172 172l66 64l172 -170l176 176l78 -76l-179 -178l179 -176l-68 -66l-178 179l-189 -193z" />
<glyph unicode="&#xd8;" d="M143 449q0 88 10.5 193.5t30.5 229.5q33 209 88.5 369t141.5 267.5t206.5 161.5t286.5 54q96 0 174 -43l56 109l75 -39l-67 -123q59 -61 88 -163.5t29 -243.5q0 -72 -7.5 -152t-21.5 -172q-39 -248 -97.5 -424t-146.5 -288.5t-210 -166t-285 -53.5q-123 0 -205 53 l-60 -110l-67 39l67 131q-86 117 -86 371zM354 498q0 -43 3 -85t8 -79l632 1192q-57 133 -161 133q-88 0 -174.5 -87t-155 -241.5t-110.5 -367.5t-42 -465zM391 209q27 -86 70 -134t108 -48q88 0 174 91t153 250.5t107.5 376t40.5 465.5q0 55 -3 105.5t-13 91.5z" />
<glyph unicode="&#xd9;" horiz-adv-x="880" d="M94 0zM94 213q0 18 2 38.5t6 43.5l222 1411h196l-215 -1382q-2 -10 -3 -21.5t-1 -21.5q0 -53 18.5 -98.5t50 -78t75.5 -52t94 -19.5q98 0 163.5 72.5t83.5 189.5l220 1411h81l-208 -1348q-23 -135 -76 -213.5t-124 -118.5t-149.5 -50.5t-148.5 -10.5q-287 0 -287 248z M527 2001q0 35 21.5 52t55.5 17q16 -4 37 -8t43 -20l193 -131l-35 -47l-262 86q-27 8 -40 17t-13 34z" />
<glyph unicode="&#xda;" horiz-adv-x="880" d="M94 0zM94 213q0 18 2 38.5t6 43.5l222 1411h196l-215 -1382q-2 -10 -3 -21.5t-1 -21.5q0 -53 18.5 -98.5t50 -78t75.5 -52t94 -19.5q98 0 163.5 72.5t83.5 189.5l220 1411h81l-208 -1348q-23 -135 -76 -213.5t-124 -118.5t-149.5 -50.5t-148.5 -10.5q-287 0 -287 248z M594 1911l236 131q51 29 88 28q59 0 59 -47q0 -53 -72 -73l-290 -86z" />
<glyph unicode="&#xdb;" horiz-adv-x="880" d="M94 0zM94 213q0 18 2 38.5t6 43.5l222 1411h196l-215 -1382q-2 -10 -3 -21.5t-1 -21.5q0 -53 18.5 -98.5t50 -78t75.5 -52t94 -19.5q98 0 163.5 72.5t83.5 189.5l220 1411h81l-208 -1348q-23 -135 -76 -213.5t-124 -118.5t-149.5 -50.5t-148.5 -10.5q-287 0 -287 248z M514 1892q0 55 76 94l168 84l145 -84q25 -14 38.5 -34.5t13.5 -36.5q0 -51 -50 -51q-29 0 -72.5 38.5t-86.5 85.5q-59 -47 -112.5 -85.5t-82.5 -38.5q-37 0 -37 28z" />
<glyph unicode="&#xdc;" horiz-adv-x="880" d="M94 0zM94 213q0 18 2 38.5t6 43.5l222 1411h196l-215 -1382q-2 -10 -3 -21.5t-1 -21.5q0 -53 18.5 -98.5t50 -78t75.5 -52t94 -19.5q98 0 163.5 72.5t83.5 189.5l220 1411h81l-208 -1348q-23 -135 -76 -213.5t-124 -118.5t-149.5 -50.5t-148.5 -10.5q-287 0 -287 248z M500 1947q0 47 32 85t75 38q33 0 53 -24.5t20 -59.5q0 -47 -31.5 -83.5t-72.5 -36.5q-35 0 -55.5 23.5t-20.5 57.5zM803 1952q0 47 35 82.5t76 35.5q33 0 53 -25.5t20 -62.5q0 -45 -32.5 -80.5t-71.5 -35.5q-35 0 -57.5 24.5t-22.5 61.5z" />
<glyph unicode="&#xdd;" horiz-adv-x="790" d="M274 0zM274 1706h205l109 -645l368 645h88l-405 -711l-156 -995h-194l137 903zM547 1911l236 131q51 29 88 28q59 0 59 -47q0 -53 -72 -73l-290 -86z" />
<glyph unicode="&#xde;" horiz-adv-x="837" d="M61 0l263 1706h196l-51 -317h291q49 0 91 -25t72.5 -66t48 -93t17.5 -105q0 -14 -1 -26.5t-3 -24.5l-37 -252q-12 -84 -59 -154t-118 -119t-161 -75.5t-186 -26.5h-105l-63 -422h-195zM328 469h137q41 0 87 30.5t87 76t70.5 97.5t35.5 95l41 250q2 12 2 23.5v23.5 q0 53 -15 103.5t-45 88t-70 61t-89 23.5h-106z" />
<glyph unicode="&#xdf;" horiz-adv-x="874" d="M57 0l213 1380q29 182 144.5 272.5t302.5 90.5q129 0 196.5 -91t67.5 -239q0 -96 -19.5 -178t-51 -147.5t-70.5 -115.5t-78 -83q76 -20 116 -91t40 -169q0 -133 -46.5 -249t-124 -202t-180 -135t-213.5 -49l6 39q63 0 126 55t112 140t79 184.5t30 185.5 q0 111 -50.5 178.5t-148.5 67.5q74 23 131 80t97 136t60.5 175t20.5 197q0 123 -39 185t-98 62q-78 0 -134.5 -76.5t-74.5 -193.5l-217 -1409h-197z" />
<glyph unicode="&#xe0;" horiz-adv-x="905" d="M102 0zM102 389q0 205 42 386t116 316.5t175.5 214t221.5 78.5q78 0 131.5 -49t75.5 -135l103 184l84 -67l-205 -1317h-135l-9 209q-45 -111 -139 -177.5t-201 -66.5q-131 0 -195.5 109.5t-64.5 314.5zM293 356q0 -154 41 -222t119 -68q45 0 89 30.5t78.5 81.5 t59.5 114.5t35 131.5l92 598q2 10 2 19.5v19.5q0 39 -10.5 86t-30.5 87t-50 66.5t-69 26.5q-117 0 -198.5 -175t-128.5 -486q-16 -92 -22.5 -169t-6.5 -141zM459 1653q0 35 21.5 52t55.5 17q16 -4 37 -8t43 -20l193 -131l-35 -47l-262 86q-27 8 -40 17t-13 34z" />
<glyph unicode="&#xe1;" horiz-adv-x="905" d="M102 0zM102 389q0 205 42 386t116 316.5t175.5 214t221.5 78.5q78 0 131.5 -49t75.5 -135l103 184l84 -67l-205 -1317h-135l-9 209q-45 -111 -139 -177.5t-201 -66.5q-131 0 -195.5 109.5t-64.5 314.5zM293 356q0 -154 41 -222t119 -68q45 0 89 30.5t78.5 81.5 t59.5 114.5t35 131.5l92 598q2 10 2 19.5v19.5q0 39 -10.5 86t-30.5 87t-50 66.5t-69 26.5q-117 0 -198.5 -175t-128.5 -486q-16 -92 -22.5 -169t-6.5 -141zM526 1563l236 131q51 29 88 28q59 0 59 -47q0 -53 -72 -73l-290 -86z" />
<glyph unicode="&#xe2;" horiz-adv-x="905" d="M102 0zM102 389q0 205 42 386t116 316.5t175.5 214t221.5 78.5q78 0 131.5 -49t75.5 -135l103 184l84 -67l-205 -1317h-135l-9 209q-45 -111 -139 -177.5t-201 -66.5q-131 0 -195.5 109.5t-64.5 314.5zM293 356q0 -154 41 -222t119 -68q45 0 89 30.5t78.5 81.5 t59.5 114.5t35 131.5l92 598q2 10 2 19.5v19.5q0 39 -10.5 86t-30.5 87t-50 66.5t-69 26.5q-117 0 -198.5 -175t-128.5 -486q-16 -92 -22.5 -169t-6.5 -141zM450 1544q0 55 76 94l168 84l145 -84q25 -14 38.5 -34.5t13.5 -36.5q0 -51 -50 -51q-29 0 -72.5 38.5t-86.5 85.5 q-59 -47 -112.5 -85.5t-82.5 -38.5q-37 0 -37 28z" />
<glyph unicode="&#xe3;" horiz-adv-x="905" d="M102 0zM102 389q0 205 42 386t116 316.5t175.5 214t221.5 78.5q78 0 131.5 -49t75.5 -135l103 184l84 -67l-205 -1317h-135l-9 209q-45 -111 -139 -177.5t-201 -66.5q-131 0 -195.5 109.5t-64.5 314.5zM293 356q0 -154 41 -222t119 -68q45 0 89 30.5t78.5 81.5 t59.5 114.5t35 131.5l92 598q2 10 2 19.5v19.5q0 39 -10.5 86t-30.5 87t-50 66.5t-69 26.5q-117 0 -198.5 -175t-128.5 -486q-16 -92 -22.5 -169t-6.5 -141zM404 1538q18 88 68 136t118 48q41 0 68.5 -22.5t49 -48t41 -48t42.5 -22.5q27 0 56.5 22.5t47.5 94.5h55 q-16 -86 -71.5 -134t-122.5 -48q-39 0 -66.5 22.5t-49 48t-40 48t-43.5 22.5q-27 0 -50.5 -24.5t-47.5 -94.5h-55z" />
<glyph unicode="&#xe4;" horiz-adv-x="905" d="M102 0zM102 389q0 205 42 386t116 316.5t175.5 214t221.5 78.5q78 0 131.5 -49t75.5 -135l103 184l84 -67l-205 -1317h-135l-9 209q-45 -111 -139 -177.5t-201 -66.5q-131 0 -195.5 109.5t-64.5 314.5zM293 356q0 -154 41 -222t119 -68q45 0 89 30.5t78.5 81.5 t59.5 114.5t35 131.5l92 598q2 10 2 19.5v19.5q0 39 -10.5 86t-30.5 87t-50 66.5t-69 26.5q-117 0 -198.5 -175t-128.5 -486q-16 -92 -22.5 -169t-6.5 -141zM434 1599q0 47 32 85t75 38q33 0 53 -24.5t20 -59.5q0 -47 -31.5 -83.5t-72.5 -36.5q-35 0 -55.5 23.5t-20.5 57.5z M737 1604q0 47 35 82.5t76 35.5q33 0 53 -25.5t20 -62.5q0 -45 -32.5 -80.5t-71.5 -35.5q-35 0 -57.5 24.5t-22.5 61.5z" />
<glyph unicode="&#xe5;" horiz-adv-x="905" d="M102 0zM102 389q0 205 42 386t116 316.5t175.5 214t221.5 78.5q78 0 131.5 -49t75.5 -135l103 184l84 -67l-205 -1317h-135l-9 209q-45 -111 -139 -177.5t-201 -66.5q-131 0 -195.5 109.5t-64.5 314.5zM293 356q0 -154 41 -222t119 -68q45 0 89 30.5t78.5 81.5 t59.5 114.5t35 131.5l92 598q2 10 2 19.5v19.5q0 39 -10.5 86t-30.5 87t-50 66.5t-69 26.5q-117 0 -198.5 -175t-128.5 -486q-16 -92 -22.5 -169t-6.5 -141zM578 1628q0 37 14.5 68t37 53.5t53 35.5t63.5 13t63.5 -13t54 -35.5t38 -53.5t14.5 -68q0 -35 -14.5 -66.5t-38 -55 t-54 -37t-63.5 -13.5q-66 0 -117 48t-51 124zM639 1628q0 -49 33 -77.5t74 -28.5t73.5 28.5t32.5 77.5q0 47 -32.5 77t-73.5 30t-74 -30t-33 -77z" />
<glyph unicode="&#xe6;" horiz-adv-x="1505" d="M88 242q0 127 34 207.5t93 133t140 83t177 55.5q80 20 133.5 54t79.5 79q8 53 12.5 85t6.5 51.5t3 28.5t1 17q0 49 -12.5 97.5t-36 86t-56 61.5t-73.5 24q-57 0 -115.5 -51.5t-116.5 -120.5l-59 32q78 92 177 155.5t216 63.5q109 0 172.5 -60t91.5 -146q66 100 158 153 t182 53q168 0 235.5 -68.5t67.5 -197.5q0 -80 -32.5 -138t-109.5 -99t-203 -64.5t-312 -32.5q-16 -76 -25.5 -165t-9.5 -162q0 -90 13.5 -168t40 -135.5t66.5 -89t93 -31.5q43 0 87 17.5t84 46t75 66.5t61 79l39 -27q-35 -53 -72.5 -98t-83.5 -79t-99.5 -53.5t-118.5 -19.5 q-72 0 -128.5 30t-98.5 84t-69.5 130t-43.5 168q-33 -86 -70 -161t-84 -130t-108.5 -88t-141.5 -33q-72 0 -122 22.5t-80.5 60.5t-44 88t-13.5 106zM291 291q0 -47 8 -91t25.5 -78t42 -54.5t57.5 -20.5q47 0 90 38t78 102.5t60.5 149.5t39.5 177l41 264q-41 -78 -151 -123 q-92 -37 -149.5 -67.5t-89.5 -68.5t-42 -92t-10 -136zM967 848q156 12 253 42t151 67.5t73.5 82.5t19.5 93q0 94 -42 137t-124 43q-47 0 -95 -37t-91 -100.5t-80.5 -148.5t-64.5 -179z" />
<glyph unicode="&#xe7;" horiz-adv-x="835" d="M119 455q0 229 49 402t132 289t192.5 173t232.5 57q102 0 158.5 -41t72.5 -145l-65 -27q-16 70 -53 112t-107 42q-82 0 -143.5 -42t-108.5 -122t-80.5 -197.5t-58.5 -271.5q-10 -66 -14 -126t-4 -114q0 -186 57 -295.5t176 -109.5q49 0 108.5 55.5t122.5 134.5l39 -24 q-35 -51 -67.5 -93t-71.5 -73t-88 -49.5t-117 -22.5l-14 -43q59 -2 93 -23.5t34 -66.5q0 -90 -77 -144.5t-238 -54.5l4 31q82 0 134 34t52 112q0 35 -20.5 58.5t-55.5 23.5l29 73q-150 12 -226.5 144.5t-76.5 343.5z" />
<glyph unicode="&#xe8;" horiz-adv-x="927" d="M125 0zM125 455q0 184 53 352t140.5 297t199 204.5t230.5 75.5q154 0 216 -52t62 -171q0 -72 -37 -138.5t-116.5 -120.5t-203.5 -91t-296 -47q0 -4 -6.5 -37t-12.5 -81t-11 -102.5t-5 -97.5q0 -84 11 -157.5t38 -129t69 -88t101 -32.5q51 0 108.5 55.5t122.5 134.5 l41 -24q-41 -53 -79.5 -96t-80.5 -76t-93.5 -50.5t-116.5 -17.5q-80 0 -142.5 37t-105.5 103.5t-64.5 155.5t-21.5 194zM395 848q131 14 222.5 45t149.5 73t85 89t27 94q0 25 -5.5 53.5t-20.5 53t-44 41t-74 16.5q-66 0 -119 -46t-95 -116t-74 -151.5t-52 -151.5zM494 1653 q0 35 21.5 52t55.5 17q16 -4 37 -8t43 -20l193 -131l-35 -47l-262 86q-27 8 -40 17t-13 34z" />
<glyph unicode="&#xe9;" horiz-adv-x="927" d="M125 0zM125 455q0 184 53 352t140.5 297t199 204.5t230.5 75.5q154 0 216 -52t62 -171q0 -72 -37 -138.5t-116.5 -120.5t-203.5 -91t-296 -47q0 -4 -6.5 -37t-12.5 -81t-11 -102.5t-5 -97.5q0 -84 11 -157.5t38 -129t69 -88t101 -32.5q51 0 108.5 55.5t122.5 134.5 l41 -24q-41 -53 -79.5 -96t-80.5 -76t-93.5 -50.5t-116.5 -17.5q-80 0 -142.5 37t-105.5 103.5t-64.5 155.5t-21.5 194zM395 848q131 14 222.5 45t149.5 73t85 89t27 94q0 25 -5.5 53.5t-20.5 53t-44 41t-74 16.5q-66 0 -119 -46t-95 -116t-74 -151.5t-52 -151.5zM561 1563 l236 131q51 29 88 28q59 0 59 -47q0 -53 -72 -73l-290 -86z" />
<glyph unicode="&#xea;" horiz-adv-x="927" d="M125 0zM125 455q0 184 53 352t140.5 297t199 204.5t230.5 75.5q154 0 216 -52t62 -171q0 -72 -37 -138.5t-116.5 -120.5t-203.5 -91t-296 -47q0 -4 -6.5 -37t-12.5 -81t-11 -102.5t-5 -97.5q0 -84 11 -157.5t38 -129t69 -88t101 -32.5q51 0 108.5 55.5t122.5 134.5 l41 -24q-41 -53 -79.5 -96t-80.5 -76t-93.5 -50.5t-116.5 -17.5q-80 0 -142.5 37t-105.5 103.5t-64.5 155.5t-21.5 194zM395 848q131 14 222.5 45t149.5 73t85 89t27 94q0 25 -5.5 53.5t-20.5 53t-44 41t-74 16.5q-66 0 -119 -46t-95 -116t-74 -151.5t-52 -151.5zM483 1544 q0 55 76 94l168 84l145 -84q25 -14 38.5 -34.5t13.5 -36.5q0 -51 -50 -51q-29 0 -72.5 38.5t-86.5 85.5q-59 -47 -112.5 -85.5t-82.5 -38.5q-37 0 -37 28z" />
<glyph unicode="&#xeb;" horiz-adv-x="927" d="M125 0zM125 455q0 184 53 352t140.5 297t199 204.5t230.5 75.5q154 0 216 -52t62 -171q0 -72 -37 -138.5t-116.5 -120.5t-203.5 -91t-296 -47q0 -4 -6.5 -37t-12.5 -81t-11 -102.5t-5 -97.5q0 -84 11 -157.5t38 -129t69 -88t101 -32.5q51 0 108.5 55.5t122.5 134.5 l41 -24q-41 -53 -79.5 -96t-80.5 -76t-93.5 -50.5t-116.5 -17.5q-80 0 -142.5 37t-105.5 103.5t-64.5 155.5t-21.5 194zM395 848q131 14 222.5 45t149.5 73t85 89t27 94q0 25 -5.5 53.5t-20.5 53t-44 41t-74 16.5q-66 0 -119 -46t-95 -116t-74 -151.5t-52 -151.5zM471 1599 q0 47 32 85t75 38q33 0 53 -24.5t20 -59.5q0 -47 -31.5 -83.5t-72.5 -36.5q-35 0 -55.5 23.5t-20.5 57.5zM774 1604q0 47 35 82.5t76 35.5q33 0 53 -25.5t20 -62.5q0 -45 -32.5 -80.5t-71.5 -35.5q-35 0 -57.5 24.5t-22.5 61.5z" />
<glyph unicode="&#xec;" horiz-adv-x="319" d="M59 2l199 1286l207 70l-209 -1356h-197zM59 2zM193 1653q0 35 21.5 52t55.5 17q16 -4 37 -8t43 -20l193 -131l-35 -47l-262 86q-27 8 -40 17t-13 34z" />
<glyph unicode="&#xed;" horiz-adv-x="319" d="M59 2l199 1286l207 70l-209 -1356h-197zM59 2zM276 1563l236 131q51 29 88 28q59 0 59 -47q0 -53 -72 -73l-290 -86z" />
<glyph unicode="&#xee;" horiz-adv-x="319" d="M59 2l199 1286l207 70l-209 -1356h-197zM59 2zM184 1544q0 55 76 94l168 84l145 -84q25 -14 38.5 -34.5t13.5 -36.5q0 -51 -50 -51q-29 0 -72.5 38.5t-86.5 85.5q-59 -47 -112.5 -85.5t-82.5 -38.5q-37 0 -37 28z" />
<glyph unicode="&#xef;" horiz-adv-x="319" d="M59 2l199 1286l207 70l-209 -1356h-197zM59 2zM170 1599q0 47 32 85t75 38q33 0 53 -24.5t20 -59.5q0 -47 -31.5 -83.5t-72.5 -36.5q-35 0 -55.5 23.5t-20.5 57.5zM473 1604q0 47 35 82.5t76 35.5q33 0 53 -25.5t20 -62.5q0 -45 -32.5 -80.5t-71.5 -35.5 q-35 0 -57.5 24.5t-22.5 61.5z" />
<glyph unicode="&#xf0;" horiz-adv-x="849" d="M90 348q0 125 34 239.5t94.5 203t145.5 141.5t187 53q152 0 219 -147q6 68 6 137q0 199 -47 352l-176 -143l-39 67l188 152q-43 96 -105 162.5t-148 95.5l16 63q111 -39 188.5 -102t132.5 -147l179 141l36 -66l-174 -143q55 -109 80 -236t25 -264q0 -231 -40 -406 t-110.5 -292t-166 -176.5t-207.5 -59.5q-154 0 -236 97.5t-82 277.5zM233 274q0 -109 39 -174t117 -65q61 0 116.5 44t100.5 123t80 187.5t53 237.5q6 37 10.5 70.5t4.5 62.5q-45 88 -142 88q-86 0 -155.5 -51.5t-118.5 -132t-77 -183t-28 -207.5z" />
<glyph unicode="&#xf1;" horiz-adv-x="878" d="M59 0l199 1288l205 70l-29 -193q39 104 117 161.5t176 57.5q119 0 190.5 -71.5t71.5 -194.5q0 -31 -6 -67l-160 -1051h-196l157 1018q4 18 4 36.5t3 35.5q0 96 -41 154.5t-113 58.5q-35 0 -72 -23t-67.5 -60.5t-53 -87t-30.5 -102.5l-160 -1030h-195zM59 0zM418 1538 q18 88 68 136t118 48q41 0 68.5 -22.5t49 -48t41 -48t42.5 -22.5q27 0 56.5 22.5t47.5 94.5h55q-16 -86 -71.5 -134t-122.5 -48q-39 0 -66.5 22.5t-49 48t-40 48t-43.5 22.5q-27 0 -50.5 -24.5t-47.5 -94.5h-55z" />
<glyph unicode="&#xf2;" horiz-adv-x="966" d="M125 0zM125 381q0 201 34 383t108.5 320.5t195.5 219t295 80.5q147 0 219 -110.5t72 -319.5q0 -59 -5.5 -125.5t-17.5 -140.5q-31 -201 -86 -338t-132 -223t-173 -124t-213 -38q-154 0 -225.5 102.5t-71.5 313.5zM324 391q0 -176 47 -266t145 -90q55 0 102.5 29.5 t86 100.5t70.5 190.5t61 301.5q10 59 13 118t3 112q0 190 -55.5 306t-153.5 116q-49 0 -91 -30t-77 -99.5t-65.5 -181t-55.5 -275.5q-31 -195 -30 -332zM515 1653q0 35 21.5 52t55.5 17q16 -4 37 -8t43 -20l193 -131l-35 -47l-262 86q-27 8 -40 17t-13 34z" />
<glyph unicode="&#xf3;" horiz-adv-x="966" d="M125 0zM125 381q0 201 34 383t108.5 320.5t195.5 219t295 80.5q147 0 219 -110.5t72 -319.5q0 -59 -5.5 -125.5t-17.5 -140.5q-31 -201 -86 -338t-132 -223t-173 -124t-213 -38q-154 0 -225.5 102.5t-71.5 313.5zM324 391q0 -176 47 -266t145 -90q55 0 102.5 29.5 t86 100.5t70.5 190.5t61 301.5q10 59 13 118t3 112q0 190 -55.5 306t-153.5 116q-49 0 -91 -30t-77 -99.5t-65.5 -181t-55.5 -275.5q-31 -195 -30 -332zM582 1563l236 131q51 29 88 28q59 0 59 -47q0 -53 -72 -73l-290 -86z" />
<glyph unicode="&#xf4;" horiz-adv-x="966" d="M125 0zM125 381q0 201 34 383t108.5 320.5t195.5 219t295 80.5q147 0 219 -110.5t72 -319.5q0 -59 -5.5 -125.5t-17.5 -140.5q-31 -201 -86 -338t-132 -223t-173 -124t-213 -38q-154 0 -225.5 102.5t-71.5 313.5zM324 391q0 -176 47 -266t145 -90q55 0 102.5 29.5 t86 100.5t70.5 190.5t61 301.5q10 59 13 118t3 112q0 190 -55.5 306t-153.5 116q-49 0 -91 -30t-77 -99.5t-65.5 -181t-55.5 -275.5q-31 -195 -30 -332zM504 1544q0 55 76 94l168 84l145 -84q25 -14 38.5 -34.5t13.5 -36.5q0 -51 -50 -51q-29 0 -72.5 38.5t-86.5 85.5 q-59 -47 -112.5 -85.5t-82.5 -38.5q-37 0 -37 28z" />
<glyph unicode="&#xf5;" horiz-adv-x="966" d="M125 0zM125 381q0 201 34 383t108.5 320.5t195.5 219t295 80.5q147 0 219 -110.5t72 -319.5q0 -59 -5.5 -125.5t-17.5 -140.5q-31 -201 -86 -338t-132 -223t-173 -124t-213 -38q-154 0 -225.5 102.5t-71.5 313.5zM324 391q0 -176 47 -266t145 -90q55 0 102.5 29.5 t86 100.5t70.5 190.5t61 301.5q10 59 13 118t3 112q0 190 -55.5 306t-153.5 116q-49 0 -91 -30t-77 -99.5t-65.5 -181t-55.5 -275.5q-31 -195 -30 -332zM461 1538q18 88 68 136t118 48q41 0 68.5 -22.5t49 -48t41 -48t42.5 -22.5q27 0 56.5 22.5t47.5 94.5h55 q-16 -86 -71.5 -134t-122.5 -48q-39 0 -66.5 22.5t-49 48t-40 48t-43.5 22.5q-27 0 -50.5 -24.5t-47.5 -94.5h-55z" />
<glyph unicode="&#xf6;" horiz-adv-x="966" d="M125 0zM125 381q0 201 34 383t108.5 320.5t195.5 219t295 80.5q147 0 219 -110.5t72 -319.5q0 -59 -5.5 -125.5t-17.5 -140.5q-31 -201 -86 -338t-132 -223t-173 -124t-213 -38q-154 0 -225.5 102.5t-71.5 313.5zM324 391q0 -176 47 -266t145 -90q55 0 102.5 29.5 t86 100.5t70.5 190.5t61 301.5q10 59 13 118t3 112q0 190 -55.5 306t-153.5 116q-49 0 -91 -30t-77 -99.5t-65.5 -181t-55.5 -275.5q-31 -195 -30 -332zM489 1599q0 47 32 85t75 38q33 0 53 -24.5t20 -59.5q0 -47 -31.5 -83.5t-72.5 -36.5q-35 0 -55.5 23.5t-20.5 57.5z M792 1604q0 47 35 82.5t76 35.5q33 0 53 -25.5t20 -62.5q0 -45 -32.5 -80.5t-71.5 -35.5q-35 0 -57.5 24.5t-22.5 61.5z" />
<glyph unicode="&#xf7;" horiz-adv-x="579" d="M129 817v90h600v-90h-600zM307 516q0 55 36 93t93 38q53 0 91 -38t38 -93q0 -53 -38 -91t-91 -38q-57 0 -93 38t-36 91zM307 1208q0 53 36 92t93 39q53 0 91 -38.5t38 -92.5q0 -55 -38 -93t-91 -38q-57 0 -93 38t-36 93z" />
<glyph unicode="&#xf8;" horiz-adv-x="966" d="M115 -37l71 121q-33 51 -47 123t-14 168q0 203 32.5 385t108.5 321.5t196 221t296 81.5q98 0 166 -55l61 105l57 -37l-71 -119q78 -113 78 -332q0 -59 -6.5 -122.5t-16.5 -135.5q-31 -201 -86 -338t-132 -223t-173 -124t-213 -38q-125 0 -193 68l-61 -107zM324 403 q0 -23 1 -42t3 -37l489 823q-29 76 -72 119t-102 43q-49 0 -91 -30t-77 -99.5t-65.5 -181t-55.5 -275.5q-14 -92 -22 -172t-8 -148zM342 219q37 -184 174 -184q55 0 102.5 29.5t86 100.5t70.5 190.5t61 301.5q10 59 12 115.5t2 110.5q0 47 -3 90t-7 82z" />
<glyph unicode="&#xf9;" horiz-adv-x="878" d="M100 0zM100 262q0 35 6 70l150 962l205 70l-156 -1004q-6 -41 -6 -71q0 -98 40 -158.5t114 -60.5q37 0 73.5 21.5t66.5 58t51.5 84t29.5 98.5l149 962l207 70l-209 -1364h-157l-15 176q-37 -84 -115.5 -135t-171.5 -51q-117 0 -189.5 72.5t-72.5 199.5zM472 1653 q0 35 21.5 52t55.5 17q16 -4 37 -8t43 -20l193 -131l-35 -47l-262 86q-27 8 -40 17t-13 34z" />
<glyph unicode="&#xfa;" horiz-adv-x="878" d="M100 0zM100 262q0 35 6 70l150 962l205 70l-156 -1004q-6 -41 -6 -71q0 -98 40 -158.5t114 -60.5q37 0 73.5 21.5t66.5 58t51.5 84t29.5 98.5l149 962l207 70l-209 -1364h-157l-15 176q-37 -84 -115.5 -135t-171.5 -51q-117 0 -189.5 72.5t-72.5 199.5zM539 1563l236 131 q51 29 88 28q59 0 59 -47q0 -53 -72 -73l-290 -86z" />
<glyph unicode="&#xfb;" horiz-adv-x="878" d="M100 0zM100 262q0 35 6 70l150 962l205 70l-156 -1004q-6 -41 -6 -71q0 -98 40 -158.5t114 -60.5q37 0 73.5 21.5t66.5 58t51.5 84t29.5 98.5l149 962l207 70l-209 -1364h-157l-15 176q-37 -84 -115.5 -135t-171.5 -51q-117 0 -189.5 72.5t-72.5 199.5zM461 1544 q0 55 76 94l168 84l145 -84q25 -14 38.5 -34.5t13.5 -36.5q0 -51 -50 -51q-29 0 -72.5 38.5t-86.5 85.5q-59 -47 -112.5 -85.5t-82.5 -38.5q-37 0 -37 28z" />
<glyph unicode="&#xfc;" horiz-adv-x="878" d="M100 0zM100 262q0 35 6 70l150 962l205 70l-156 -1004q-6 -41 -6 -71q0 -98 40 -158.5t114 -60.5q37 0 73.5 21.5t66.5 58t51.5 84t29.5 98.5l149 962l207 70l-209 -1364h-157l-15 176q-37 -84 -115.5 -135t-171.5 -51q-117 0 -189.5 72.5t-72.5 199.5zM446 1599 q0 47 32 85t75 38q33 0 53 -24.5t20 -59.5q0 -47 -31.5 -83.5t-72.5 -36.5q-35 0 -55.5 23.5t-20.5 57.5zM749 1604q0 47 35 82.5t76 35.5q33 0 53 -25.5t20 -62.5q0 -45 -32.5 -80.5t-71.5 -35.5q-35 0 -57.5 24.5t-22.5 61.5z" />
<glyph unicode="&#xfd;" horiz-adv-x="806" d="M-18 -365l10 74q41 0 84 14.5t83 41t73.5 63.5t56.5 82l96 205l-164 1243h211l92 -936l414 936h63l-618 -1428q-59 -141 -165.5 -218t-235.5 -77zM0 0zM502 1563l236 131q51 29 88 28q59 0 59 -47q0 -53 -72 -73l-290 -86z" />
<glyph unicode="&#xfe;" horiz-adv-x="907" d="M-8 -373l315 2046l207 70l-92 -594q53 115 132 175t183 60q131 0 195.5 -108.5t64.5 -310.5q0 -193 -39.5 -373t-111.5 -319.5t-169 -223.5t-212 -84q-66 0 -119 46t-78 145l-80 -529h-196zM291 285q0 -43 13 -90.5t38 -86t57.5 -63.5t71.5 -25q53 0 112.5 73t109.5 202 t83 306t33 386q0 135 -36 214t-128 79q-45 0 -87 -28.5t-75.5 -76t-58.5 -109.5t-35 -130l-96 -617q-2 -10 -2 -17v-17z" />
<glyph unicode="&#xff;" horiz-adv-x="806" d="M-18 -365l10 74q41 0 84 14.5t83 41t73.5 63.5t56.5 82l96 205l-164 1243h211l92 -936l414 936h63l-618 -1428q-59 -141 -165.5 -218t-235.5 -77zM0 0zM410 1599q0 47 32 85t75 38q33 0 53 -24.5t20 -59.5q0 -47 -31.5 -83.5t-72.5 -36.5q-35 0 -55.5 23.5t-20.5 57.5z M713 1604q0 47 35 82.5t76 35.5q33 0 53 -25.5t20 -62.5q0 -45 -32.5 -80.5t-71.5 -35.5q-35 0 -57.5 24.5t-22.5 61.5z" />
<glyph unicode="&#x152;" horiz-adv-x="1662" d="M145 446q0 88 10.5 193.5t30.5 232.5q33 207 88.5 367t142.5 267.5t207.5 162.5t284.5 55q74 0 133.5 -27.5t102.5 -72.5l14 82h752l-10 -49h-553l-119 -776h317l-8 -47h-317l-121 -787h553l-6 -47h-752l18 127q-43 -35 -84 -63.5t-89 -51t-108.5 -35t-139.5 -12.5 q-176 0 -261.5 111.5t-85.5 369.5zM356 502q0 -215 53.5 -345t157.5 -130q88 0 174 91t154 250.5t110 377t42 466.5q0 209 -52.5 328t-156.5 119q-86 0 -172 -85t-155 -238.5t-112 -366.5t-43 -467z" />
<glyph unicode="&#x153;" horiz-adv-x="1628" d="M125 381q0 201 34 383t108.5 320.5t195.5 219t295 80.5q221 0 270 -254q92 141 196.5 197.5t219.5 56.5q152 0 215 -53t63 -172q0 -90 -48 -162.5t-134 -123t-206 -79t-265 -30.5q-6 -25 -12 -60.5t-11.5 -78.5t-8.5 -89.5t-3 -89.5q0 -84 11.5 -157.5t38 -129t67.5 -88 t100 -32.5q53 0 110.5 55.5t123.5 134.5l39 -24q-41 -53 -79 -96t-80 -76t-93 -50.5t-117 -17.5q-106 0 -180 62.5t-113 167.5q-82 -123 -192.5 -176.5t-247.5 -53.5q-154 0 -225.5 102.5t-71.5 313.5zM324 391q0 -176 47 -266t145 -90q68 0 128.5 71.5t106.5 191.5 t73.5 272.5t27.5 316.5q0 190 -55.5 306t-153.5 116q-49 0 -91 -44t-78 -118t-63.5 -169t-47 -196.5t-29.5 -203t-10 -187.5zM1092 848q82 10 165.5 33.5t153.5 62.5t114 94.5t44 128.5q0 27 -4 53.5t-18.5 47t-42 33t-72.5 12.5q-66 0 -120.5 -46t-96 -116t-72.5 -151.5 t-51 -151.5z" />
<glyph unicode="&#x178;" horiz-adv-x="790" d="M274 0zM274 1706h205l109 -645l368 645h88l-405 -711l-156 -995h-194l137 903zM455 1947q0 47 32 85t75 38q33 0 53 -24.5t20 -59.5q0 -47 -31.5 -83.5t-72.5 -36.5q-35 0 -55.5 23.5t-20.5 57.5zM758 1952q0 47 35 82.5t76 35.5q33 0 53 -25.5t20 -62.5 q0 -45 -32.5 -80.5t-71.5 -35.5q-35 0 -57.5 24.5t-22.5 61.5z" />
<glyph unicode="&#x2c6;" horiz-adv-x="491" d="M266 1544q0 55 76 94l168 84l145 -84q25 -14 38.5 -34.5t13.5 -36.5q0 -51 -50 -51q-29 0 -72.5 38.5t-86.5 85.5q-59 -47 -112.5 -85.5t-82.5 -38.5q-37 0 -37 28z" />
<glyph unicode="&#x2dc;" horiz-adv-x="610" d="M279 1538q18 88 68 136t118 48q41 0 68.5 -22.5t49 -48t41 -48t42.5 -22.5q27 0 56.5 22.5t47.5 94.5h55q-16 -86 -71.5 -134t-122.5 -48q-39 0 -66.5 22.5t-49 48t-40 48t-43.5 22.5q-27 0 -50.5 -24.5t-47.5 -94.5h-55z" />
<glyph unicode="&#x2000;" horiz-adv-x="1035" />
<glyph unicode="&#x2001;" horiz-adv-x="2070" />
<glyph unicode="&#x2002;" horiz-adv-x="1035" />
<glyph unicode="&#x2003;" horiz-adv-x="2070" />
<glyph unicode="&#x2004;" horiz-adv-x="690" />
<glyph unicode="&#x2005;" horiz-adv-x="517" />
<glyph unicode="&#x2006;" horiz-adv-x="345" />
<glyph unicode="&#x2007;" horiz-adv-x="345" />
<glyph unicode="&#x2008;" horiz-adv-x="258" />
<glyph unicode="&#x2009;" horiz-adv-x="414" />
<glyph unicode="&#x200a;" horiz-adv-x="115" />
<glyph unicode="&#x2010;" horiz-adv-x="634" d="M170 694l16 117h508l-18 -117h-506z" />
<glyph unicode="&#x2011;" horiz-adv-x="634" d="M170 694l16 117h508l-18 -117h-506z" />
<glyph unicode="&#x2012;" horiz-adv-x="634" d="M170 694l16 117h508l-18 -117h-506z" />
<glyph unicode="&#x2013;" horiz-adv-x="1005" d="M166 694l18 117h877l-19 -117h-876z" />
<glyph unicode="&#x2014;" horiz-adv-x="1658" d="M166 694l18 117h1551l-19 -117h-1550z" />
<glyph unicode="&#x2018;" horiz-adv-x="274" d="M272 1571q0 37 19.5 78t49.5 77.5t66.5 67.5t71.5 47q-35 -49 -54 -94t-19 -88q0 -88 92 -88q-57 -109 -136 -109q-41 0 -65.5 31t-24.5 78z" />
<glyph unicode="&#x2019;" horiz-adv-x="274" d="M287 1724q57 109 137 109q41 0 64.5 -32t23.5 -77q0 -37 -19.5 -77.5t-50 -79.5t-67.5 -70t-72 -45q37 47 56.5 93t19.5 87q0 92 -92 92z" />
<glyph unicode="&#x201a;" horiz-adv-x="274" d="M41 143q61 109 139 109q41 0 63.5 -31t22.5 -76q0 -37 -19.5 -77.5t-49 -79.5t-66.5 -70t-72 -47q72 92 72 184q0 88 -90 88z" />
<glyph unicode="&#x201c;" horiz-adv-x="509" d="M289 1585q0 33 18.5 73t47 78t66.5 70.5t75 51.5q-76 -96 -76 -187q0 -74 67 -86l5 25q6 33 26.5 68.5t49 70.5t63.5 63.5t69 45.5q-41 -51 -58 -97.5t-17 -91.5q0 -84 90 -84q-57 -106 -133 -106q-78 0 -90 71q-51 -72 -115 -71q-41 0 -64.5 29.5t-23.5 76.5z" />
<glyph unicode="&#x201d;" horiz-adv-x="509" d="M307 1745q57 111 137 110q33 0 55.5 -21t28.5 -56q55 78 117 77q43 0 65.5 -30.5t22.5 -73.5q0 -35 -18.5 -76t-48 -78.5t-66.5 -70.5t-76 -51q76 94 76 180q0 82 -70 90q0 -4 1 -5t1 -5q0 -35 -20 -73t-51 -75t-68 -66.5t-69 -45.5q74 98 73 184q0 86 -90 86z" />
<glyph unicode="&#x201e;" horiz-adv-x="509" d="M59 147q59 109 136 109q35 0 57.5 -21.5t28.5 -54.5q29 37 56.5 56.5t59.5 19.5q41 0 64.5 -30.5t23.5 -71.5q0 -35 -18 -76t-47 -79t-67 -70.5t-74 -53.5q72 96 71 188q0 72 -67 82q2 -2 2 -8q0 -33 -20.5 -71.5t-51.5 -75.5t-67.5 -68t-69.5 -47q35 49 54.5 94t19.5 92 q0 86 -91 86z" />
<glyph unicode="&#x2022;" horiz-adv-x="628" d="M180 862q0 76 28 143.5t73 119t103.5 81t121.5 29.5q51 0 93 -19.5t72.5 -54.5t47 -82t16.5 -102q0 -72 -27.5 -138.5t-72.5 -117.5t-104.5 -81t-122.5 -30q-102 0 -165 71t-63 181z" />
<glyph unicode="&#x2026;" horiz-adv-x="1910" d="M57 88q0 63 43.5 108.5t94.5 45.5q41 0 67.5 -31t26.5 -76q0 -31 -11.5 -58.5t-30 -49t-43 -33.5t-50.5 -12q-43 0 -70 30.5t-27 75.5zM852 88q0 31 12.5 59.5t31.5 49t43.5 33t49.5 12.5q45 0 70.5 -30t25.5 -75q0 -31 -11 -59.5t-29.5 -50t-43 -33.5t-51.5 -12 q-43 0 -70.5 30.5t-27.5 75.5zM1649 88q0 31 12 59.5t31.5 49t44 33t49.5 12.5q45 0 69.5 -30t24.5 -75q0 -63 -40 -109t-95 -46q-41 0 -68.5 30.5t-27.5 75.5z" />
<glyph unicode="&#x202f;" horiz-adv-x="414" />
<glyph unicode="&#x205f;" horiz-adv-x="517" />
<glyph unicode="&#x20ac;" horiz-adv-x="1048" d="M154 655l32 88h39l29 187h-59l32 86h43q33 162 87.5 293t136 223t191.5 142t251 50q78 0 136 -35.5t99 -95.5l-43 -92q-14 35 -39.5 64.5t-57.5 51t-67.5 34t-68.5 12.5q-137 0 -245.5 -169t-178.5 -478h424l-41 -86h-399l-11 -74q-4 -29 -10 -56.5t-4 -56.5h338l-45 -88 h-301q-6 -84 -6 -155q0 -223 54 -347t159 -124q41 0 85 19.5t87 51t83 72.5t74 86h74q-92 -154 -213 -223.5t-266 -69.5q-182 0 -266 123t-84 375q0 45 3 92t7 100h-59z" />
<glyph unicode="&#x2122;" horiz-adv-x="1136" d="M260 1581v125h459v-125h-158v-514h-137v514h-164zM776 1069v639h156l121 -332l121 332h149v-641h-129v352l-139 -354l-152 369v-365h-127z" />
<glyph unicode="&#x25fc;" horiz-adv-x="1361" d="M0 0v1362h1362v-1362h-1362z" />
</font>
</defs>
</svg>
